{"glyphs":{"0":{"ha":1071,"x_min":85,"x_max":1174,"o":"m 938 71 q 940 67 938 69 l 869 10 l 783 0 l 231 0 l 188 38 l 89 138 l 85 353 l 117 542 l 146 707 l 157 774 l 232 832 l 369 936 l 494 946 l 1003 946 l 1113 840 l 1169 779 l 1174 775 l 1164 718 l 1136 553 l 1094 310 l 1075 193 l 971 92 l 950 74 q 937 83 943 79 q 926 89 931 88 q 910 111 919 101 q 892 129 901 121 q 875 147 883 138 q 861 171 867 157 q 850 178 854 174 l 849 179 q 842 190 849 183 q 832 201 835 197 l 832 228 l 836 232 l 836 246 l 843 250 l 843 264 l 849 264 l 849 307 l 843 314 q 844 318 843 317 q 844 322 844 319 q 840 347 844 335 q 835 372 835 358 q 835 376 835 375 q 836 381 836 378 l 832 386 l 832 399 q 833 400 832 400 q 843 408 836 400 q 854 418 850 415 q 874 430 860 422 q 890 443 888 438 l 933 443 l 938 436 l 944 436 q 962 433 954 436 q 981 431 969 431 l 990 425 q 1006 422 997 425 q 1017 411 1014 418 q 1019 412 1018 411 q 1022 413 1021 413 q 1036 409 1029 413 q 1046 400 1043 406 l 1058 400 q 1044 409 1056 403 q 1028 418 1033 415 q 1019 429 1028 426 q 1006 436 1010 432 l 993 436 l 986 443 l 975 443 q 970 447 972 444 q 967 449 968 449 q 955 449 963 449 q 940 451 947 450 q 921 456 932 453 q 918 458 921 458 q 915 461 915 458 q 921 475 915 467 q 934 491 926 483 q 949 504 942 499 q 960 510 956 510 q 971 521 965 510 q 979 539 976 532 q 980 541 979 540 q 981 543 981 542 q 988 547 983 546 q 993 553 993 547 l 1006 553 l 1024 565 l 1035 565 q 1042 572 1036 567 q 1056 583 1049 578 q 1069 593 1063 589 q 1076 597 1075 597 l 1088 608 q 1067 597 1081 601 q 1042 592 1053 592 q 1032 586 1038 589 q 1024 579 1026 583 l 1011 579 q 994 567 1006 568 q 981 561 983 567 l 968 558 q 961 545 968 551 q 950 535 954 539 l 950 529 l 938 517 q 931 508 939 515 q 921 497 924 500 q 877 465 896 482 q 832 431 858 447 l 801 411 q 797 413 799 411 q 761 427 786 417 q 717 450 736 438 l 726 506 l 758 694 l 763 721 q 783 715 774 718 q 801 708 792 711 q 816 716 804 710 q 840 730 828 722 q 865 746 853 738 q 879 758 876 754 l 867 758 l 861 750 q 858 751 860 750 q 856 751 857 751 q 838 746 846 751 q 819 740 829 740 l 814 740 l 806 732 l 794 732 l 789 740 l 776 740 l 771 746 l 758 746 q 746 750 754 750 l 732 758 q 724 764 726 758 l 704 764 q 686 750 699 761 q 664 732 674 739 l 643 732 q 639 738 640 735 q 635 744 638 742 q 631 753 632 749 q 613 773 622 765 q 595 785 604 781 q 578 794 586 790 q 561 807 569 799 l 561 813 l 556 813 l 549 821 l 543 821 q 552 808 543 818 q 573 785 561 797 q 596 761 585 772 q 610 746 607 750 l 621 732 l 563 732 l 538 635 l 532 603 l 518 603 l 518 610 q 514 608 517 608 q 495 620 504 608 q 475 632 486 632 q 467 644 471 632 q 460 658 464 656 l 460 672 l 435 672 l 435 678 q 428 679 431 678 q 424 681 425 679 q 419 687 424 683 q 411 690 414 690 l 404 690 q 417 672 404 683 q 435 658 429 661 q 445 650 439 656 q 453 646 451 644 l 453 633 q 481 609 471 626 q 508 583 492 592 l 440 583 l 440 592 l 422 592 q 413 599 419 597 q 400 603 406 601 q 384 599 393 600 q 364 597 375 597 l 364 592 l 369 592 q 382 591 374 592 q 399 588 390 590 q 414 583 407 586 q 422 572 421 579 l 435 572 l 440 565 l 478 565 l 483 561 l 525 561 l 518 522 l 483 486 l 465 486 q 458 494 463 490 q 453 504 453 497 q 442 512 450 506 q 431 517 433 518 q 422 524 428 519 q 410 535 417 529 q 399 544 404 540 q 393 547 394 547 l 386 543 l 375 543 l 382 535 l 393 535 q 410 522 399 532 q 432 499 421 511 q 451 474 443 486 q 460 454 460 461 l 460 404 l 453 393 l 453 368 l 447 368 l 447 354 q 443 349 443 354 q 442 347 443 347 q 442 346 442 347 q 440 343 440 344 q 427 337 438 339 q 411 332 417 335 q 397 322 404 328 q 382 314 390 317 q 374 292 379 307 q 369 264 369 278 l 364 258 l 364 246 q 371 257 365 246 q 375 268 374 263 q 383 282 379 275 q 393 294 388 289 q 422 314 404 306 q 453 333 440 322 q 458 340 453 338 q 465 343 463 342 l 465 363 l 471 368 l 471 386 l 478 393 l 478 418 l 483 425 l 483 431 q 488 454 483 443 l 510 474 l 494 383 l 490 360 l 465 215 l 671 215 q 667 210 668 213 q 665 206 667 208 l 658 197 l 654 189 q 658 192 658 189 q 667 196 664 196 q 676 204 671 196 q 685 213 679 207 q 697 219 690 219 q 732 244 718 228 q 771 268 746 261 q 783 281 775 278 q 799 292 792 285 q 803 294 801 294 q 806 294 804 293 l 806 300 q 824 288 818 300 l 819 276 l 819 269 q 817 243 819 258 q 806 228 814 228 l 801 208 l 801 189 q 812 176 806 185 q 825 157 818 167 q 840 140 832 147 q 856 133 847 133 q 872 117 861 133 q 886 94 883 101 q 904 83 890 88 q 921 71 918 79 l 938 71 m 699 340 l 710 406 q 711 404 710 404 l 711 393 l 724 381 l 724 368 l 728 363 l 728 350 q 734 363 733 351 q 735 385 735 374 q 736 394 735 390 q 738 401 736 397 q 742 398 740 401 q 746 393 743 394 q 767 386 753 389 q 789 381 781 383 l 789 365 q 794 318 789 339 q 766 292 779 303 q 733 268 753 281 q 697 238 715 256 q 688 228 692 232 q 678 221 683 225 l 699 340 m 885 758 l 890 764 l 879 764 l 879 758 l 885 758 z "},"1":{"ha":686,"x_min":164,"x_max":810,"o":"m 810 949 l 794 856 l 783 794 l 751 603 l 725 450 l 696 429 l 665 410 q 661 411 663 410 q 635 422 653 415 q 601 438 618 429 q 570 458 583 447 q 557 478 557 468 l 539 500 q 529 525 539 511 q 514 546 519 539 q 508 552 511 549 q 504 564 504 556 l 496 571 l 504 571 q 503 574 504 574 q 503 578 503 575 q 508 605 503 590 q 514 632 514 619 l 514 639 l 521 650 l 521 664 q 534 679 525 669 q 552 699 543 689 q 571 717 561 710 q 588 725 581 725 q 627 719 607 725 q 665 707 647 714 q 680 715 668 708 q 704 728 692 721 q 728 744 717 736 q 743 757 740 753 l 731 757 l 725 749 q 722 749 724 749 q 719 750 721 750 q 701 744 710 750 q 683 739 693 739 l 678 739 l 669 731 l 658 731 l 653 739 l 640 739 l 635 744 l 622 744 q 610 749 618 749 l 596 757 q 588 763 590 757 l 568 763 q 557 755 564 761 q 542 742 550 749 q 526 731 533 736 q 517 725 519 725 q 501 738 508 725 q 494 751 497 743 q 477 772 486 764 q 459 784 468 779 q 442 793 450 789 q 425 806 433 797 l 425 811 l 419 811 l 413 819 l 407 819 q 416 806 407 817 q 437 783 425 796 q 460 760 449 771 q 474 744 471 749 l 490 725 q 492 718 490 721 q 493 714 492 715 q 496 707 496 714 l 504 700 l 504 671 l 496 664 l 496 657 q 492 631 496 646 q 478 614 488 617 l 467 582 l 449 582 l 443 578 l 421 579 q 417 582 421 582 q 413 582 414 582 l 413 596 l 419 601 l 419 614 l 425 621 l 425 639 l 431 644 l 431 675 q 417 644 428 660 q 407 624 407 628 q 400 614 407 617 l 400 601 l 382 601 l 382 608 q 378 607 381 607 q 359 619 368 607 q 339 631 350 631 q 331 642 335 631 q 324 657 328 654 l 324 671 l 303 671 l 313 726 l 164 732 l 171 806 l 194 949 l 810 949 m 661 69 l 650 8 l 432 0 l 196 0 l 214 136 l 232 250 q 235 255 233 253 q 238 260 236 257 q 239 267 239 263 q 247 281 243 274 q 257 293 251 288 q 286 313 268 304 q 317 332 304 321 q 322 338 317 336 q 329 342 326 340 l 329 361 l 335 367 l 335 385 l 342 392 l 342 417 l 347 424 l 347 429 q 351 453 347 442 q 368 467 354 456 q 397 494 382 479 q 426 522 413 508 q 443 542 440 536 l 460 542 l 460 533 q 481 513 467 524 q 504 492 494 501 l 535 457 q 539 451 538 454 q 544 447 540 447 l 544 435 q 539 424 539 432 q 526 405 536 418 q 506 377 517 392 q 483 350 494 363 q 467 335 472 338 q 451 327 461 332 q 438 317 440 322 l 419 313 l 449 313 q 504 365 481 340 q 557 424 528 389 q 563 418 560 421 q 567 414 567 415 q 569 408 567 411 q 575 403 572 404 l 575 392 l 588 379 l 588 367 l 592 361 l 592 349 q 598 361 597 350 q 599 383 599 372 q 600 393 599 389 q 601 400 600 396 q 606 397 604 400 q 610 392 607 393 q 631 385 617 388 q 653 379 644 382 l 653 364 q 658 317 653 338 q 630 290 643 301 q 597 267 617 279 q 561 236 579 254 q 551 227 556 231 q 539 218 546 224 q 529 204 533 213 l 522 196 l 518 188 q 522 190 522 188 q 531 194 528 194 q 540 203 535 194 q 549 212 543 206 q 561 218 554 218 q 596 243 582 226 q 635 267 610 260 q 647 280 639 276 q 663 290 656 283 q 667 292 665 293 q 669 293 668 292 l 669 299 q 688 286 682 299 l 683 275 l 683 268 q 681 242 683 257 q 669 226 678 226 l 665 207 l 665 188 l 678 171 l 674 149 l 661 69 m 243 313 l 278 515 q 308 481 293 500 q 324 453 324 463 l 324 403 l 317 392 l 317 367 l 311 367 l 311 353 q 307 347 307 353 q 306 346 307 346 q 306 344 306 346 q 304 342 304 343 q 291 335 301 338 q 275 331 281 333 q 261 321 268 326 q 246 313 254 315 l 240 301 l 243 313 m 299 571 l 304 564 l 342 564 l 347 560 l 394 560 l 394 551 l 407 551 l 407 546 q 401 540 404 543 q 394 533 397 538 l 347 485 l 329 485 q 322 492 326 489 q 317 503 317 496 q 306 510 314 504 q 294 515 297 517 l 279 528 l 286 571 l 299 571 m 296 625 l 300 656 q 310 647 304 651 q 317 644 315 643 l 317 632 q 345 608 335 625 q 372 582 356 590 l 304 582 l 304 590 l 290 590 l 296 625 m 699 371 q 699 375 699 374 q 700 379 700 376 l 696 385 l 696 397 q 697 399 696 399 q 707 406 700 399 q 718 417 714 414 l 719 418 l 706 338 q 701 353 703 344 q 699 371 699 361 m 407 313 l 407 306 l 413 306 l 419 313 l 407 313 m 749 757 l 754 763 l 743 763 l 743 757 l 749 757 z "},"2":{"ha":1064,"x_min":26,"x_max":1175,"o":"m 889 122 q 900 110 893 115 q 914 104 907 104 l 919 104 q 903 124 919 111 q 878 140 886 138 q 862 163 871 153 q 844 181 853 172 q 826 199 835 189 q 813 222 818 208 q 801 229 806 225 l 800 231 q 793 242 800 235 q 783 253 786 249 l 783 279 l 788 283 l 788 297 l 794 301 l 794 313 l 1064 313 l 1082 253 l 1040 0 l 26 0 l 57 192 l 65 240 l 97 431 l 249 569 l 358 575 q 392 538 374 560 q 411 506 411 517 l 411 456 l 404 444 l 404 419 l 399 419 l 399 406 q 394 400 394 406 q 394 399 394 399 q 393 397 393 399 q 392 394 392 396 q 378 388 389 390 q 363 383 368 386 q 349 374 356 379 q 333 365 342 368 q 326 344 331 358 q 321 315 321 329 l 315 310 l 315 297 q 322 308 317 297 q 326 319 325 314 q 335 333 331 326 q 344 346 339 340 q 374 365 356 357 q 404 385 392 374 q 409 391 404 389 q 417 394 414 393 l 417 414 l 422 419 l 422 438 l 429 444 l 429 469 l 435 476 l 435 482 q 439 506 435 494 q 450 516 440 507 q 472 536 460 525 q 498 559 485 547 q 519 581 511 571 l 551 581 q 572 562 560 571 q 592 544 583 553 l 622 510 q 626 503 625 507 q 632 500 628 500 l 632 488 q 626 476 626 485 q 614 458 624 471 q 593 430 604 444 q 571 403 582 415 q 554 388 560 390 q 538 380 549 385 q 525 369 528 375 l 507 365 l 528 365 l 485 236 l 619 215 l 644 269 q 649 271 646 271 q 675 289 664 278 q 701 310 686 300 l 771 311 q 767 290 769 300 q 757 279 764 279 l 753 260 l 753 240 q 763 227 757 236 q 776 208 769 218 q 791 192 783 199 q 807 185 799 185 q 824 169 813 185 q 838 146 835 153 q 856 135 842 139 q 872 122 869 131 l 889 122 m 700 581 l 725 679 l 651 732 l 601 688 l 601 692 l 608 703 l 608 717 q 622 732 613 722 q 640 752 631 742 q 658 770 649 763 q 675 778 668 778 q 715 772 694 778 q 753 760 735 767 q 767 767 756 761 q 792 781 779 774 q 816 797 804 789 q 831 810 828 806 l 818 810 l 813 801 q 810 802 811 801 q 807 803 808 803 q 789 797 797 803 q 771 792 781 792 l 765 792 l 757 783 l 746 783 l 740 792 l 728 792 l 722 797 l 710 797 q 697 801 706 801 l 683 810 q 675 815 678 810 l 656 815 q 644 808 651 814 q 629 795 638 801 q 614 783 621 789 q 604 778 607 778 q 589 790 596 778 q 582 804 585 796 q 565 824 574 817 q 547 837 556 832 q 529 846 538 842 q 513 858 521 850 l 513 864 l 507 864 l 500 872 l 494 872 q 503 859 494 869 q 524 836 513 849 q 547 813 536 824 q 561 797 558 801 l 578 778 q 579 771 578 774 q 581 767 579 768 q 583 760 583 767 l 592 753 l 592 724 l 583 717 l 583 710 q 579 684 583 699 q 565 667 575 669 l 560 650 l 556 647 l 500 643 l 500 649 l 507 654 l 507 667 l 513 674 l 513 692 l 518 697 l 518 728 q 505 697 515 713 q 494 676 494 681 q 488 667 494 669 l 488 654 l 469 654 l 469 661 q 465 660 468 660 q 447 672 456 660 q 426 683 438 683 q 419 695 422 683 q 411 710 415 707 l 411 724 l 386 724 l 386 729 q 379 731 382 729 q 375 732 376 731 q 370 738 375 735 q 363 742 365 742 l 356 742 q 368 724 356 735 q 386 710 381 713 q 397 701 390 707 q 404 697 403 696 l 404 685 q 428 665 419 679 q 450 640 438 651 l 392 636 l 392 643 l 374 643 q 364 651 371 649 q 351 654 357 653 q 335 650 344 651 q 315 649 326 649 l 315 643 l 321 643 q 340 642 326 643 q 364 635 353 640 l 354 635 l 168 635 l 160 794 l 297 915 l 325 935 l 494 947 l 1050 947 l 1175 821 l 1156 679 l 1126 513 l 1021 403 l 794 369 q 795 372 794 371 q 796 374 796 372 q 791 398 796 386 q 786 424 786 410 q 787 428 786 426 q 788 432 788 429 l 783 438 l 783 450 q 785 451 783 451 q 794 459 788 451 q 806 469 801 467 q 825 481 811 474 q 842 494 839 489 l 885 494 l 889 488 l 896 488 q 913 485 906 488 q 932 482 921 482 l 942 476 q 957 473 949 476 q 968 463 965 469 q 971 463 969 463 q 974 464 972 464 q 988 460 981 464 q 997 451 994 457 l 1010 451 q 996 460 1007 454 q 979 469 985 467 q 970 481 979 478 q 957 488 961 483 l 944 488 l 938 494 l 926 494 q 922 498 924 496 q 918 500 919 500 q 906 501 914 500 q 892 503 899 501 q 872 507 883 504 q 869 510 872 510 q 867 513 867 510 q 872 526 867 518 q 885 542 878 535 q 900 556 893 550 q 911 561 907 561 q 922 572 917 561 q 931 590 928 583 q 931 592 931 592 q 932 594 932 593 q 940 598 935 597 q 944 604 944 599 l 957 604 l 975 617 l 986 617 q 994 624 988 618 q 1007 635 1000 629 q 1020 644 1014 640 q 1028 649 1026 649 l 1039 660 q 1018 648 1032 653 q 993 643 1004 643 q 983 638 989 640 q 975 631 978 635 l 963 631 q 946 619 957 619 q 932 613 935 618 l 919 610 q 913 597 919 603 q 901 586 906 590 l 901 581 l 889 568 q 883 559 890 567 q 872 549 875 551 q 828 516 847 533 q 783 482 810 499 l 753 463 q 749 464 750 463 q 723 475 740 468 q 688 491 706 482 q 658 510 671 500 q 644 531 644 521 l 626 553 q 623 566 626 558 q 614 581 619 574 l 700 581 m 536 365 q 592 417 568 393 q 644 476 615 442 q 651 471 647 474 q 654 467 654 468 q 657 460 654 464 q 663 456 660 457 l 663 444 l 675 432 l 675 419 l 679 414 l 679 401 q 685 414 685 403 q 686 436 686 425 q 688 446 686 442 q 689 453 688 449 q 693 449 692 453 q 697 444 694 446 q 718 438 704 440 q 740 432 732 435 l 740 417 q 746 369 740 390 l 742 365 l 536 365 m 475 581 l 476 581 l 435 538 l 417 538 q 409 545 414 542 q 404 556 404 549 q 393 563 401 557 q 382 568 385 569 l 372 575 l 475 581 m 494 365 l 494 358 l 500 358 l 507 365 l 494 365 m 663 310 l 671 310 l 657 297 l 663 310 m 836 810 l 842 815 l 831 815 l 831 810 l 836 810 z "},"3":{"ha":1075,"x_min":53,"x_max":1183,"o":"m 822 139 q 833 126 826 132 q 847 121 840 121 l 853 121 q 836 141 853 128 q 811 157 819 154 q 795 179 804 169 q 777 197 786 189 q 760 215 768 206 q 746 239 751 225 q 735 246 739 242 l 733 247 q 726 258 733 251 q 717 269 719 265 l 717 296 l 721 300 l 721 314 l 728 318 l 728 332 l 733 332 l 733 375 l 728 382 q 728 386 728 385 q 729 390 729 388 q 724 415 729 403 q 719 440 719 426 q 720 444 719 443 q 721 449 721 446 l 717 454 l 717 467 q 718 468 717 468 q 728 476 721 468 q 739 486 735 483 q 758 498 744 490 q 775 511 772 506 l 818 511 l 822 504 l 829 504 q 847 501 839 504 q 865 499 854 499 l 875 493 q 890 490 882 493 q 901 479 899 486 q 904 480 903 479 q 907 481 906 481 q 921 477 914 481 q 931 468 928 474 l 943 468 q 929 477 940 471 q 913 486 918 483 q 903 497 913 494 q 890 504 894 500 l 878 504 l 871 511 l 860 511 q 855 515 857 513 q 851 517 853 517 q 840 517 847 517 q 825 519 832 518 q 806 524 817 521 q 803 526 806 526 q 800 529 800 526 q 806 543 800 535 q 819 559 811 551 q 833 572 826 567 q 844 578 840 578 q 856 589 850 578 q 864 607 861 600 q 865 609 864 608 q 865 611 865 610 q 873 615 868 614 q 878 621 878 615 l 890 621 l 908 633 l 919 633 q 927 640 921 635 q 940 651 933 646 q 953 661 947 657 q 961 665 960 665 l 972 676 q 951 665 965 669 q 926 660 938 660 q 917 654 922 657 q 908 647 911 651 l 896 647 q 879 635 890 636 q 865 629 868 635 l 853 626 q 846 613 853 619 q 835 603 839 607 l 835 597 l 822 585 q 816 576 824 583 q 806 565 808 568 q 762 533 781 550 q 717 499 743 515 l 686 479 q 682 481 683 479 q 656 492 674 485 q 622 508 639 499 q 591 527 604 517 q 578 547 578 538 l 560 569 q 557 579 560 574 l 604 582 l 704 582 l 721 658 l 585 732 l 569 669 l 525 642 q 524 647 524 643 q 529 674 524 660 q 535 701 535 689 l 535 708 l 542 719 l 542 733 q 555 749 546 739 q 573 769 564 758 q 592 787 582 779 q 608 794 601 794 q 648 789 628 794 q 686 776 668 783 q 701 784 689 778 q 725 798 713 790 q 749 814 738 806 q 764 826 761 822 l 751 826 l 746 818 q 743 819 744 818 q 740 819 742 819 q 722 814 731 819 q 704 808 714 808 l 699 808 l 690 800 l 679 800 l 674 808 l 661 808 l 656 814 l 643 814 q 631 818 639 818 l 617 826 q 608 832 611 826 l 589 832 q 578 824 585 831 q 563 812 571 818 q 547 800 554 806 q 538 794 540 794 q 522 807 529 794 q 515 821 518 813 q 498 841 507 833 q 480 853 489 849 q 463 863 471 858 q 446 875 454 867 l 446 881 l 440 881 l 433 889 l 428 889 q 437 876 428 886 q 458 853 446 865 q 481 829 469 840 q 494 814 492 818 l 511 794 q 513 788 511 790 q 514 783 513 785 q 517 776 517 783 l 525 769 l 525 740 l 517 733 l 517 726 q 513 701 517 715 q 499 683 508 686 l 488 651 l 469 651 l 464 647 l 442 649 q 438 651 442 651 q 433 651 435 651 l 433 665 l 440 671 l 440 683 l 446 690 l 446 708 l 451 714 l 451 744 q 438 713 449 729 q 428 693 428 697 q 421 683 428 686 l 421 671 l 403 671 l 403 678 q 399 676 401 676 q 380 688 389 676 q 360 700 371 700 q 352 712 356 700 q 344 726 349 724 l 344 740 l 319 740 l 319 746 q 313 747 315 746 q 308 749 310 747 q 303 755 308 751 q 296 758 299 758 l 289 758 q 301 740 289 751 q 319 726 314 729 q 330 718 324 724 q 338 714 336 713 l 338 701 q 366 677 356 694 q 393 651 376 660 l 325 651 l 325 660 l 307 660 q 297 667 304 665 q 285 671 290 669 q 269 667 278 668 q 249 665 260 665 l 249 660 l 254 660 q 267 659 258 660 q 283 656 275 658 q 299 651 292 654 q 307 640 306 647 l 319 640 l 324 635 l 151 635 l 142 696 l 286 917 l 360 947 l 1050 947 l 1154 849 l 1183 758 l 1153 583 l 1029 486 l 1117 368 l 1118 367 l 1092 207 l 1081 143 l 960 38 l 935 15 l 850 0 l 178 0 l 53 144 l 53 175 l 111 313 l 497 313 l 492 219 l 608 215 l 665 347 q 674 353 669 350 q 683 360 679 356 q 688 362 686 363 q 690 363 689 361 l 690 368 q 708 356 703 368 l 704 344 l 704 338 q 701 311 704 326 q 690 296 699 296 l 686 276 l 686 257 q 697 244 690 253 q 710 225 703 235 q 724 208 717 215 q 740 201 732 201 q 757 185 746 201 q 771 163 768 169 q 789 151 775 156 q 806 139 803 147 l 822 139 m 399 367 l 413 517 l 421 565 l 429 574 l 507 576 l 525 561 l 556 526 q 560 520 558 524 q 565 517 561 517 l 565 504 q 560 493 560 501 q 547 474 557 488 q 526 447 538 461 q 504 419 515 432 q 488 404 493 407 q 472 397 482 401 q 458 386 461 392 l 440 382 l 469 382 q 525 434 501 410 q 578 493 549 458 q 584 488 581 490 q 588 483 588 485 q 590 477 588 481 q 596 472 593 474 l 596 461 l 608 449 l 608 436 l 613 431 l 613 418 q 619 431 618 419 q 619 453 619 442 q 621 463 619 458 q 622 469 621 465 q 626 466 625 469 q 631 461 628 463 q 651 454 638 457 q 674 449 665 451 l 674 433 q 679 386 674 407 q 662 370 669 376 q 647 357 654 364 l 518 367 l 399 367 m 428 382 l 428 375 l 433 375 l 440 382 l 428 382 m 769 826 l 775 832 l 764 832 l 764 826 l 769 826 m 521 640 l 518 639 l 517 640 l 521 640 z "},"4":{"ha":944,"x_min":113,"x_max":1072,"o":"m 917 0 l 706 0 q 680 26 693 15 q 657 60 667 38 q 646 67 650 63 l 644 68 q 638 79 644 72 q 628 90 631 86 l 628 117 l 632 121 l 632 135 l 639 139 l 639 153 l 644 153 l 644 196 l 639 203 q 640 207 639 206 q 640 211 640 208 q 635 235 640 224 q 631 261 631 247 q 631 265 631 264 q 632 269 632 267 l 628 275 l 628 288 q 629 289 628 289 q 639 297 632 289 q 650 307 646 304 q 669 319 656 311 q 686 332 683 326 l 729 332 l 733 325 l 740 325 q 758 322 750 325 q 776 319 765 319 l 786 314 q 801 310 793 314 q 813 300 810 307 q 815 301 814 300 q 818 301 817 301 q 832 298 825 301 q 842 289 839 294 l 854 289 q 840 298 851 292 q 824 307 829 304 q 815 318 824 315 q 801 325 806 321 l 789 325 l 782 332 l 771 332 q 766 335 768 333 q 763 338 764 338 q 751 338 758 338 q 736 340 743 339 q 717 344 728 342 q 714 347 717 347 q 711 350 711 347 q 717 364 711 356 q 730 380 722 372 q 744 393 738 388 q 756 399 751 399 q 767 410 761 399 q 775 428 772 421 q 776 430 775 429 q 776 432 776 431 q 784 435 779 435 q 789 442 789 436 l 801 442 l 819 454 l 831 454 q 838 461 832 456 q 851 472 844 467 q 865 482 858 478 q 872 486 871 486 l 883 497 q 863 485 876 490 q 838 481 849 481 q 828 475 833 478 q 819 468 822 472 l 807 468 q 790 456 801 457 q 776 450 779 456 l 764 447 q 757 434 764 440 q 746 424 750 428 l 746 418 l 733 406 q 727 397 735 404 q 717 386 719 389 q 673 353 692 371 q 628 319 654 336 l 597 300 q 593 301 594 300 q 567 313 585 306 q 533 328 550 319 q 502 348 515 338 q 489 368 489 358 l 471 390 q 461 415 471 401 q 446 436 451 429 q 440 442 443 439 q 436 454 436 446 l 428 461 l 436 461 q 435 465 436 464 q 435 468 435 465 q 440 495 435 481 q 446 522 446 510 l 446 529 l 453 540 l 453 554 q 475 581 460 563 q 506 608 490 599 l 490 518 l 528 517 l 639 592 l 644 624 q 664 637 656 631 q 675 647 672 643 l 663 647 l 657 639 q 654 640 656 639 q 651 640 653 640 q 649 640 650 640 q 647 639 649 639 l 669 769 l 693 910 l 825 947 l 1069 947 l 1072 924 l 1032 686 l 1019 606 l 994 460 l 961 260 l 928 65 l 918 11 l 917 0 m 149 381 l 113 518 l 154 758 l 168 842 l 186 947 l 544 947 l 546 849 l 519 693 l 513 653 l 500 653 q 489 645 496 651 q 474 633 482 639 q 458 621 465 626 q 449 615 451 615 q 433 628 440 615 q 426 642 429 633 q 409 662 418 654 q 391 674 400 669 q 374 683 382 679 q 357 696 365 688 l 357 701 l 351 701 l 344 710 l 339 710 q 348 697 339 707 q 369 674 357 686 q 392 650 381 661 q 406 635 403 639 l 422 615 q 424 608 422 611 q 425 604 424 606 q 428 597 428 604 l 436 590 l 436 561 l 428 554 l 428 547 q 424 522 428 536 q 410 504 419 507 l 399 472 l 381 472 l 375 468 l 353 469 q 349 472 353 472 q 344 472 346 472 l 344 486 l 351 492 l 351 504 l 357 511 l 357 529 l 363 535 l 363 565 q 349 534 360 550 q 339 514 339 518 q 332 504 339 507 l 332 492 l 314 492 l 314 499 q 310 497 313 497 q 291 509 300 497 q 271 521 282 521 q 263 533 267 521 q 256 547 260 544 l 256 561 l 231 561 l 231 567 q 224 568 226 567 q 219 569 221 568 q 215 576 219 572 q 207 579 210 579 l 200 579 q 213 561 200 572 q 231 547 225 550 q 241 539 235 544 q 249 535 247 533 l 249 522 q 277 498 267 515 q 304 472 288 481 l 236 472 l 236 481 l 218 481 q 208 488 215 486 q 196 492 201 490 q 180 488 189 489 q 160 486 171 486 l 160 481 l 165 481 q 178 480 169 481 q 194 477 186 479 q 210 472 203 475 q 218 461 217 468 l 231 461 l 236 454 l 274 454 l 279 450 l 326 450 l 326 442 l 339 442 l 339 436 q 333 431 336 433 q 326 424 329 428 l 279 375 l 261 375 q 253 383 258 379 q 249 393 249 386 q 238 401 246 394 q 226 406 229 407 q 218 413 224 408 q 206 424 213 418 q 195 433 200 429 q 189 436 190 436 l 182 432 l 171 432 l 178 424 l 189 424 q 206 410 194 421 q 228 388 217 400 q 247 363 239 375 q 256 343 256 350 l 256 301 l 149 381 m 274 301 l 274 307 l 279 314 l 279 319 q 283 343 279 332 q 300 358 286 346 q 329 384 314 369 q 358 413 344 399 q 375 432 372 426 l 385 432 q 376 444 381 438 q 376 447 372 450 q 392 430 379 444 q 436 382 406 415 l 467 347 q 471 341 469 344 q 476 338 472 338 l 476 325 q 471 314 471 322 q 467 308 469 311 q 463 301 465 304 l 274 301 m 539 0 l 560 119 l 565 157 l 567 157 q 579 170 571 167 q 594 181 588 174 q 599 183 597 183 q 601 183 600 182 l 601 189 q 619 176 614 189 l 615 165 l 615 158 q 613 132 615 147 q 601 117 610 117 l 597 97 l 597 78 q 608 65 601 74 q 621 46 614 56 q 635 29 628 36 q 651 22 643 22 q 660 15 654 22 q 672 0 667 8 l 539 0 m 585 268 l 572 272 l 585 269 l 585 254 q 590 207 585 228 l 571 189 l 585 268 m 489 314 q 495 308 492 311 q 499 304 499 306 l 499 301 l 478 301 l 489 314 m 681 647 l 686 653 l 675 653 l 675 647 l 681 647 m 392 432 l 392 424 q 392 424 394 421 q 385 432 389 426 l 392 432 m 533 290 q 538 286 535 290 l 532 289 l 533 290 z "},"5":{"ha":1065,"x_min":57,"x_max":1203,"o":"m 804 94 q 815 82 808 88 q 829 76 822 76 l 835 76 q 818 97 835 83 q 793 113 801 110 q 777 135 786 125 q 759 153 768 144 q 742 171 750 161 q 728 194 733 181 q 717 201 721 197 l 715 203 q 708 214 715 207 q 699 225 701 221 l 699 251 l 703 256 l 703 269 l 710 274 l 710 288 l 715 288 l 715 331 l 710 338 q 710 342 710 340 q 711 346 711 343 q 706 370 711 358 q 701 396 701 382 q 702 400 701 399 q 703 404 703 401 l 699 410 l 699 422 q 700 424 699 424 q 710 431 703 424 q 721 442 717 439 q 740 453 726 446 q 757 467 754 461 l 800 467 l 804 460 l 811 460 q 828 457 821 460 q 847 454 836 454 l 857 449 q 872 445 864 449 q 883 435 881 442 q 886 435 885 435 q 889 436 888 436 q 903 433 896 436 q 913 424 910 429 l 925 424 q 911 433 922 426 q 894 442 900 439 q 885 453 894 450 q 872 460 876 456 l 860 460 l 853 467 l 842 467 q 837 470 839 468 q 833 472 835 472 q 822 473 829 472 q 807 475 814 474 q 788 479 799 476 q 785 482 788 482 q 782 485 782 482 q 788 499 782 490 q 801 515 793 507 q 815 528 808 522 q 826 533 822 533 q 838 544 832 533 q 846 563 843 556 q 847 565 846 564 q 847 567 847 565 q 855 570 850 569 q 860 576 860 571 l 872 576 l 890 589 l 901 589 q 909 596 903 590 q 922 607 915 601 q 935 617 929 613 q 943 621 942 621 l 953 631 l 1028 631 l 1117 517 l 1115 431 l 1072 171 l 1065 128 l 928 3 l 832 0 l 157 0 l 57 114 l 76 289 l 239 310 q 236 299 236 304 q 236 288 236 293 l 231 282 l 231 269 q 238 281 232 269 q 242 292 240 286 q 247 301 244 296 q 254 313 250 307 l 490 313 l 481 229 l 526 222 l 525 221 l 521 213 q 525 215 525 213 q 533 219 531 219 q 538 221 536 219 l 582 215 l 624 286 q 630 289 626 288 q 638 292 633 290 q 650 305 642 301 q 665 315 658 308 q 669 317 668 318 q 672 318 671 317 l 672 324 q 690 311 685 324 l 686 300 l 686 293 q 683 267 686 282 q 672 251 681 251 l 668 232 l 668 213 q 678 199 672 208 q 692 181 685 190 q 706 164 699 171 q 722 157 714 157 q 739 141 728 157 q 753 118 750 125 q 771 107 757 111 q 788 94 785 103 l 804 94 m 1165 731 l 971 731 l 668 732 q 683 740 671 733 q 707 753 694 746 q 731 769 719 761 q 746 782 743 778 l 733 782 l 728 774 q 725 774 726 774 q 722 775 724 775 q 704 769 713 775 q 686 764 696 764 l 681 764 l 672 756 l 661 756 l 656 764 l 643 764 l 638 769 l 625 769 q 613 774 621 774 l 599 782 q 590 788 593 782 l 571 788 q 560 780 567 786 q 544 767 553 774 q 529 756 536 761 q 519 750 522 750 q 504 763 511 750 q 497 776 500 768 q 480 797 489 789 q 462 809 471 804 q 444 818 453 814 q 428 831 436 822 l 428 836 l 422 836 l 415 844 l 410 844 q 419 831 410 842 q 440 808 428 821 q 463 785 451 796 q 476 769 474 774 l 493 750 q 494 743 493 746 q 496 739 494 740 q 499 732 499 739 l 507 725 l 507 696 l 499 689 l 499 682 q 494 656 499 671 q 481 639 490 642 l 469 607 l 451 607 l 446 603 l 424 604 q 420 607 424 607 q 415 607 417 607 l 415 621 l 422 626 l 422 639 l 428 646 l 428 664 l 433 669 l 433 700 q 420 669 431 685 q 410 649 410 653 q 403 639 410 642 l 403 626 l 385 626 l 385 633 q 381 632 383 632 q 362 644 371 632 q 342 656 353 656 q 334 667 338 656 q 326 682 331 679 l 326 696 l 301 696 l 301 701 q 294 703 297 701 q 290 704 292 703 q 285 710 290 707 q 278 714 281 714 l 271 714 q 283 696 271 707 q 301 682 296 685 q 312 674 306 679 q 319 669 318 668 l 319 657 q 348 633 338 650 q 375 607 358 615 l 307 607 l 307 615 l 289 615 q 279 623 286 621 q 267 626 272 625 q 251 622 260 624 q 231 621 242 621 l 231 615 l 236 615 q 249 615 240 615 q 265 612 257 614 q 281 606 274 610 q 289 596 288 603 l 301 596 l 307 589 l 344 589 l 350 585 l 397 585 l 397 576 l 410 576 l 410 571 q 403 565 407 568 q 397 558 400 563 l 350 510 l 332 510 q 324 517 329 514 q 319 528 319 521 q 308 535 317 529 q 297 540 300 542 q 289 548 294 543 q 277 558 283 553 q 266 567 271 564 q 260 571 261 571 l 253 567 l 242 567 l 249 558 l 260 558 q 276 545 265 556 q 299 522 288 535 q 318 497 310 510 q 326 478 326 485 l 326 428 l 319 417 l 319 415 l 235 415 l 142 517 l 133 629 l 163 799 l 182 913 l 253 947 l 1203 947 l 1196 907 l 1165 735 l 1165 731 m 597 732 l 556 644 l 649 631 l 951 631 q 931 619 943 624 q 908 615 918 615 q 899 610 904 613 q 890 603 893 607 l 878 603 q 861 591 872 592 q 847 585 850 590 l 835 582 q 828 569 835 575 q 817 558 821 563 l 817 553 l 804 540 q 798 531 806 539 q 788 521 790 524 q 744 488 763 506 q 699 454 725 471 l 668 435 q 664 436 665 435 q 638 447 656 440 q 603 463 621 454 q 573 483 586 472 q 560 503 560 493 l 542 525 q 532 550 542 536 q 517 571 522 564 q 510 577 514 574 q 507 589 507 581 l 499 596 l 507 596 q 506 599 507 599 q 506 603 506 600 q 511 630 506 615 q 517 657 517 644 l 517 664 l 524 675 l 524 689 q 537 704 528 694 q 555 724 546 714 q 574 742 564 735 q 590 750 583 750 q 630 744 610 750 q 668 732 650 739 l 597 732 m 343 415 l 344 417 l 344 442 l 350 449 l 350 454 q 354 478 350 467 q 371 492 357 481 q 400 519 385 504 q 429 547 415 533 q 446 567 443 561 l 463 567 l 463 558 q 483 538 469 549 q 507 517 497 526 l 538 482 q 542 476 540 479 q 547 472 543 472 l 547 460 q 542 449 542 457 q 533 433 539 443 q 517 413 526 424 l 507 415 l 343 415 m 560 449 q 566 443 563 446 q 569 439 569 440 q 572 433 569 436 q 578 428 575 429 l 578 417 l 590 404 l 590 394 l 526 410 q 542 428 533 419 q 560 449 550 438 m 601 408 q 603 418 601 414 q 604 425 603 421 q 608 422 607 425 q 613 417 610 418 q 633 410 619 413 q 656 404 647 407 l 656 389 l 656 379 l 601 392 l 601 408 m 751 782 l 757 788 l 746 788 l 746 782 l 751 782 m 661 342 l 649 329 l 660 347 q 661 342 660 343 z "},"6":{"ha":1021,"x_min":60,"x_max":1101,"o":"m 653 215 l 654 224 l 664 228 q 676 241 668 238 q 692 251 685 244 q 696 253 694 254 q 699 254 697 253 l 699 260 q 717 247 711 260 l 713 236 l 713 229 q 710 203 713 218 q 699 188 707 188 l 694 168 l 694 149 q 705 135 699 144 q 718 117 711 126 q 733 100 725 107 q 749 93 740 93 q 765 77 754 93 q 779 54 776 61 q 797 43 783 47 q 814 31 811 39 l 831 31 q 842 18 835 24 q 856 13 849 13 l 860 13 l 843 0 l 203 0 l 60 136 l 64 210 l 106 454 l 108 467 l 157 749 l 164 790 l 286 888 l 351 939 l 404 947 l 1003 947 l 1089 863 l 1101 639 l 972 635 l 750 635 l 743 696 q 772 718 765 710 l 760 718 l 754 710 q 751 710 753 710 q 749 711 750 711 q 744 710 746 711 q 742 710 743 710 l 740 722 l 593 732 l 585 715 q 562 697 574 707 q 546 686 550 686 q 531 699 538 686 q 524 713 526 704 q 506 733 515 725 q 488 745 497 740 q 471 754 479 750 q 454 767 463 758 l 454 772 l 449 772 l 442 781 l 436 781 q 445 767 436 778 q 466 744 454 757 q 489 721 478 732 q 503 706 500 710 l 519 686 q 521 679 519 682 q 522 675 521 676 q 525 668 525 675 l 533 661 l 533 632 l 525 625 l 525 618 q 521 592 525 607 q 507 575 517 578 l 496 543 l 478 543 l 472 539 l 450 540 q 447 543 450 543 q 442 543 443 543 l 442 557 l 449 563 l 449 575 l 454 582 l 454 600 l 460 606 l 460 636 q 447 605 457 621 q 436 585 436 589 q 429 575 436 578 l 429 563 l 411 563 l 411 569 q 407 568 410 568 q 388 580 397 568 q 368 592 379 592 q 360 603 364 592 q 353 618 357 615 l 353 632 l 328 632 l 328 638 q 321 639 324 638 q 317 640 318 639 q 312 647 317 643 q 304 650 307 650 l 297 650 q 310 632 297 643 q 328 618 322 621 q 338 610 332 615 q 346 606 344 604 l 346 593 q 374 569 364 586 q 401 543 385 551 l 333 543 l 333 551 l 315 551 q 306 559 313 557 q 293 563 299 561 q 277 558 286 560 q 257 557 268 557 l 257 551 l 263 551 q 275 551 267 551 q 292 548 283 550 q 307 542 300 546 q 315 532 314 539 l 328 532 l 333 525 l 371 525 l 376 521 l 424 521 l 424 513 l 436 513 l 436 507 q 430 501 433 504 q 424 494 426 499 l 376 446 l 358 446 q 351 453 356 450 q 346 464 346 457 q 335 472 343 465 q 324 476 326 478 q 315 484 321 479 q 303 494 310 489 q 292 503 297 500 q 286 507 288 507 l 279 503 l 268 503 l 275 494 l 286 494 q 303 481 292 492 q 325 458 314 471 q 344 433 336 446 q 353 414 353 421 l 353 364 l 346 353 l 346 328 l 340 328 l 340 314 q 336 308 336 314 q 335 307 336 307 q 335 306 335 307 q 333 303 333 304 q 320 297 331 299 q 304 292 310 294 q 290 282 297 288 q 275 274 283 276 q 267 252 272 267 q 263 224 263 238 l 257 218 l 257 206 q 264 217 258 206 q 268 228 267 222 q 276 242 272 235 q 286 254 281 249 q 315 274 297 265 q 346 293 333 282 q 351 299 346 297 q 358 303 356 301 l 358 322 l 364 328 l 364 346 l 371 353 l 371 378 l 376 385 l 376 390 q 381 414 376 403 q 397 428 383 417 q 426 455 411 440 q 456 483 442 469 q 472 503 469 497 l 489 503 l 489 494 q 510 474 496 485 q 533 453 524 463 l 564 418 q 568 412 567 415 q 574 408 569 408 l 574 396 q 568 385 568 393 q 556 366 565 379 q 535 338 546 353 q 513 311 524 324 q 496 296 501 299 q 480 288 490 293 q 467 278 469 283 l 449 274 l 478 274 q 515 308 497 292 q 549 342 532 324 l 461 215 l 608 215 l 590 197 q 580 188 585 192 q 568 179 575 185 q 558 165 563 174 l 551 157 l 547 149 q 551 151 551 149 q 560 156 557 156 q 569 164 564 156 q 578 173 572 167 q 590 179 583 179 q 615 195 606 185 q 638 215 625 206 l 653 215 m 1011 121 l 861 13 q 844 33 860 19 q 819 49 828 46 q 803 71 813 61 q 785 89 794 81 q 768 107 776 97 q 754 131 760 117 q 743 138 747 133 l 742 139 q 735 150 742 143 q 725 161 728 157 l 725 188 l 729 192 l 729 206 l 736 210 l 736 224 l 742 224 l 742 267 l 736 274 q 737 278 736 276 q 738 282 738 279 q 733 306 738 294 q 728 332 728 318 q 728 336 728 335 q 729 340 729 338 l 725 346 l 725 358 q 726 360 725 360 q 736 367 729 360 q 747 378 743 375 q 767 390 753 382 q 783 403 781 397 l 826 403 l 831 396 l 838 396 q 855 393 847 396 q 874 390 863 390 l 883 385 q 899 381 890 385 q 910 371 907 378 q 913 372 911 371 q 915 372 914 372 q 929 369 922 372 q 939 360 936 365 l 951 360 q 938 369 949 363 q 921 378 926 375 q 912 389 921 386 q 899 396 903 392 l 886 396 l 879 403 l 868 403 q 863 406 865 404 q 860 408 861 408 q 848 409 856 408 q 833 411 840 410 q 814 415 825 413 q 811 418 814 418 q 808 421 808 418 q 814 435 808 426 q 827 451 819 443 q 842 464 835 458 q 853 469 849 469 q 864 481 858 469 q 872 499 869 492 q 873 501 872 500 q 874 503 874 501 q 881 506 876 506 q 886 513 886 507 l 899 513 l 917 525 l 928 525 q 935 532 929 526 q 949 543 942 538 q 962 553 956 549 q 969 557 968 557 l 975 563 l 1069 453 l 1056 374 l 1019 165 l 1011 121 m 658 581 l 961 581 l 975 564 q 935 551 956 551 q 925 546 931 549 q 917 539 919 543 l 904 539 q 888 527 899 528 q 874 521 876 526 l 861 518 q 854 505 861 511 q 843 494 847 499 l 843 489 l 831 476 q 824 467 832 475 q 814 457 817 460 q 770 424 789 442 q 725 390 751 407 l 694 371 q 690 372 692 371 q 665 383 682 376 q 630 399 647 390 q 599 419 613 408 q 586 439 586 429 l 568 461 q 558 486 568 472 q 543 507 549 500 q 537 513 540 510 q 533 525 533 517 l 525 532 l 533 532 q 533 535 533 535 q 532 539 532 536 q 538 565 532 551 q 543 592 543 579 l 658 581 m 682 340 l 682 325 q 688 278 682 299 q 672 263 679 269 q 658 251 665 257 l 675 342 q 678 341 678 342 q 682 340 679 340 m 586 385 q 592 379 589 382 q 596 375 596 376 q 599 369 596 372 q 604 364 601 365 l 604 363 l 569 365 l 586 385 m 436 274 l 436 267 l 442 267 l 449 274 l 436 274 m 778 718 l 783 724 l 772 724 l 772 718 l 778 718 m 631 361 q 632 360 632 361 q 633 360 632 360 l 629 360 l 631 361 z "},"7":{"ha":903,"x_min":54,"x_max":1035,"o":"m 1035 947 l 1028 906 l 999 732 l 947 649 l 890 556 l 801 413 l 769 361 q 769 363 769 363 q 768 364 768 363 l 768 382 q 772 388 769 382 q 774 394 774 390 q 760 382 771 394 q 744 364 750 369 q 711 366 729 364 q 678 368 693 368 l 665 368 l 660 376 l 599 376 l 594 382 l 582 382 l 576 386 l 557 386 l 551 394 l 514 394 q 508 396 508 394 l 508 425 l 515 432 l 504 432 l 504 425 l 492 425 l 492 418 l 481 418 l 474 425 l 474 436 q 478 442 474 436 q 489 457 483 449 q 499 472 494 465 q 504 482 504 479 q 506 488 504 485 q 508 493 508 490 l 508 499 q 500 490 507 499 q 490 478 493 482 q 481 467 488 474 q 468 453 475 460 q 456 442 461 447 q 450 436 450 438 l 438 436 l 433 432 l 419 432 l 419 443 l 414 450 l 414 461 l 419 468 l 419 486 q 422 492 422 489 q 425 499 422 496 q 432 506 426 500 q 440 513 438 513 q 443 511 443 513 q 467 534 453 529 q 493 550 482 539 q 502 560 496 553 q 515 567 508 567 l 515 611 l 539 642 l 532 639 q 521 635 528 635 l 513 626 q 508 619 507 621 q 504 615 510 618 l 504 597 l 497 593 l 497 579 q 462 550 483 560 q 425 529 440 540 l 425 522 l 407 525 q 403 536 407 532 q 402 550 403 542 q 401 567 401 558 l 401 579 l 432 628 l 465 682 q 486 690 479 685 l 469 690 l 496 732 l 431 732 l 433 733 l 443 769 l 481 769 l 486 764 l 504 764 q 510 758 506 758 q 521 751 515 758 q 533 758 532 751 l 539 758 q 564 764 550 758 l 533 764 l 528 769 l 508 769 q 497 776 508 776 q 483 782 489 782 q 474 788 478 782 q 463 796 469 793 q 461 801 461 796 l 456 801 l 456 808 l 461 808 l 464 822 q 480 844 471 829 q 499 877 489 860 q 519 913 508 894 q 543 947 531 932 l 565 947 l 569 943 l 594 943 l 599 939 l 629 939 l 635 931 q 643 931 639 931 q 647 939 647 932 l 678 939 l 632 947 l 1035 947 m 539 207 l 546 215 l 546 264 l 528 289 q 521 296 528 296 q 517 305 517 296 q 508 314 517 314 l 508 346 q 513 351 513 346 q 514 354 513 353 q 515 357 514 356 q 522 360 518 360 q 528 364 525 361 l 540 364 q 588 366 564 364 q 635 368 611 368 q 650 362 642 368 q 669 356 658 356 q 678 357 675 356 l 683 350 l 756 350 l 758 343 l 651 168 l 579 53 l 549 1 l 497 0 l 54 0 l 86 71 l 135 151 l 186 233 l 190 233 q 194 235 194 233 l 197 239 l 211 239 q 220 248 213 244 q 229 251 228 251 q 242 255 233 251 q 259 263 250 258 q 275 271 268 267 q 282 278 282 275 l 294 278 q 307 289 296 279 q 331 309 318 299 q 354 328 343 319 q 365 338 365 336 l 378 338 l 378 346 q 398 359 383 353 q 419 376 413 365 q 426 379 422 379 q 433 382 431 379 l 461 382 q 471 373 468 379 q 481 364 474 367 l 481 350 l 486 346 l 486 332 q 493 317 493 329 q 504 301 493 306 l 504 289 q 512 278 507 283 q 521 269 517 274 q 526 253 519 268 q 533 228 533 239 l 539 221 l 539 207 m 188 732 l 171 799 l 193 932 l 314 947 l 522 947 l 507 922 q 506 917 506 919 q 504 913 507 915 q 490 896 497 907 q 475 873 483 885 q 458 851 467 861 q 443 840 450 842 l 407 776 l 407 764 l 403 758 l 403 740 l 396 733 l 396 732 l 188 732 m 338 478 l 368 526 l 372 522 l 372 511 l 381 497 q 386 488 383 492 q 390 485 389 483 l 390 468 l 396 461 l 396 431 q 397 426 396 426 q 403 420 400 426 q 407 413 407 414 q 401 401 407 408 q 385 386 394 393 q 367 372 376 379 q 354 364 358 365 l 342 364 l 336 357 l 294 357 l 289 364 l 267 364 l 338 478 m 214 278 l 261 354 l 268 350 q 278 349 271 350 q 294 347 286 349 l 317 344 q 320 341 317 342 q 324 338 324 340 q 309 326 324 339 q 276 299 294 314 q 239 270 257 283 q 214 257 221 257 q 209 255 211 257 q 204 251 207 253 l 188 236 l 214 278 z "},"8":{"ha":1046,"x_min":57,"x_max":1154,"o":"m 647 215 l 651 242 l 631 260 l 631 261 q 631 265 631 264 q 632 269 632 267 l 628 275 l 628 288 q 629 289 628 289 q 639 297 632 289 q 650 307 646 304 q 669 319 656 311 q 686 332 683 326 l 729 332 l 733 325 l 740 325 q 758 322 750 325 q 776 319 765 319 l 786 314 q 801 310 793 314 q 813 300 810 307 q 815 301 814 300 q 818 301 817 301 q 832 298 825 301 q 842 289 839 294 l 854 289 q 840 298 851 292 q 824 307 829 304 q 815 318 824 315 q 801 325 806 321 l 789 325 l 782 332 l 771 332 q 766 335 768 333 q 763 338 764 338 q 751 338 758 338 q 736 340 743 339 q 717 344 728 342 q 714 347 717 347 q 711 350 711 347 q 717 364 711 356 q 730 380 722 372 q 744 393 738 388 q 756 399 751 399 q 767 410 761 399 q 775 428 772 421 q 776 430 775 429 q 776 432 776 431 q 784 435 779 435 q 789 442 789 436 l 801 442 l 819 454 l 831 454 q 838 461 832 456 q 851 472 844 467 q 865 482 858 478 q 872 486 871 486 l 883 497 q 863 485 876 490 q 838 481 849 481 q 828 475 833 478 q 819 468 822 472 l 807 468 q 790 456 801 457 q 776 450 779 456 l 764 447 q 757 434 764 440 q 746 424 750 428 l 746 418 l 733 406 q 727 397 735 404 q 717 386 719 389 q 673 353 692 371 q 628 319 654 336 l 597 300 q 593 301 594 300 l 579 307 l 515 365 l 507 343 q 489 368 489 357 l 471 390 q 461 415 471 401 q 446 436 451 429 q 440 442 443 439 q 436 454 436 446 l 428 461 l 436 461 q 435 465 436 464 q 435 468 435 465 q 440 495 435 481 q 446 522 446 510 l 446 529 l 453 540 l 453 554 q 466 569 457 560 q 484 590 475 579 q 503 608 493 600 q 519 615 513 615 q 559 610 539 615 q 597 597 579 604 q 616 608 600 600 q 647 626 632 615 l 700 581 l 710 581 l 731 701 l 592 731 l 550 713 l 636 636 q 615 629 625 629 l 610 629 l 601 621 l 590 621 l 585 629 l 572 629 l 567 635 l 554 635 q 542 639 550 639 l 528 647 q 519 653 522 647 l 500 653 q 489 645 496 651 q 474 633 482 639 q 458 621 465 626 q 449 615 451 615 q 433 628 440 615 q 426 642 429 633 q 409 662 418 654 q 391 674 400 669 q 374 683 382 679 q 357 696 365 688 l 357 701 l 351 701 l 344 710 l 339 710 q 348 697 339 707 q 369 674 357 686 q 392 650 381 661 q 406 635 403 639 l 422 615 q 424 608 422 611 q 425 604 424 606 q 428 597 428 604 l 436 590 l 436 561 l 428 554 l 428 547 q 424 522 428 536 q 410 504 419 507 l 399 472 l 381 472 l 375 468 l 353 469 q 349 472 353 472 q 344 472 346 472 l 344 486 l 351 492 l 351 504 l 357 511 l 357 529 l 363 535 l 363 565 q 349 534 360 550 q 339 514 339 518 q 332 504 339 507 l 332 492 l 314 492 l 314 499 q 310 497 313 497 q 291 509 300 497 q 271 521 282 521 q 263 533 267 521 q 256 547 260 544 l 256 561 l 231 561 l 231 567 q 224 568 226 567 q 219 569 221 568 q 215 576 219 572 q 207 579 210 579 l 200 579 q 213 561 200 572 q 231 547 225 550 q 241 539 235 544 q 249 535 247 533 l 249 522 q 277 498 267 515 q 304 472 288 481 l 236 472 l 236 481 l 218 481 q 208 488 215 486 q 196 492 201 490 l 176 488 l 115 544 l 131 642 l 150 763 l 201 821 l 364 946 l 622 946 l 632 936 l 632 931 l 639 931 q 635 937 639 933 q 628 946 631 940 l 1007 946 l 1043 917 l 1154 785 l 1129 638 l 1114 546 l 1035 489 l 1086 397 l 1088 396 l 1076 335 l 1047 163 l 1001 121 l 874 13 l 815 0 l 706 0 q 680 26 693 15 q 657 60 667 38 q 646 67 650 63 l 644 68 q 638 79 644 72 q 628 90 631 86 l 628 117 l 632 121 l 632 135 l 639 139 l 639 153 l 644 153 l 644 196 l 639 203 q 640 207 639 206 q 640 211 640 208 l 640 215 l 647 215 m 215 0 l 99 107 l 81 125 l 57 215 l 88 397 l 197 468 l 185 479 q 206 474 196 478 q 218 461 215 469 l 231 461 l 236 454 l 274 454 l 279 450 l 326 450 l 326 442 l 339 442 l 339 436 q 333 431 336 433 q 326 424 329 428 l 279 375 l 261 375 q 253 383 258 379 q 249 393 249 386 q 238 401 246 394 q 226 406 229 407 q 218 413 224 408 q 206 424 213 418 q 195 433 200 429 q 189 436 190 436 l 182 432 l 171 432 l 178 424 l 189 424 q 206 410 194 421 q 228 388 217 400 q 247 363 239 375 q 256 343 256 350 l 256 293 l 249 282 l 249 257 l 243 257 l 243 243 q 239 238 239 243 q 238 236 239 236 q 238 235 238 236 q 236 232 236 233 q 223 226 233 228 q 207 221 213 224 q 193 211 200 217 q 178 203 186 206 q 170 181 175 196 q 165 153 165 167 l 160 147 l 160 135 q 167 146 161 135 q 171 157 169 151 q 179 171 175 164 q 189 183 183 178 q 218 203 200 194 q 249 222 236 211 q 253 228 249 226 q 261 232 258 231 l 261 251 l 267 257 l 267 275 l 274 282 l 274 307 l 279 314 l 279 319 q 283 343 279 332 q 300 358 286 346 q 329 384 314 369 q 358 413 344 399 q 375 432 372 426 l 392 432 l 392 424 q 413 403 399 414 q 436 382 426 392 l 467 347 q 471 341 469 344 q 476 338 472 338 l 476 325 q 471 314 471 322 q 458 295 468 308 q 438 267 449 282 q 415 240 426 253 q 399 225 404 228 q 383 217 393 222 q 369 207 372 213 l 351 203 l 381 203 q 436 255 413 231 q 489 314 460 279 l 494 308 l 464 217 l 588 215 l 590 207 q 562 181 575 192 q 529 157 549 169 q 493 126 511 144 q 483 117 488 121 q 471 108 478 114 q 461 94 465 103 l 454 86 l 450 78 q 454 81 454 78 q 463 85 460 85 q 472 93 467 85 q 481 102 475 96 q 493 108 486 108 q 528 133 514 117 q 567 157 542 150 q 579 170 571 167 q 594 181 588 174 q 599 183 597 183 q 601 183 600 182 l 601 189 q 619 176 614 189 l 615 165 l 615 158 q 613 132 615 147 q 601 117 610 117 l 597 97 l 597 78 q 608 65 601 74 q 621 46 614 56 q 635 29 628 36 q 651 22 643 22 q 660 15 654 22 q 672 0 667 8 l 215 0 m 339 203 l 339 196 l 344 196 l 351 203 l 339 203 z "},"9":{"ha":1092,"x_min":69,"x_max":1178,"o":"m 440 36 q 450 23 449 36 q 453 7 451 10 l 453 75 l 478 117 q 477 119 478 118 q 476 121 476 119 q 481 128 476 125 q 488 135 485 131 l 488 143 q 506 133 497 143 q 525 124 514 124 q 545 110 532 118 q 567 99 558 103 l 579 99 q 567 111 576 103 q 546 128 557 119 q 522 142 535 136 q 501 149 510 149 l 496 156 l 483 156 q 470 169 481 163 q 460 192 460 175 l 460 207 q 461 210 460 210 q 465 213 464 210 q 471 215 467 215 l 471 265 q 478 265 475 265 q 482 264 481 264 l 483 264 q 490 254 483 258 q 503 247 496 250 q 518 243 511 244 q 525 242 525 242 q 529 239 526 240 q 533 238 533 235 q 532 242 533 240 l 528 246 l 604 215 l 685 315 l 661 353 q 678 356 669 354 q 694 358 688 358 l 700 358 q 715 367 701 363 q 728 376 728 372 q 717 372 721 376 q 701 372 714 372 q 672 371 689 371 q 624 374 649 371 q 597 383 600 376 l 585 383 q 569 393 582 392 q 556 403 556 394 q 561 415 556 406 q 574 436 567 425 q 588 457 581 447 q 597 471 594 467 l 610 476 l 615 489 q 633 499 624 492 q 650 515 642 507 q 667 530 658 524 q 683 536 675 536 q 689 539 686 536 q 693 544 692 542 l 711 544 q 740 513 721 532 q 778 473 758 493 q 813 435 797 453 q 832 408 828 418 l 844 403 q 852 391 846 397 q 865 379 858 385 q 878 369 872 374 q 885 364 885 365 l 946 364 l 933 372 l 915 372 l 910 376 l 897 376 l 892 383 q 885 385 888 383 q 881 386 882 385 q 875 390 881 389 q 867 394 869 392 q 860 404 865 397 q 850 418 856 411 q 840 431 844 425 q 836 439 836 438 q 826 451 832 446 q 814 463 821 456 q 791 497 799 476 q 765 525 783 517 l 765 538 l 789 538 l 796 544 l 849 544 l 849 551 l 832 551 q 790 553 811 551 q 747 556 768 556 q 740 564 744 558 q 728 569 735 569 l 728 581 l 731 581 l 732 588 q 738 590 735 588 l 740 593 q 769 625 756 608 q 789 661 783 642 q 807 675 794 663 q 833 703 819 688 q 858 734 846 719 q 872 754 869 749 l 885 760 q 897 778 886 767 q 919 802 908 790 q 940 823 931 814 q 950 835 950 832 l 964 835 q 970 841 965 838 q 979 846 975 844 l 964 846 q 954 840 961 840 q 946 835 947 840 l 933 835 q 906 813 922 829 q 874 779 890 797 q 842 744 857 761 q 818 717 826 726 q 812 716 815 717 q 806 715 808 715 q 797 714 801 714 q 789 710 797 710 l 788 690 l 740 624 l 738 622 l 756 722 l 632 728 l 632 739 q 633 763 632 751 q 633 786 633 775 l 633 796 l 626 796 q 624 762 626 779 q 622 729 622 744 l 578 732 l 575 717 l 622 671 l 622 638 q 628 624 622 633 q 641 606 633 615 q 656 588 649 596 q 669 575 664 579 l 669 563 l 675 556 l 669 556 l 663 551 q 649 534 656 544 q 626 519 642 524 l 622 513 q 600 501 608 508 q 585 485 592 493 q 571 467 578 476 q 556 451 564 458 q 555 434 556 436 q 553 432 554 432 q 535 422 546 432 q 515 401 525 413 q 496 381 504 390 q 486 374 488 372 q 482 371 483 374 q 478 365 481 368 l 438 365 l 424 376 q 394 394 403 388 q 380 408 385 400 q 372 425 375 415 q 360 454 368 435 q 351 463 357 461 l 351 476 q 338 497 349 478 q 308 525 328 515 q 294 537 306 532 q 278 544 283 542 l 274 551 l 261 556 q 246 569 253 567 q 231 581 239 572 l 213 599 l 213 606 l 207 606 q 213 596 207 603 q 221 588 218 589 q 231 556 224 572 q 254 531 238 539 q 263 528 258 531 q 268 519 268 525 q 304 499 283 510 q 333 471 325 488 q 338 453 336 465 q 346 439 339 442 l 346 433 q 349 417 346 424 q 351 403 351 410 q 351 380 351 388 q 350 369 350 372 l 350 365 l 250 365 l 110 493 l 156 768 l 286 894 l 343 946 l 372 947 l 1053 947 l 1089 919 l 1178 685 l 1157 558 l 1136 438 l 1099 215 l 1090 165 l 1088 153 l 967 50 l 925 15 l 794 0 l 179 0 l 69 111 l 74 278 l 186 311 l 281 311 l 276 304 l 281 306 l 285 310 l 288 311 l 444 311 q 447 310 444 310 l 447 296 l 453 292 l 453 265 l 460 260 l 460 247 q 455 240 457 244 q 447 235 453 235 l 447 179 l 453 174 l 453 161 l 460 156 l 460 124 q 451 113 454 121 q 440 99 447 104 l 440 86 l 435 81 q 436 74 435 74 q 438 74 438 74 q 440 75 439 75 l 440 36 m 693 588 q 686 589 686 588 q 687 591 686 590 q 688 593 688 592 l 675 593 q 672 601 675 594 q 663 616 668 607 q 653 634 658 625 q 643 650 647 643 l 703 593 q 696 590 699 593 l 693 588 m 532 372 l 549 376 l 556 372 l 574 372 l 582 365 l 519 365 l 532 372 m 493 311 l 494 281 q 487 293 490 288 q 478 304 483 299 l 478 311 l 493 311 m 993 846 l 993 853 l 988 853 l 981 846 l 993 846 m 268 304 l 268 296 l 274 304 l 268 304 m 585 93 l 592 93 q 588 95 592 96 q 581 97 583 94 l 585 93 z "},"\u0000":{"ha":0,"x_min":0,"x_max":0,"o":""},"\r":{"ha":569,"x_min":0,"x_max":0,"o":""}," ":{"ha":569,"x_min":0,"x_max":0,"o":""},"\"":{"ha":736,"x_min":139,"x_max":857,"o":"m 529 563 l 494 622 l 515 746 q 542 775 528 761 q 567 789 557 789 q 606 783 586 789 q 644 771 626 778 q 659 778 647 772 q 683 792 671 785 q 708 808 696 800 q 722 821 719 817 l 710 821 l 704 813 q 701 813 703 813 q 699 814 700 814 q 681 808 689 814 q 663 803 672 803 l 657 803 l 649 794 l 638 794 l 632 803 l 619 803 l 614 808 l 601 808 q 589 813 597 813 l 575 821 q 567 826 569 821 l 547 826 q 539 821 544 825 q 526 811 533 817 l 543 906 l 546 922 l 786 947 l 857 947 l 839 839 l 801 618 l 799 601 l 793 597 l 793 592 l 781 579 q 776 572 782 578 q 767 563 771 567 l 529 563 m 164 563 l 139 608 l 189 897 l 196 942 l 304 947 l 494 947 l 476 807 l 474 815 q 456 835 465 828 q 438 848 447 843 q 421 857 429 853 q 404 869 413 861 l 404 875 l 399 875 l 392 883 l 386 883 q 395 870 386 881 q 416 847 404 860 q 439 824 428 835 q 453 808 450 813 l 469 789 q 471 782 469 785 q 472 778 471 779 l 474 778 l 472 765 l 457 678 l 446 646 l 428 646 l 422 642 l 400 643 q 397 646 400 646 q 392 646 393 646 l 392 660 l 399 665 l 399 678 l 404 685 l 404 703 l 410 708 l 410 739 q 397 708 407 724 q 386 688 386 692 q 379 678 386 681 l 379 665 l 361 665 l 361 672 q 357 671 360 671 q 338 683 347 671 q 318 694 329 694 q 310 706 314 694 q 303 721 307 718 l 303 735 l 278 735 l 278 740 q 271 742 274 740 q 267 743 268 742 q 262 749 267 746 q 254 753 257 753 l 247 753 q 260 735 247 746 q 278 721 272 724 q 288 713 282 718 q 296 708 294 707 l 296 696 q 324 672 314 689 q 351 646 335 654 l 283 646 l 283 654 l 265 654 q 256 662 263 660 q 243 665 249 664 q 227 661 236 663 q 207 660 218 660 l 207 654 l 213 654 q 225 653 217 654 q 242 651 233 653 q 257 645 250 649 q 265 635 264 642 l 278 635 l 283 628 l 321 628 l 326 624 l 374 624 l 374 615 l 386 615 l 386 610 q 380 604 383 607 q 374 597 376 601 l 339 563 l 296 563 l 296 567 q 285 574 293 568 q 274 579 276 581 q 265 587 271 582 q 253 597 260 592 q 242 606 247 603 q 236 610 238 610 l 229 606 l 218 606 l 225 597 l 236 597 q 251 584 242 594 q 272 563 261 574 l 164 563 m 438 563 l 381 563 q 408 588 396 576 q 422 606 419 600 l 439 606 l 439 597 l 443 592 l 439 569 l 438 563 m 728 821 l 733 826 l 722 826 l 722 821 l 728 821 m 792 563 l 786 563 l 792 567 l 792 563 z "},"'":{"ha":382,"x_min":139,"x_max":492,"o":"m 156 711 l 174 810 l 197 947 l 492 947 l 489 865 l 479 810 l 467 810 q 456 802 463 808 q 440 790 449 796 q 425 778 432 783 q 415 772 418 772 q 400 785 407 772 q 393 799 396 790 q 376 819 385 811 q 358 831 367 826 q 340 840 349 836 q 324 853 332 844 l 324 858 l 318 858 l 311 867 l 306 867 q 315 853 306 864 q 335 831 324 843 q 358 807 347 818 q 372 792 369 796 l 389 772 q 390 765 389 768 q 392 761 390 763 q 394 754 394 761 l 403 747 l 403 718 l 394 711 l 394 704 q 390 678 394 693 q 376 661 386 664 l 365 629 l 347 629 l 342 625 l 319 626 q 316 629 319 629 q 311 629 313 629 l 311 643 l 318 649 l 318 661 l 324 668 l 324 686 l 329 692 l 329 722 q 316 691 326 707 q 306 671 306 675 q 299 661 306 664 l 299 649 l 281 649 l 281 656 q 276 654 279 654 q 258 666 267 654 q 238 678 249 678 q 230 690 233 678 q 222 704 226 701 l 222 718 l 197 718 l 197 724 q 190 725 193 724 q 186 726 188 725 q 181 733 186 729 q 174 736 176 736 l 167 736 q 179 718 167 729 q 197 704 192 707 q 208 696 201 701 q 215 692 214 690 l 215 679 q 244 655 233 672 q 271 629 254 638 l 203 629 l 203 638 l 185 638 q 175 645 182 643 q 163 649 168 647 l 147 644 l 156 711 m 438 563 l 432 563 q 422 579 428 571 q 413 593 415 588 q 406 599 410 596 q 403 611 403 603 l 394 618 l 403 618 q 402 622 403 621 q 401 625 401 622 q 407 652 401 638 q 413 679 413 667 l 413 686 l 419 697 l 419 711 q 442 738 426 719 q 472 767 458 756 l 467 731 l 438 564 l 438 563 m 185 618 l 197 618 l 203 611 l 240 611 l 246 607 l 293 607 l 293 599 l 306 599 l 306 593 q 299 588 303 590 q 293 581 296 585 l 275 563 l 194 563 l 193 563 q 185 570 190 565 q 173 581 179 575 q 162 590 167 586 q 156 593 157 593 l 149 589 l 142 589 l 147 636 q 170 631 158 635 q 185 618 182 628 m 342 589 l 358 589 l 358 581 q 365 572 361 576 q 375 563 369 567 l 318 563 q 342 589 336 579 m 144 581 l 156 581 q 176 563 164 575 l 139 563 l 142 583 l 144 581 z "},",":{"ha":456,"x_min":38,"x_max":444,"o":"m 425 0 l 338 -90 l 157 -129 l 151 -103 l 38 0 l 54 143 l 197 172 l 231 172 l 231 147 l 224 136 l 224 111 l 218 111 l 218 97 q 214 92 214 97 q 213 90 214 90 q 213 89 213 90 q 211 86 211 88 q 198 80 208 82 q 182 75 188 78 q 168 65 175 71 q 153 57 161 60 q 145 35 150 50 q 140 7 140 21 l 135 1 l 135 -11 q 142 0 136 -11 q 146 11 144 6 q 154 25 150 18 q 164 38 158 32 q 193 57 175 49 q 224 76 211 65 q 228 83 224 81 q 236 86 233 85 l 236 106 l 242 111 l 242 129 l 249 136 l 249 161 l 254 168 l 254 172 l 444 172 l 443 164 q 429 142 439 156 q 409 116 419 129 q 389 92 399 103 q 374 79 379 82 q 358 72 368 76 q 344 61 347 67 l 326 57 l 356 57 q 400 99 381 79 q 440 142 419 118 l 426 8 l 425 0 m 314 57 l 314 50 l 319 50 l 326 57 l 314 57 z "},"-":{"ha":497,"x_min":92,"x_max":569,"o":"m 108 463 l 133 615 l 328 636 l 404 636 l 406 635 l 422 615 q 424 608 422 611 q 425 604 424 606 q 428 597 428 604 l 436 590 l 436 561 l 428 554 l 428 547 q 424 522 428 536 q 410 504 419 507 l 399 472 l 381 472 l 375 468 l 353 469 q 349 472 353 472 q 344 472 346 472 l 344 486 l 351 492 l 351 504 l 357 511 l 357 529 l 363 535 l 363 565 q 349 534 360 550 q 339 514 339 518 q 332 504 339 507 l 332 492 l 314 492 l 314 499 q 310 497 313 497 q 291 509 300 497 q 271 521 282 521 q 263 533 267 521 q 256 547 260 544 l 256 561 l 231 561 l 231 567 q 224 568 226 567 q 219 569 221 568 q 215 576 219 572 q 207 579 210 579 l 200 579 q 213 561 200 572 q 231 547 225 550 q 241 539 235 544 q 249 535 247 533 l 249 522 q 277 498 267 515 q 304 472 288 481 l 236 472 l 236 481 l 218 481 q 208 488 215 486 q 196 492 201 490 q 180 488 189 489 q 160 486 171 486 l 160 481 l 165 481 q 178 480 169 481 q 194 477 186 479 q 210 472 203 475 q 218 461 217 468 l 231 461 l 236 454 l 274 454 l 279 450 l 326 450 l 326 442 l 339 442 l 339 436 q 333 431 336 433 q 326 424 329 428 l 279 375 l 261 375 q 253 383 258 379 q 249 393 249 386 q 238 401 246 394 q 226 406 229 407 q 218 413 224 408 q 206 424 213 418 q 195 433 200 429 q 189 436 190 436 l 182 432 l 171 432 l 178 424 l 189 424 q 215 399 196 418 q 246 364 235 381 l 92 364 l 108 463 m 524 364 l 489 364 l 489 368 l 471 390 q 461 415 471 401 q 446 436 451 429 q 440 442 443 439 q 436 454 436 446 l 428 461 l 436 461 q 435 465 436 464 q 435 468 435 465 q 440 495 435 481 q 446 522 446 510 l 446 529 l 453 540 l 453 554 q 466 569 457 560 q 484 590 475 579 q 503 608 493 600 q 519 615 513 615 q 565 608 540 615 l 556 551 l 526 378 l 524 364 m 307 364 q 349 402 326 381 q 375 432 371 424 l 392 432 l 392 424 q 413 403 399 414 q 436 382 426 392 l 451 364 l 307 364 m 449 615 q 436 622 442 615 q 428 636 431 629 l 478 636 q 460 622 468 629 q 449 615 451 615 m 569 636 l 568 632 l 567 635 l 554 635 q 551 636 553 635 l 569 636 z "},".":{"ha":415,"x_min":50,"x_max":392,"o":"m 379 0 l 54 0 l 50 124 l 229 172 l 272 172 l 272 163 l 265 151 l 265 126 l 260 126 l 260 113 q 256 107 256 113 q 255 106 256 106 q 254 104 254 106 q 253 101 253 103 q 240 95 250 97 q 224 90 229 93 q 210 81 217 86 q 194 72 203 75 q 187 51 192 65 q 182 22 182 36 l 176 17 l 176 4 q 183 15 178 4 q 188 26 186 21 q 196 40 192 33 q 206 53 200 47 q 235 72 217 64 q 265 92 253 81 q 270 98 265 96 q 278 101 275 100 l 278 121 l 283 126 l 283 144 l 290 151 l 290 172 l 385 172 l 392 82 q 386 76 386 79 l 368 72 l 390 72 l 379 0 m 356 72 l 356 65 l 361 65 l 368 72 l 356 72 z "},"/":{"ha":736,"x_min":25,"x_max":858,"o":"m 390 760 l 472 929 l 479 943 l 515 947 l 621 947 l 632 936 l 632 931 l 639 931 q 635 937 639 933 q 628 947 631 940 l 856 947 l 858 924 l 813 829 l 749 696 l 674 540 l 565 313 q 515 338 540 324 q 489 368 489 353 l 471 390 q 461 415 471 401 q 446 436 451 429 q 440 442 443 439 q 436 454 436 446 l 428 461 l 436 461 q 435 465 436 464 q 435 468 435 465 q 440 495 435 481 q 446 522 446 510 l 446 529 l 453 540 l 453 554 q 466 569 457 560 q 484 590 475 579 q 503 608 493 600 q 519 615 513 615 q 559 610 539 615 q 597 597 579 604 q 612 605 600 599 q 636 619 624 611 q 660 635 649 626 q 675 647 672 643 l 663 647 l 657 639 q 654 640 656 639 q 651 640 653 640 q 633 635 642 640 q 615 629 625 629 l 610 629 l 601 621 l 590 621 l 585 629 l 572 629 l 567 635 l 554 635 q 542 639 550 639 l 528 647 q 519 653 522 647 l 500 653 q 489 645 496 651 q 474 633 482 639 q 458 621 465 626 q 449 615 451 615 q 433 628 440 615 q 426 642 429 633 q 391 673 408 667 q 358 693 374 679 l 390 760 m 415 0 l 25 0 l 44 42 l 75 103 l 156 271 l 215 399 q 243 367 231 383 q 256 343 256 351 l 256 293 l 249 282 l 249 257 l 243 257 l 243 243 q 239 238 239 243 q 238 236 239 236 q 238 235 238 236 q 236 232 236 233 q 223 226 233 228 q 207 221 213 224 q 193 211 200 217 q 178 203 186 206 q 170 181 175 196 q 165 153 165 167 l 160 147 l 160 135 q 167 146 161 135 q 171 157 169 151 q 179 171 175 164 q 189 183 183 178 q 218 203 200 194 q 249 222 236 211 q 253 228 249 226 q 261 232 258 231 l 261 251 l 267 257 l 267 275 l 274 282 l 274 307 l 279 314 l 279 319 q 283 343 279 332 q 300 358 286 346 q 329 384 314 369 q 358 413 344 399 q 375 432 372 426 l 392 432 l 392 424 q 413 403 399 414 q 436 382 426 392 l 467 347 q 471 341 469 344 q 476 338 472 338 l 476 325 q 471 314 471 322 q 458 295 468 308 q 438 267 449 282 q 415 240 426 253 q 399 225 404 228 q 383 217 393 222 q 369 207 372 213 l 351 203 l 381 203 q 436 255 413 231 q 489 314 460 279 q 495 308 492 311 q 499 304 499 306 q 501 298 499 301 q 507 293 504 294 l 507 282 l 519 269 l 519 257 l 524 251 l 524 239 q 530 251 529 240 q 531 274 531 263 q 532 283 531 279 q 533 290 532 286 q 538 287 536 290 q 542 282 539 283 l 549 278 l 521 221 l 489 154 l 460 92 l 454 86 l 450 78 l 453 78 l 440 53 l 419 10 l 415 0 m 336 646 l 356 688 q 385 656 369 672 q 406 635 401 640 l 422 615 q 424 608 422 611 q 425 604 424 606 q 428 597 428 604 l 436 590 l 436 561 l 428 554 l 428 547 q 424 522 428 536 q 410 504 419 507 l 399 472 l 381 472 l 375 468 l 353 469 q 349 472 353 472 q 344 472 346 472 l 344 486 l 351 492 l 351 504 l 357 511 l 357 529 l 363 535 l 363 565 q 349 534 360 550 q 339 514 339 518 q 332 504 339 507 l 332 492 l 314 492 l 314 499 q 310 497 313 497 q 293 507 301 497 q 275 519 285 517 l 336 646 m 229 426 l 242 454 l 274 454 l 279 450 l 326 450 l 326 442 l 339 442 l 339 436 q 333 431 336 433 q 326 424 329 428 l 279 375 l 261 375 q 253 383 258 379 q 249 393 249 386 q 238 401 246 394 q 226 406 229 407 q 224 407 225 407 q 221 410 222 407 l 229 426 m 304 472 l 251 472 l 268 507 q 285 488 276 497 q 304 472 293 478 m 339 203 l 339 196 l 344 196 l 351 203 l 339 203 m 681 647 l 686 653 l 675 653 l 675 647 l 681 647 z "},":":{"ha":442,"x_min":36,"x_max":557,"o":"m 414 0 l 288 0 l 108 0 l 46 0 l 36 33 l 240 172 l 375 172 l 442 172 l 426 76 l 414 0 m 536 769 l 426 769 l 283 769 l 174 769 l 171 868 l 346 942 l 497 942 l 557 942 l 542 800 l 536 769 z "},";":{"ha":439,"x_min":50,"x_max":569,"o":"m 411 0 l 328 -86 l 168 -129 l 149 -35 l 50 0 l 54 144 l 129 172 l 307 172 l 426 172 l 422 68 l 411 0 m 539 769 l 350 769 l 193 769 l 178 769 l 186 932 l 372 942 l 506 942 l 569 942 l 547 815 l 539 769 z "},"?":{"ha":1050,"x_min":146,"x_max":1158,"o":"m 1158 814 l 1126 622 l 1111 532 l 999 414 l 944 375 l 921 367 l 778 332 l 658 215 l 400 215 l 311 215 l 328 340 l 340 417 l 418 508 l 513 582 l 629 582 l 722 692 l 624 732 l 565 643 l 403 636 l 214 636 l 146 636 l 160 794 l 296 917 l 317 935 l 372 947 l 647 947 l 801 949 l 1010 949 l 1040 949 l 1117 863 l 1158 814 m 750 172 l 722 13 l 650 0 l 453 0 l 304 0 l 289 94 l 490 172 l 615 172 l 749 172 l 750 172 z "},"A":{"ha":867,"x_min":63,"x_max":940,"o":"m 843 0 l 549 0 l 533 83 l 550 213 l 414 215 l 381 68 l 372 3 l 174 0 l 74 0 l 63 65 l 75 151 l 108 404 l 121 500 l 154 744 l 157 760 l 232 850 l 313 932 l 388 947 l 813 947 l 910 829 l 939 788 l 940 715 l 915 531 l 893 367 l 869 190 l 858 107 l 843 4 l 843 0 m 728 104 q 739 92 732 97 q 753 86 746 86 l 758 86 q 742 106 758 93 q 717 122 725 119 q 701 144 710 135 q 683 163 692 154 q 665 181 674 171 q 651 204 657 190 q 640 211 644 207 l 639 213 q 632 224 639 217 q 622 235 625 231 l 622 261 l 626 265 l 626 279 l 633 283 l 633 297 l 639 297 l 639 340 l 633 347 q 634 351 633 350 q 635 356 635 353 q 630 380 635 368 q 625 406 625 392 q 626 410 625 408 q 626 414 626 411 l 622 419 l 622 432 q 624 433 622 433 q 633 441 626 433 q 644 451 640 449 q 664 463 650 456 q 681 476 678 471 l 724 476 l 728 469 l 735 469 q 752 467 744 469 q 771 464 760 464 l 781 458 q 796 455 788 458 q 807 444 804 451 q 810 445 808 444 q 813 446 811 446 q 826 442 819 446 q 836 433 833 439 l 849 433 q 835 442 846 436 q 818 451 824 449 q 809 463 818 460 q 796 469 800 465 l 783 469 l 776 476 l 765 476 q 760 480 763 478 q 757 482 758 482 q 745 483 753 482 q 731 485 738 483 q 711 489 722 486 q 708 492 711 492 q 706 494 706 492 q 711 508 706 500 q 724 524 717 517 q 739 538 732 532 q 750 543 746 543 q 761 554 756 543 q 769 572 767 565 q 770 574 769 574 q 771 576 771 575 q 778 580 774 579 q 783 586 783 581 l 796 586 l 814 599 l 825 599 q 833 606 826 600 q 846 617 839 611 q 859 626 853 622 q 867 631 865 631 l 878 642 q 857 630 871 635 q 832 625 843 625 q 822 619 828 622 q 814 613 817 617 l 801 613 q 785 601 796 601 q 771 594 774 600 l 758 592 q 751 578 758 585 q 740 568 744 572 l 740 563 l 728 550 q 722 541 729 549 q 711 531 714 533 q 667 498 686 515 q 622 464 649 481 l 592 444 q 588 446 589 444 q 582 449 585 446 l 586 478 l 617 706 l 469 711 l 449 569 q 440 581 443 575 q 434 587 438 583 q 431 599 431 590 l 422 606 l 431 606 q 430 609 431 608 q 429 613 429 610 q 435 640 429 625 q 440 667 440 654 l 440 674 l 447 685 l 447 699 q 460 714 451 704 q 478 734 469 724 q 497 752 488 744 q 514 760 507 760 q 553 754 533 760 q 592 742 574 749 q 606 749 594 743 q 631 763 618 756 q 655 779 643 771 q 669 792 667 788 l 657 792 l 651 783 q 649 784 650 783 q 646 785 647 785 q 628 779 636 785 q 610 774 619 774 l 604 774 l 596 765 l 585 765 l 579 774 l 567 774 l 561 779 l 549 779 q 536 783 544 783 l 522 792 q 514 797 517 792 l 494 797 q 483 790 490 796 q 468 777 476 783 q 453 765 460 771 q 443 760 446 760 q 428 772 435 760 q 421 786 424 778 q 403 806 413 799 q 385 819 394 814 q 368 828 376 824 q 351 840 360 832 l 351 846 l 346 846 l 339 854 l 333 854 q 342 841 333 851 q 363 818 351 831 q 386 794 375 806 q 400 779 397 783 l 417 760 q 418 753 417 756 q 419 749 418 750 q 422 742 422 749 l 431 735 l 431 706 l 422 699 l 422 692 q 418 666 422 681 q 404 649 414 651 l 393 617 l 375 617 l 369 613 l 347 614 q 344 617 347 617 q 339 617 340 617 l 339 631 l 346 636 l 346 649 l 351 656 l 351 674 l 357 679 l 357 710 q 344 678 354 694 q 333 658 333 663 q 326 649 333 651 l 326 636 l 308 636 l 308 643 q 304 642 307 642 q 285 653 294 642 q 265 665 276 665 q 258 677 261 665 q 250 692 254 689 l 250 706 l 225 706 l 225 711 q 218 713 221 711 q 214 714 215 713 q 209 720 214 717 q 201 724 204 724 l 194 724 q 207 706 194 717 q 225 692 219 694 q 235 683 229 689 q 243 679 242 678 l 243 667 q 272 642 261 660 q 299 617 282 625 l 231 617 l 231 625 l 213 625 q 203 633 210 631 q 190 636 196 635 q 174 632 183 633 q 154 631 165 631 l 154 625 l 160 625 q 172 624 164 625 q 189 622 181 624 q 204 616 197 619 q 213 606 211 613 l 225 606 l 231 599 l 268 599 l 274 594 l 321 594 l 321 586 l 333 586 l 333 581 q 327 575 331 578 q 321 568 324 572 l 274 519 l 256 519 q 248 527 253 524 q 243 538 243 531 q 232 545 240 539 q 221 550 224 551 q 213 558 218 553 q 201 568 207 563 q 190 577 194 574 q 183 581 185 581 l 176 576 l 165 576 l 172 568 l 183 568 q 200 555 189 565 q 222 532 211 544 q 242 507 233 519 q 250 488 250 494 l 250 438 l 243 426 l 243 401 l 238 401 l 238 388 q 233 382 233 388 q 233 381 233 381 q 232 379 232 381 q 231 376 231 378 q 217 370 228 372 q 201 365 207 368 q 188 356 194 361 q 172 347 181 350 q 165 326 169 340 q 160 297 160 311 l 154 292 l 154 279 q 161 290 156 279 q 165 301 164 296 q 174 315 169 308 q 183 328 178 322 q 213 347 194 339 q 243 367 231 356 q 248 373 243 371 q 256 376 253 375 l 256 396 l 261 401 l 261 419 l 268 426 l 268 451 l 274 458 l 274 464 q 278 488 274 476 q 294 502 281 490 q 324 528 308 514 q 353 557 339 543 q 369 576 367 571 l 386 576 l 386 568 q 407 547 393 558 q 431 526 421 536 l 440 514 l 436 479 l 431 438 l 450 436 q 419 395 436 417 q 393 369 401 374 q 377 362 388 367 q 364 351 367 357 l 346 347 l 375 347 q 421 390 400 371 q 464 435 442 410 l 501 433 l 501 426 l 514 414 l 514 401 l 518 396 l 518 383 q 524 396 524 385 q 525 418 525 407 q 526 425 525 421 q 526 432 526 429 l 532 432 q 536 426 535 426 q 557 419 543 422 q 579 414 571 417 l 579 399 q 585 351 579 372 q 556 325 569 336 q 524 301 543 314 q 488 271 506 289 q 477 262 482 265 q 465 253 472 258 q 456 239 460 247 l 449 231 l 444 222 q 449 225 449 222 q 457 229 454 229 q 467 238 461 229 q 475 247 469 240 q 488 253 481 253 q 522 278 508 261 q 561 301 536 294 q 574 315 565 311 q 589 325 582 318 q 593 327 592 328 q 596 328 594 326 l 596 333 q 614 321 608 333 l 610 310 l 610 303 q 607 276 610 292 q 596 261 604 261 l 592 242 l 592 222 q 602 209 596 218 q 615 190 608 200 q 630 174 622 181 q 646 167 638 167 q 663 151 651 167 q 676 128 674 135 q 694 117 681 121 q 711 104 708 113 l 728 104 m 333 347 l 333 340 l 339 340 l 346 347 l 333 347 m 675 792 l 681 797 l 669 797 l 669 792 l 675 792 z "},"B":{"ha":1042,"x_min":44,"x_max":1146,"o":"m 1071 367 l 1058 294 l 1035 163 l 893 42 l 872 26 l 774 0 l 44 0 l 44 88 l 57 164 l 78 289 l 111 483 l 143 674 l 186 932 l 189 946 l 285 947 l 996 947 l 1146 808 l 1117 640 l 1110 593 l 1008 510 l 963 469 l 1071 367 m 858 119 q 869 107 863 113 q 883 101 876 101 l 889 101 q 872 122 889 108 q 847 138 856 135 q 831 160 840 150 q 813 178 822 169 q 796 196 804 186 q 782 219 788 206 q 771 226 775 222 l 769 228 q 763 239 769 232 q 753 250 756 246 l 753 276 l 757 281 l 757 294 l 764 299 l 764 313 l 769 313 l 769 356 l 764 363 q 765 367 764 365 q 765 371 765 368 q 760 395 765 383 q 756 421 756 407 q 756 425 756 424 q 757 429 757 426 l 753 435 l 753 447 q 754 449 753 449 q 764 456 757 449 q 775 467 771 464 q 794 478 781 471 q 811 492 808 486 l 854 492 l 858 485 l 865 485 q 883 482 875 485 q 901 479 890 479 l 911 474 q 926 470 918 474 q 938 460 935 467 q 940 460 939 460 q 943 461 942 461 q 957 458 950 461 q 967 449 964 454 l 979 449 q 965 458 976 451 q 949 467 954 464 q 940 478 949 475 q 926 485 931 481 l 914 485 l 907 492 l 896 492 q 891 495 893 493 q 888 497 889 497 q 876 498 883 497 q 861 500 868 499 q 842 504 853 501 q 839 507 842 507 q 836 510 836 507 q 842 524 836 515 q 855 540 847 532 q 869 553 863 547 q 881 558 876 558 q 892 569 886 558 q 900 588 897 581 q 901 590 900 589 q 901 592 901 590 q 909 595 904 594 q 914 601 914 596 l 926 601 l 944 614 l 956 614 q 963 621 957 615 q 976 632 969 626 q 990 642 983 638 q 997 646 996 646 l 1008 657 q 988 645 1001 650 q 963 640 974 640 q 953 635 958 638 q 944 628 947 632 l 932 628 q 915 616 926 617 q 901 610 904 615 l 889 607 q 882 594 889 600 q 871 583 875 588 l 871 578 l 858 565 q 852 556 860 564 q 842 546 844 549 q 798 513 817 531 q 753 479 779 496 l 722 460 q 718 461 719 460 q 692 472 710 465 q 658 488 675 479 q 627 508 640 497 q 614 528 614 518 l 596 550 q 586 575 596 561 q 571 596 576 589 q 565 602 568 599 q 561 614 561 606 l 553 621 l 561 621 q 560 624 561 624 q 560 628 560 625 q 565 655 560 640 q 571 682 571 669 l 571 688 l 685 582 l 699 582 l 722 717 l 590 729 q 617 760 601 744 q 644 775 633 775 q 684 769 664 775 q 722 757 704 764 q 737 765 725 758 q 761 778 749 771 q 785 794 774 786 q 800 807 797 803 l 788 807 l 782 799 q 779 799 781 799 q 776 800 778 800 q 758 794 767 800 q 740 789 750 789 l 735 789 l 726 781 l 715 781 l 710 789 l 697 789 l 692 794 l 679 794 q 667 799 675 799 l 653 807 q 644 813 647 807 l 625 813 q 614 805 621 811 q 599 792 607 799 q 583 781 590 786 q 574 775 576 775 q 558 788 565 775 q 551 801 554 793 q 534 822 543 814 q 516 834 525 829 q 499 843 507 839 q 482 856 490 847 l 482 861 l 476 861 l 469 869 l 464 869 q 473 856 464 867 q 494 833 482 846 q 517 810 506 821 q 531 794 528 799 l 547 775 q 549 768 547 771 q 550 764 549 765 q 553 757 553 764 l 561 750 l 561 732 l 535 721 l 553 704 q 547 680 551 693 q 535 664 543 667 l 524 632 l 506 632 l 500 628 l 478 629 q 474 632 478 632 q 469 632 471 632 l 469 646 l 476 651 l 476 664 l 482 671 l 482 689 l 488 694 l 488 725 q 474 694 485 710 q 464 674 464 678 q 457 664 464 667 l 457 651 l 439 651 l 439 658 q 435 657 438 657 q 416 669 425 657 q 396 681 407 681 q 388 692 392 681 q 381 707 385 704 l 381 721 l 356 721 l 356 726 q 349 728 351 726 q 344 729 346 728 q 340 735 344 732 q 332 739 335 739 l 325 739 q 338 721 325 732 q 356 707 350 710 q 366 699 360 704 q 374 694 372 693 l 374 682 q 402 658 392 675 q 429 632 413 640 l 361 632 l 361 640 l 343 640 q 333 648 340 646 q 321 651 326 650 q 305 647 314 649 q 285 646 296 646 l 285 640 l 290 640 q 303 640 294 640 q 319 637 311 639 q 335 631 328 635 q 343 621 342 628 l 356 621 l 361 614 l 399 614 l 404 610 l 451 610 l 451 601 l 464 601 l 464 596 q 458 590 461 593 q 451 583 454 588 l 404 535 l 386 535 q 378 542 383 539 q 374 553 374 546 q 363 560 371 554 q 351 565 354 567 q 343 573 349 568 q 331 583 338 578 q 320 592 325 589 q 314 596 315 596 l 307 592 l 296 592 l 303 583 l 314 583 q 331 570 319 581 q 353 547 342 560 q 372 522 364 535 q 381 503 381 510 l 381 453 l 374 442 l 374 417 l 368 417 l 368 403 q 364 397 364 403 q 363 396 364 396 q 363 394 363 396 q 361 392 361 393 q 348 385 358 388 q 332 381 338 383 q 318 371 325 376 q 303 363 311 365 q 295 341 300 356 q 290 313 290 326 l 285 307 l 285 294 q 292 306 286 294 q 296 317 294 311 q 304 331 300 324 q 314 343 308 338 q 343 363 325 354 q 374 382 361 371 q 378 388 374 386 q 386 392 383 390 l 386 411 l 392 417 l 392 435 l 399 442 l 399 467 l 404 474 l 404 479 q 408 503 404 492 q 425 517 411 506 q 454 544 439 529 q 483 572 469 558 q 500 592 497 586 l 517 592 l 517 583 q 538 563 524 574 q 561 542 551 551 l 592 507 q 596 501 594 504 q 601 497 597 497 l 601 485 q 596 474 596 482 q 583 455 593 468 q 563 427 574 442 q 540 400 551 413 q 524 385 529 388 q 508 377 518 382 q 494 367 497 372 l 476 363 l 506 363 q 561 415 538 390 q 614 474 585 439 q 620 468 617 471 q 624 464 624 465 q 626 458 624 461 q 632 453 629 454 l 632 442 l 644 429 l 644 417 l 649 411 l 649 399 q 655 411 654 400 q 656 433 656 422 q 657 443 656 439 q 658 450 657 446 q 663 447 661 450 q 667 442 664 443 q 688 435 674 438 q 710 429 701 432 l 710 414 q 715 367 710 388 q 687 340 700 351 q 654 317 674 329 q 618 286 636 304 l 606 275 l 526 365 l 457 276 l 636 215 l 640 238 l 614 267 q 618 268 615 268 q 653 293 639 276 q 692 317 667 310 q 704 330 696 326 q 719 340 713 333 q 724 342 722 343 q 726 343 725 342 l 726 349 q 744 336 739 349 l 740 325 l 740 318 q 738 292 740 307 q 726 276 735 276 l 722 257 l 722 238 q 733 224 726 233 q 746 206 739 215 q 760 189 753 196 q 776 182 768 182 q 793 166 782 182 q 807 143 804 150 q 825 132 811 136 q 842 119 839 128 l 858 119 m 464 363 l 464 356 l 469 356 l 476 363 l 464 363 m 806 807 l 811 813 l 800 813 l 800 807 l 806 807 z "},"C":{"ha":1000,"x_min":79,"x_max":1094,"o":"m 146 656 l 165 775 l 315 885 l 367 921 l 521 947 l 907 947 l 1054 819 l 1094 782 l 1074 604 l 999 603 l 693 603 l 700 658 q 738 702 718 676 q 764 736 758 728 l 776 742 q 789 760 778 749 q 811 784 800 772 q 832 805 822 796 q 842 817 842 814 l 856 817 q 862 823 857 819 q 871 828 867 826 l 856 828 q 846 822 853 822 q 838 817 839 822 l 825 817 q 798 795 814 811 q 765 761 782 779 q 733 726 749 743 q 710 699 718 708 q 703 698 707 699 q 697 697 700 697 l 539 732 l 526 664 q 524 692 524 678 q 524 721 524 706 q 524 745 524 733 q 525 768 525 757 l 525 778 l 518 778 q 516 741 518 760 q 514 706 514 722 l 514 619 q 517 610 514 614 l 507 558 l 494 485 q 470 459 479 474 q 447 433 461 444 q 447 416 447 418 q 444 414 446 414 q 427 404 438 414 q 406 383 417 394 q 388 363 396 372 q 378 356 379 354 q 373 351 375 356 q 369 346 371 347 q 363 344 367 344 q 357 340 358 344 l 339 340 l 315 358 q 285 376 294 369 q 272 390 276 382 q 263 407 267 397 q 251 436 260 417 q 243 444 249 443 l 243 458 q 230 478 240 460 q 200 507 219 497 q 186 519 197 514 q 169 526 175 524 l 165 533 l 153 538 q 140 549 146 546 q 129 556 135 551 l 146 656 m 1029 344 l 1004 196 l 946 135 l 757 3 l 613 0 l 344 0 l 344 57 l 369 99 q 369 101 369 100 q 368 103 368 101 q 372 110 368 107 q 379 117 376 113 l 379 125 q 397 115 389 125 q 417 106 406 106 q 437 92 424 100 q 458 81 450 85 l 471 81 q 458 93 468 85 q 438 110 449 101 q 414 124 426 118 q 393 131 401 131 l 388 138 l 375 138 q 362 151 372 144 q 351 174 351 157 l 351 189 q 353 192 351 192 q 357 194 356 192 q 363 197 358 197 l 363 247 q 369 247 367 247 q 374 246 372 246 l 375 246 q 381 236 375 240 q 395 229 388 232 q 410 225 403 226 q 417 224 417 224 q 421 221 418 222 q 425 219 425 217 q 424 224 425 222 q 415 235 421 231 q 404 243 408 239 q 385 266 392 256 q 369 286 379 276 l 369 310 q 375 316 371 310 q 385 328 379 322 q 397 340 390 335 q 410 346 404 346 l 424 354 l 440 358 l 447 354 l 465 354 l 471 350 l 456 258 l 449 215 l 615 215 l 642 324 l 740 344 l 1029 344 m 332 18 q 340 13 338 18 q 343 0 342 7 l 244 0 l 97 140 l 79 264 l 111 451 l 125 531 q 146 513 132 518 q 155 510 150 513 q 160 501 160 507 q 196 481 175 492 q 225 453 217 469 q 229 435 228 447 q 238 421 231 424 l 238 415 q 240 399 238 406 q 243 385 243 392 q 242 362 243 369 q 242 351 242 354 l 242 347 q 226 335 236 347 q 207 322 217 322 l 190 304 l 176 297 l 168 286 l 172 288 l 176 292 l 186 296 q 192 299 190 297 q 196 304 193 301 q 211 312 201 308 q 225 322 221 315 l 238 322 l 238 328 q 246 328 242 328 q 254 329 250 329 q 299 318 282 329 q 339 292 315 307 l 339 278 l 344 274 l 344 247 l 351 242 l 351 229 q 347 222 349 226 q 339 217 344 217 l 339 161 l 344 156 l 344 143 l 351 138 l 351 106 q 342 94 346 103 q 332 81 339 86 l 332 68 l 326 63 q 328 56 326 56 q 330 56 329 56 q 332 57 331 57 l 332 18 m 447 385 q 453 397 447 388 q 465 418 458 407 q 479 439 472 429 q 489 453 486 449 l 474 368 q 458 376 468 374 q 447 385 447 378 m 885 828 l 885 835 l 879 835 l 872 828 l 885 828 m 160 286 l 160 278 l 165 286 l 160 286 m 476 75 l 483 75 q 479 77 483 78 q 472 79 475 76 l 476 75 z "},"D":{"ha":1092,"x_min":33,"x_max":1188,"o":"m 675 215 l 701 368 l 721 482 q 772 430 746 456 q 803 390 797 404 l 815 385 q 823 373 817 379 q 836 361 829 367 q 849 351 843 356 q 856 346 856 347 l 917 346 l 904 354 l 886 354 l 881 358 l 868 358 l 863 365 q 856 367 858 365 q 851 368 853 367 q 846 372 851 371 q 838 376 840 374 q 831 386 836 379 q 821 400 826 393 q 811 413 815 407 q 807 421 807 419 q 797 433 803 428 q 785 444 792 438 q 762 478 769 458 q 736 507 754 499 l 736 519 l 760 519 l 767 526 l 819 526 l 819 533 l 803 533 q 767 535 785 533 q 731 538 749 536 l 732 546 l 742 608 q 760 643 753 624 q 778 657 765 644 q 803 685 790 669 q 828 716 817 701 q 843 736 840 731 l 856 742 q 868 760 857 749 q 890 784 879 772 q 911 805 901 796 q 921 817 921 814 l 935 817 q 941 823 936 819 q 950 828 946 826 l 935 828 q 925 822 932 822 q 917 817 918 822 l 904 817 q 877 795 893 811 q 844 761 861 779 q 813 726 828 743 q 789 699 797 708 q 783 698 786 699 q 776 697 779 697 q 768 696 772 696 q 760 692 768 692 l 758 672 l 751 663 l 753 669 l 761 714 l 719 732 l 603 732 q 603 750 603 742 q 604 768 604 758 l 604 778 l 597 778 q 596 755 597 767 q 593 732 594 743 l 574 732 l 549 708 l 497 406 l 494 393 q 471 366 482 379 q 457 356 460 353 q 452 351 454 356 q 449 346 450 347 q 442 344 446 344 q 436 340 438 344 l 418 340 l 394 358 q 365 376 374 369 q 351 390 356 382 q 342 407 346 397 q 331 436 339 417 q 322 444 328 443 l 322 458 q 309 478 319 460 q 279 507 299 497 q 265 519 276 514 q 249 526 254 524 l 244 533 l 232 538 q 217 551 224 549 q 201 563 210 554 l 183 581 l 183 588 l 178 588 q 183 578 178 585 q 192 569 189 571 q 201 538 194 554 q 225 513 208 521 q 234 510 229 513 q 239 501 239 507 q 275 481 254 492 q 304 453 296 469 q 308 435 307 447 q 317 421 310 424 l 317 415 q 319 399 317 406 q 322 385 322 392 q 322 362 322 369 q 321 351 321 354 l 321 347 q 306 335 315 347 q 286 322 296 322 l 269 304 l 256 297 l 247 286 l 251 288 l 256 292 l 265 296 q 271 299 269 297 q 275 304 272 301 q 290 312 281 308 q 304 322 300 315 l 317 322 l 317 328 q 325 328 321 328 q 333 329 329 329 q 378 318 361 329 q 418 292 394 307 l 418 278 l 424 274 l 424 247 l 431 242 l 431 229 q 426 222 428 226 q 418 217 424 217 l 418 161 l 424 156 l 424 143 l 431 138 l 431 106 q 422 94 425 103 q 411 81 418 86 l 411 68 l 406 63 q 407 56 406 56 q 409 56 408 56 q 411 57 410 57 l 411 18 q 419 13 417 18 q 422 0 421 7 l 43 0 l 33 17 l 69 228 l 100 411 l 135 615 l 169 825 l 175 857 l 190 946 l 317 947 l 1031 947 l 1069 904 l 1164 801 l 1188 775 l 1179 726 l 1151 565 l 1110 310 l 1088 183 l 924 43 l 910 32 l 781 0 l 424 0 l 424 57 l 449 99 q 448 101 449 100 q 447 103 447 101 q 451 110 447 107 q 458 117 456 113 l 458 125 q 476 115 468 125 q 496 106 485 106 q 516 92 503 100 q 538 81 529 85 l 550 81 q 538 93 547 85 q 517 110 528 101 q 493 124 506 118 q 472 131 481 131 l 467 138 l 454 138 q 441 151 451 144 q 431 174 431 157 l 431 189 q 432 192 431 192 q 436 194 435 192 q 442 197 438 197 l 442 247 q 449 247 446 247 q 453 246 451 246 l 454 246 q 467 232 454 236 l 464 215 l 675 215 m 449 286 l 449 310 q 453 315 450 310 q 463 327 457 321 q 474 339 468 333 q 486 346 481 344 l 471 257 q 460 272 464 265 q 449 286 456 279 m 964 828 l 964 835 l 958 835 l 951 828 l 964 828 m 239 286 l 239 278 l 244 286 l 239 286 m 556 75 l 563 75 q 558 77 563 78 q 551 79 554 76 l 556 75 z "},"E":{"ha":949,"x_min":47,"x_max":1072,"o":"m 325 65 q 335 52 333 65 q 338 36 336 39 l 338 104 l 363 146 q 362 148 363 147 q 361 150 361 149 q 365 157 361 154 q 372 164 369 160 l 372 172 q 390 163 382 172 q 410 153 399 153 q 430 140 417 147 q 451 128 443 132 l 464 128 q 451 140 461 132 q 431 157 442 149 q 407 172 419 165 q 386 178 394 178 l 381 185 l 368 185 q 355 198 365 192 q 344 221 344 204 l 344 236 q 346 239 344 239 q 350 242 349 239 q 356 244 351 244 l 356 294 q 363 294 360 294 q 367 293 365 293 l 368 293 q 374 283 368 288 q 388 276 381 279 q 403 272 396 274 q 410 271 410 271 q 414 268 411 269 q 418 267 418 264 q 417 271 418 269 q 408 282 414 278 q 397 290 401 286 q 378 313 385 303 q 363 333 372 324 l 363 357 q 368 363 364 357 q 378 376 372 369 q 390 388 383 382 q 403 393 397 393 l 417 401 l 433 406 l 440 401 l 458 401 l 469 393 q 474 394 472 393 q 478 394 475 394 q 508 388 493 394 q 538 382 524 382 q 558 385 547 382 q 579 388 569 388 l 585 388 q 599 397 586 392 q 613 406 613 401 q 601 401 606 406 q 586 401 599 401 q 557 400 574 400 q 509 403 533 400 q 482 413 485 406 l 469 413 q 453 422 467 421 q 440 432 440 424 q 446 444 440 435 q 458 465 451 454 q 472 486 465 476 q 482 500 479 496 l 494 506 l 500 518 q 517 528 508 521 q 535 544 526 536 q 551 559 543 553 q 568 565 560 565 q 574 568 571 565 q 578 574 576 571 l 596 574 q 624 542 606 561 q 663 502 643 522 q 697 465 682 482 q 717 438 713 447 l 729 432 q 737 420 731 426 q 750 408 743 414 q 763 399 757 403 q 769 393 769 394 l 831 393 l 818 401 l 800 401 l 794 406 l 782 406 l 776 413 q 769 414 772 413 q 765 415 767 414 q 760 419 765 418 q 751 424 754 421 q 745 433 750 426 q 735 447 740 440 q 725 460 729 454 q 721 468 721 467 q 711 480 717 475 q 699 492 706 485 q 676 526 683 506 q 650 554 668 546 l 650 567 l 674 567 l 681 574 l 733 574 l 733 576 l 878 576 l 879 438 l 871 389 l 756 361 l 514 361 l 492 247 l 650 215 l 949 215 l 938 146 l 917 19 l 871 0 l 47 0 l 50 86 l 58 129 l 104 403 l 131 564 l 139 560 q 148 557 143 560 q 153 549 153 554 q 189 528 168 539 q 218 500 210 517 q 222 483 221 494 q 231 468 224 471 l 231 463 q 233 446 231 453 q 236 432 236 439 q 235 409 236 417 q 235 399 235 401 l 235 394 q 219 382 229 394 q 200 369 210 369 l 183 351 l 169 344 l 161 333 l 165 335 l 169 339 l 179 343 q 185 347 183 344 q 189 351 186 349 q 204 359 194 356 q 218 369 214 363 l 231 369 l 231 375 q 239 376 235 375 q 247 376 243 376 q 292 365 275 376 q 332 339 308 354 l 332 325 l 338 321 l 338 294 l 344 289 l 344 276 q 340 269 342 274 q 332 264 338 264 l 332 208 l 338 203 l 338 190 l 344 185 l 344 153 q 335 142 339 150 q 325 128 332 133 l 325 115 l 319 110 q 321 103 319 103 q 323 103 322 103 q 325 104 324 104 l 325 65 m 149 671 l 165 768 l 183 874 l 196 947 l 1072 947 l 1050 806 l 1040 744 l 969 732 l 717 732 q 742 762 731 747 q 757 783 754 776 l 769 789 q 782 808 771 796 q 804 831 793 819 q 825 852 815 843 q 835 864 835 861 l 849 864 q 855 870 850 867 q 864 875 860 874 l 849 875 q 839 869 846 869 q 831 864 832 869 l 818 864 q 791 842 807 858 q 758 808 775 826 q 726 773 742 790 q 703 746 711 756 q 697 745 700 746 q 690 744 693 744 q 682 743 686 743 q 674 739 682 739 l 672 732 l 585 732 l 558 635 l 585 621 q 579 618 579 618 l 578 617 q 571 618 571 617 q 572 620 571 619 q 572 622 572 621 l 560 622 q 555 633 560 624 q 543 655 550 643 q 530 677 536 667 q 524 690 524 688 q 518 728 519 708 q 517 768 517 749 q 517 792 517 781 q 518 815 518 804 l 518 825 l 511 825 q 509 788 511 807 q 507 753 507 769 l 507 667 q 513 653 507 663 q 526 635 518 644 q 541 617 533 625 q 554 604 549 608 l 554 592 l 560 585 l 554 585 l 547 581 q 533 563 540 574 q 511 549 526 553 l 507 542 q 485 530 493 538 q 469 514 476 522 q 456 497 463 506 q 440 481 449 488 q 440 463 440 465 q 438 461 439 461 q 420 451 431 461 q 399 431 410 442 q 381 410 389 419 q 371 403 372 401 q 366 399 368 403 q 363 393 364 394 q 356 392 360 392 q 350 388 351 392 l 332 388 l 308 406 q 278 423 288 417 q 265 437 269 429 q 256 454 260 444 q 244 483 253 464 q 236 492 242 490 l 236 506 q 223 526 233 507 q 193 554 213 544 q 179 566 190 561 q 163 574 168 571 l 158 581 l 146 585 l 136 594 l 149 671 m 632 585 q 624 593 629 588 q 613 599 619 599 l 613 607 l 661 583 q 647 585 654 585 q 632 585 639 585 m 878 875 l 878 882 l 872 882 l 865 875 l 878 875 m 153 333 l 153 325 l 158 333 l 153 333 m 469 122 l 476 122 q 472 124 476 125 q 465 126 468 124 l 469 122 z "},"F":{"ha":908,"x_min":40,"x_max":1036,"o":"m 471 38 l 464 1 l 306 0 l 43 0 l 40 25 l 61 144 l 110 431 l 113 449 l 114 450 q 143 469 125 461 q 174 489 161 478 q 178 495 174 493 q 186 499 183 497 l 186 518 l 192 524 l 192 542 l 199 549 l 199 574 l 204 581 l 204 586 q 208 610 204 599 q 225 624 211 613 q 254 651 239 636 q 283 679 269 665 q 300 699 297 693 l 317 699 l 317 690 q 338 669 324 681 q 361 649 351 658 l 392 614 q 396 608 394 611 q 401 604 397 604 l 401 592 q 396 581 396 589 q 383 562 393 575 q 363 534 374 549 q 340 507 351 519 q 324 492 329 494 q 308 484 318 489 q 294 474 297 479 l 276 469 l 306 469 q 361 522 338 497 q 414 581 385 546 q 420 575 417 578 q 424 571 424 572 q 426 565 424 568 q 432 560 429 561 l 432 549 l 444 536 l 444 524 l 449 518 l 449 506 q 455 518 454 507 q 456 540 456 529 q 457 550 456 546 q 458 557 457 553 q 463 553 461 557 q 467 549 464 550 q 488 542 474 544 q 510 536 501 539 l 510 521 q 515 474 510 494 q 487 447 500 458 q 454 424 474 436 q 418 393 436 411 q 408 384 413 388 q 396 375 403 381 q 386 361 390 369 l 379 353 l 375 344 q 379 347 379 344 q 388 351 385 351 q 397 360 392 351 q 406 369 400 363 q 418 375 411 375 q 453 400 439 383 q 492 424 467 417 q 504 437 496 433 q 519 447 513 440 q 524 449 522 450 q 526 450 525 449 l 526 456 q 544 443 539 456 l 540 432 l 540 425 q 538 399 540 414 q 526 383 535 383 l 522 364 l 522 344 q 532 331 526 340 q 544 313 538 322 l 504 239 l 471 38 m 1036 946 l 1014 811 l 1003 739 l 869 732 l 767 732 q 785 746 776 739 q 797 753 794 753 l 808 764 q 788 752 801 757 q 763 747 774 747 q 753 742 758 744 q 744 735 747 739 l 732 735 q 731 732 731 732 l 590 732 l 569 618 l 589 613 q 553 586 572 597 l 522 567 q 518 568 519 567 q 492 579 510 572 q 458 595 475 586 q 427 615 440 604 q 414 635 414 625 l 396 657 q 386 682 396 668 q 371 703 376 696 q 365 709 368 706 q 361 721 361 713 l 353 728 l 361 728 q 360 731 361 731 q 360 735 360 732 q 365 762 360 747 q 371 789 371 776 l 371 796 l 378 807 l 378 821 q 391 836 382 826 q 409 856 400 846 q 428 874 418 867 q 444 882 438 882 q 484 876 464 882 q 522 864 504 871 q 537 872 525 865 q 561 885 549 878 q 585 901 574 893 q 600 914 597 910 l 588 914 l 582 906 q 579 906 581 906 q 576 907 578 907 q 558 901 567 907 q 540 896 550 896 l 535 896 l 526 888 l 515 888 l 510 896 l 497 896 l 492 901 l 479 901 q 467 906 475 906 l 453 914 q 444 919 447 914 l 425 919 q 414 912 421 918 q 399 899 407 906 q 383 888 390 893 q 374 882 376 882 q 358 894 365 882 q 351 908 354 900 q 328 932 340 925 q 306 946 317 939 l 1036 946 m 789 560 l 892 560 l 890 506 l 864 343 l 564 343 q 558 350 561 346 q 553 357 554 354 l 553 383 l 557 388 l 557 401 l 564 406 l 564 419 l 569 419 l 569 463 l 564 469 q 565 474 564 472 q 565 478 565 475 q 560 502 565 490 q 556 528 556 514 q 556 532 556 531 q 557 536 557 533 l 553 542 l 553 554 q 554 556 553 556 q 564 563 557 556 q 575 574 571 571 q 594 585 581 578 q 611 599 608 593 l 642 599 l 656 594 l 658 592 l 665 592 l 669 592 l 711 581 l 728 576 q 733 572 731 574 q 738 567 735 569 q 740 567 739 567 q 743 568 742 568 q 757 565 750 568 q 767 556 764 561 l 779 556 q 772 561 776 558 q 760 567 767 564 l 789 560 m 190 904 l 197 944 l 268 946 l 289 946 l 331 901 l 347 882 q 349 875 347 878 q 350 871 349 872 q 353 864 353 871 l 361 857 l 361 828 l 353 821 l 353 814 q 349 788 353 803 q 335 771 344 774 l 324 739 l 306 739 l 300 735 l 278 736 q 274 739 278 739 q 269 739 271 739 l 269 753 l 276 758 l 276 771 l 282 778 l 282 796 l 288 801 l 288 832 q 274 801 285 817 q 264 781 264 785 q 257 771 264 774 l 257 758 l 239 758 l 239 765 q 235 764 238 764 q 216 776 225 764 q 196 788 207 788 q 188 799 192 788 q 181 814 185 811 l 181 828 l 178 828 l 190 904 m 125 518 l 149 657 q 171 630 161 643 q 181 610 181 617 l 181 560 l 174 549 l 174 524 l 168 524 l 168 510 q 164 504 164 510 q 163 503 164 503 q 163 501 163 503 q 161 499 161 500 q 148 492 158 494 q 132 488 138 490 q 124 483 128 485 q 118 478 121 481 l 125 518 m 160 722 l 161 721 l 199 721 l 204 717 l 251 717 l 251 708 l 264 708 l 264 703 q 258 697 261 700 q 251 690 254 694 l 204 642 l 186 642 q 178 649 183 646 q 174 660 174 653 q 163 667 171 661 q 151 672 154 674 l 160 722 m 174 801 l 174 789 q 202 765 192 782 q 229 739 213 747 l 163 739 l 172 801 l 174 801 m 264 469 l 264 463 l 269 463 l 276 469 l 264 469 m 606 914 l 611 919 l 600 919 l 600 914 l 606 914 z "},"G":{"ha":1061,"x_min":74,"x_max":1158,"o":"m 429 36 q 439 23 438 36 q 442 7 440 10 l 442 75 l 467 117 q 466 119 467 118 q 465 121 465 119 q 469 128 465 125 q 476 135 474 131 l 476 143 q 494 133 486 143 q 514 124 503 124 q 534 110 521 118 q 556 99 547 103 l 568 99 q 556 111 565 103 q 535 128 546 119 q 511 142 524 136 q 490 149 499 149 l 485 156 l 472 156 q 459 169 469 163 q 449 192 449 175 l 449 207 q 450 210 449 210 q 454 213 453 210 q 460 215 456 215 l 460 265 q 467 265 464 265 q 471 264 469 264 l 472 264 l 469 247 l 464 217 l 626 215 l 683 325 l 556 338 l 557 372 l 563 372 l 574 364 q 578 365 576 364 q 582 365 579 365 q 613 359 597 365 q 642 353 628 353 q 663 356 651 353 q 683 358 674 358 l 689 358 q 703 367 690 363 q 717 376 717 372 q 706 372 710 376 q 690 372 703 372 q 661 371 678 371 q 613 374 638 371 q 586 383 589 376 l 574 383 q 567 389 571 388 q 558 393 563 390 l 560 433 q 575 456 567 444 q 586 471 583 467 l 599 476 l 604 489 q 615 494 610 490 q 624 501 619 497 l 696 535 l 707 535 q 737 503 719 521 q 772 467 754 485 q 803 433 790 449 q 821 408 817 417 l 833 403 q 841 391 835 397 q 854 379 847 385 q 867 369 861 374 q 874 364 874 365 l 935 364 l 922 372 l 904 372 l 899 376 l 886 376 l 881 383 q 874 385 876 383 q 869 386 871 385 q 864 390 869 389 q 856 394 858 392 q 849 404 854 397 q 839 418 844 411 q 829 431 833 425 q 825 439 825 438 q 815 451 821 446 q 803 463 810 456 q 780 497 788 476 q 754 525 772 517 l 754 535 l 1107 535 l 1113 494 l 1071 246 l 1060 182 l 1058 172 l 1017 139 l 840 0 l 203 0 l 93 131 l 74 151 l 76 289 l 110 486 l 153 742 l 156 758 l 268 865 l 367 946 l 443 947 l 1000 947 l 1094 849 l 1158 778 l 1132 610 l 1051 603 l 739 603 q 763 630 751 615 q 778 661 774 644 q 796 675 783 663 q 822 703 808 688 q 847 734 835 719 q 861 754 858 749 l 874 760 q 886 778 875 767 q 908 802 897 790 q 929 823 919 814 q 939 835 939 832 l 953 835 q 959 841 954 838 q 968 846 964 844 l 953 846 q 943 840 950 840 q 935 835 936 840 l 922 835 q 895 813 911 829 q 863 779 879 797 q 831 744 846 761 q 807 717 815 726 q 801 716 804 717 q 794 715 797 715 q 786 714 790 714 q 778 710 786 710 l 776 690 l 740 639 l 749 710 l 621 729 l 621 739 q 622 763 621 751 q 622 786 622 775 l 622 796 l 615 796 q 613 763 615 781 q 611 731 611 746 l 608 732 l 533 615 l 504 453 l 493 389 q 475 374 476 372 q 470 369 472 374 q 467 364 468 365 q 460 363 464 363 q 454 358 456 363 l 436 358 l 413 376 q 383 394 392 388 q 369 408 374 400 q 360 425 364 415 q 349 454 357 435 q 340 463 346 461 l 340 476 q 327 497 338 478 q 297 525 317 515 q 283 537 294 532 q 267 544 272 542 l 263 551 l 250 556 q 235 569 242 567 q 219 581 228 572 l 201 599 l 201 606 l 196 606 q 201 596 196 603 q 210 588 207 589 q 219 556 213 572 q 243 531 226 539 q 252 528 247 531 q 257 519 257 525 q 293 499 272 510 q 322 471 314 488 q 326 453 325 465 q 335 439 328 442 l 335 433 q 338 417 335 424 q 340 403 340 410 q 340 380 340 388 q 339 369 339 372 l 339 365 q 324 353 333 365 q 304 340 314 340 l 288 322 l 274 315 l 265 304 l 269 306 l 274 310 l 283 314 q 289 317 288 315 q 293 322 290 319 q 308 330 299 326 q 322 340 318 333 l 335 340 l 335 346 q 343 347 339 346 q 351 347 347 347 q 396 336 379 347 q 436 310 413 325 l 436 296 l 442 292 l 442 265 l 449 260 l 449 247 q 444 240 446 244 q 436 235 442 235 l 436 179 l 442 174 l 442 161 l 449 156 l 449 124 q 440 113 443 121 q 429 99 436 104 l 429 86 l 424 81 q 425 74 424 74 q 427 74 426 74 q 429 75 428 75 l 429 36 m 467 304 l 467 328 q 474 335 468 328 q 486 351 479 343 l 476 292 q 467 304 471 300 m 982 846 l 982 853 l 976 853 l 969 846 l 982 846 m 257 304 l 257 296 l 263 304 l 257 304 m 574 93 l 581 93 q 576 95 581 96 q 569 97 572 94 l 574 93 m 563 472 l 564 472 q 563 471 563 471 l 563 472 z "},"H":{"ha":1046,"x_min":31,"x_max":1167,"o":"m 1014 0 l 633 0 l 628 138 l 653 292 l 504 324 l 464 201 l 457 160 q 426 182 443 171 q 397 193 408 193 l 392 200 l 379 200 q 366 213 376 207 q 356 236 356 219 l 356 251 q 357 254 356 254 q 361 257 360 254 q 367 260 363 260 l 367 310 q 374 309 371 310 q 378 308 376 308 l 379 308 q 385 299 379 303 q 399 292 392 294 q 414 288 407 289 q 421 286 421 286 q 425 283 422 285 q 429 282 429 279 q 428 286 429 285 q 419 297 425 293 q 408 306 413 301 q 390 328 396 318 q 374 349 383 339 l 374 372 q 379 378 375 372 q 389 391 383 385 q 401 403 394 397 q 414 408 408 408 l 428 417 l 444 421 l 451 417 l 469 417 l 481 408 q 485 409 483 408 q 489 410 486 410 q 519 403 504 410 q 549 397 535 397 q 569 400 558 397 q 590 403 581 403 l 596 403 q 610 412 597 407 q 624 421 624 417 q 613 417 617 421 q 597 416 610 417 q 568 415 585 415 q 520 418 544 415 q 493 428 496 421 l 481 428 q 465 438 478 436 q 451 447 451 439 q 457 460 451 450 q 469 481 463 469 q 483 501 476 492 q 493 515 490 511 l 506 521 l 511 533 l 522 539 l 619 539 l 640 551 q 694 495 667 524 q 728 453 722 467 l 740 447 q 748 435 742 442 q 761 424 754 429 q 774 414 768 418 q 781 408 781 410 l 842 408 l 829 417 l 811 417 l 806 421 l 793 421 l 788 428 q 781 429 783 428 q 776 431 778 429 q 771 435 776 433 q 763 439 765 436 q 756 449 761 442 q 746 463 751 456 q 736 476 740 469 q 732 483 732 482 q 722 495 728 490 q 710 507 717 500 q 688 538 696 519 q 665 567 681 556 l 701 589 l 744 589 l 744 596 l 728 596 l 704 596 l 731 749 l 731 750 q 754 778 743 765 q 768 799 765 792 l 781 804 q 793 823 782 811 q 815 847 804 835 q 836 867 826 858 q 846 879 846 876 l 860 879 q 866 885 861 882 q 875 890 871 889 l 860 890 q 850 885 857 885 q 842 879 843 885 l 829 879 q 785 841 813 869 q 736 788 758 813 l 764 946 l 956 947 l 1139 947 l 1167 897 l 1154 825 l 1100 508 l 1085 415 l 1051 224 l 1017 19 l 1015 4 l 1014 0 m 144 701 l 176 893 l 186 947 l 590 947 l 574 853 l 544 685 q 535 706 535 701 q 529 744 531 724 q 528 783 528 764 q 528 808 528 796 q 529 831 529 819 l 529 840 l 522 840 q 520 803 522 822 q 518 768 518 785 l 518 682 q 524 667 518 676 q 539 646 531 657 l 526 571 l 525 565 q 522 564 525 564 l 518 557 q 496 545 504 553 q 481 529 488 538 q 467 512 474 521 q 451 496 460 503 q 451 478 451 481 q 449 476 450 476 q 431 467 442 476 q 410 446 421 457 q 392 426 400 435 q 382 418 383 417 q 377 414 379 418 q 374 408 375 410 q 367 407 371 407 q 361 403 363 407 l 343 403 l 319 421 q 290 438 299 432 q 276 452 281 444 q 267 469 271 460 q 256 499 264 479 q 247 507 253 506 l 247 521 q 234 541 244 522 q 204 569 224 560 q 190 581 201 576 q 174 589 179 586 l 169 596 l 157 600 q 144 612 150 608 q 131 621 138 615 l 144 701 m 336 81 q 346 67 344 81 q 349 51 347 54 l 349 119 l 374 161 q 373 163 374 163 q 372 165 372 164 q 376 172 372 169 q 383 179 381 175 l 383 188 q 401 178 393 188 q 421 168 410 168 q 436 158 426 164 q 454 147 446 151 l 432 8 l 250 0 l 46 0 l 31 35 l 60 201 l 89 375 l 119 556 l 126 597 q 150 575 136 581 q 159 572 154 575 q 164 564 164 569 q 200 543 179 554 q 229 515 221 532 q 233 498 232 510 q 242 483 235 486 l 242 478 q 244 461 242 468 q 247 447 247 454 q 247 424 247 432 q 246 414 246 417 l 246 410 q 231 397 240 410 q 211 385 221 385 l 194 367 l 181 360 l 172 349 l 176 350 l 181 354 l 190 358 q 196 362 194 360 q 200 367 197 364 q 215 374 206 371 q 229 385 225 378 l 242 385 l 242 390 q 250 391 246 390 q 258 392 254 392 q 303 381 286 392 q 343 354 319 369 l 343 340 l 349 336 l 349 310 l 356 304 l 356 292 q 351 284 353 289 q 343 279 349 279 l 343 224 l 349 218 l 349 206 l 356 200 l 356 168 q 347 157 350 165 q 336 143 343 149 l 336 131 l 331 125 q 332 118 331 118 q 334 119 333 118 q 336 119 335 119 l 336 81 m 889 890 l 889 897 l 883 897 l 876 890 l 889 890 m 164 349 l 164 340 l 169 349 l 164 349 z "},"I":{"ha":476,"x_min":46,"x_max":601,"o":"m 443 0 l 51 0 l 46 75 l 78 263 l 100 394 l 101 396 l 101 403 l 106 425 l 107 428 l 107 433 l 107 435 l 110 456 q 111 457 111 456 q 128 472 114 460 q 157 498 142 483 q 186 526 172 513 q 203 546 200 540 l 219 546 l 219 538 q 240 517 226 528 q 264 496 254 506 l 294 461 q 299 455 297 458 q 304 451 300 451 l 304 439 q 299 428 299 436 q 286 409 296 422 q 265 381 276 396 q 243 354 254 367 q 226 339 232 342 q 210 331 221 336 q 197 321 200 326 l 179 317 l 208 317 q 264 369 240 344 q 317 428 288 393 q 323 422 319 425 q 326 418 326 419 q 329 412 326 415 q 335 407 332 408 l 335 396 l 347 383 l 347 371 l 351 365 l 351 353 q 358 365 357 354 q 358 388 358 376 q 360 397 358 393 q 361 404 360 400 q 365 401 364 404 q 369 396 367 397 q 390 389 376 392 q 413 383 404 386 l 413 368 q 418 321 413 342 q 390 294 403 306 q 357 271 376 283 q 321 240 339 258 q 310 231 315 235 q 299 222 306 228 q 289 208 293 217 l 282 200 l 278 192 q 282 194 282 192 q 290 199 288 199 q 300 207 294 199 q 308 216 303 210 q 321 222 314 222 q 356 247 342 231 q 394 271 369 264 q 407 284 399 281 q 422 294 415 288 q 426 297 425 297 q 429 297 428 296 l 429 303 q 447 290 442 303 l 443 279 l 443 272 q 440 246 443 261 q 429 231 438 231 l 425 211 l 425 192 q 443 167 432 185 q 467 140 454 150 l 449 29 l 444 6 l 443 0 m 179 865 l 193 946 l 338 947 l 601 947 l 594 897 l 554 656 l 525 488 q 492 460 507 474 q 456 433 476 446 l 425 414 q 421 415 422 414 q 395 426 413 419 q 360 442 378 433 q 330 462 343 451 q 317 482 317 472 l 299 504 q 289 529 299 515 q 274 550 279 543 q 267 556 271 553 q 264 568 264 560 l 256 575 l 264 575 q 263 578 264 578 q 263 582 263 579 q 268 609 263 594 q 274 636 274 624 l 274 643 l 281 654 l 281 668 q 294 683 285 674 q 312 703 303 693 q 331 722 321 714 q 347 729 340 729 q 387 724 367 729 q 425 711 407 718 q 440 719 428 713 q 464 733 451 725 q 488 749 476 740 q 503 761 500 757 l 490 761 l 485 753 q 482 753 483 753 q 479 754 481 754 q 461 749 469 754 q 443 743 453 743 l 438 743 l 429 735 l 418 735 l 413 743 l 400 743 l 394 749 l 382 749 q 369 753 378 753 l 356 761 q 347 767 350 761 l 328 767 q 317 759 324 765 q 301 747 310 753 q 286 735 293 740 q 276 729 279 729 q 261 742 268 729 q 254 756 257 747 q 237 776 246 768 q 219 788 228 783 q 201 797 210 793 q 185 810 193 801 l 185 815 l 179 815 l 172 824 l 179 865 m 160 751 l 171 817 q 185 800 175 810 q 204 780 194 790 q 222 760 214 769 q 233 749 231 751 l 250 729 q 251 722 250 725 q 253 718 251 719 q 256 711 256 718 l 264 704 l 264 675 l 256 668 l 256 661 q 251 635 256 650 q 238 618 247 621 l 226 586 l 208 586 l 203 582 l 181 583 q 177 586 181 586 q 172 586 174 586 l 172 600 l 179 606 l 179 618 l 185 625 l 185 643 l 190 649 l 190 679 q 177 648 188 664 q 167 628 167 632 q 160 618 167 621 l 160 606 l 142 606 l 142 613 q 138 611 140 611 l 136 611 l 160 751 m 472 181 l 472 182 q 465 193 472 186 q 456 204 458 200 l 456 231 l 460 235 l 460 249 l 467 253 l 467 267 l 472 267 l 472 310 l 467 317 q 467 321 467 319 q 468 325 468 322 q 463 349 468 338 q 458 375 458 361 q 459 379 458 378 q 460 383 460 381 l 456 389 l 456 401 q 457 403 456 403 q 467 410 460 403 q 478 421 474 418 q 497 433 483 425 q 514 446 511 440 l 518 446 l 479 218 l 472 181 m 121 515 l 129 564 l 154 564 l 154 556 l 167 556 l 167 550 q 160 544 164 547 q 154 538 157 542 l 118 500 l 121 515 m 167 317 l 167 310 l 172 310 l 179 317 l 167 317 m 508 761 l 514 767 l 503 767 l 503 761 l 508 761 z "},"J":{"ha":994,"x_min":58,"x_max":1126,"o":"m 354 39 q 364 26 363 39 q 367 10 365 13 l 367 78 l 392 119 q 391 122 392 121 q 390 124 390 122 q 394 131 390 128 q 401 138 399 133 l 401 146 q 419 136 411 146 q 439 126 428 126 q 459 113 446 121 q 481 101 472 106 l 493 101 q 481 114 490 106 q 460 131 471 122 q 436 145 449 139 q 415 151 424 151 l 410 158 l 397 158 q 384 172 394 165 q 374 194 374 178 l 374 210 q 375 213 374 213 q 379 215 378 213 q 385 218 381 218 l 385 268 q 392 267 389 268 q 396 267 394 267 l 397 267 q 403 257 397 261 q 417 250 410 253 q 432 246 425 247 q 439 244 439 244 q 443 242 440 243 q 447 240 447 238 q 446 244 447 243 q 437 256 443 251 q 426 264 431 260 q 408 287 414 276 q 392 307 401 297 l 392 331 q 397 337 393 331 q 407 349 401 343 q 419 361 413 356 q 432 367 426 367 l 476 367 l 454 232 l 464 215 l 601 354 l 603 361 l 608 361 l 614 361 q 628 370 615 365 q 642 379 642 375 q 631 375 635 379 q 622 374 628 375 q 604 374 615 374 l 613 417 l 632 536 q 662 504 644 522 q 697 468 679 486 q 728 435 715 450 q 746 411 742 419 l 758 406 q 766 394 760 400 q 779 382 772 388 q 792 372 786 376 q 799 367 799 368 l 860 367 l 847 375 l 829 375 l 824 379 l 811 379 l 806 386 q 799 388 801 386 q 794 389 796 388 q 789 393 794 392 q 781 397 783 394 q 774 407 779 400 q 764 421 769 414 q 754 434 758 428 q 750 442 750 440 q 740 453 746 449 q 728 465 735 458 q 705 499 713 479 q 679 528 697 519 l 679 540 l 703 540 l 710 547 l 763 547 l 763 554 l 746 554 q 703 556 725 554 q 661 558 682 558 q 653 567 658 561 q 642 572 649 572 l 642 590 q 649 593 642 589 l 654 596 q 683 628 669 611 q 703 664 697 644 q 721 678 708 665 q 747 706 733 690 q 772 737 760 722 q 786 757 783 751 l 799 763 q 811 781 800 769 q 833 805 822 793 q 854 826 844 817 q 864 838 864 835 l 878 838 q 884 844 879 840 q 893 849 889 847 l 878 849 q 868 843 875 843 q 860 838 861 843 l 847 838 q 820 816 836 832 q 788 782 804 800 q 756 747 771 764 q 732 719 740 729 q 726 719 729 719 q 719 718 722 718 q 711 717 715 717 q 703 713 711 713 l 701 693 l 654 626 l 647 624 l 657 678 l 667 731 l 622 732 l 546 732 l 546 742 q 547 766 546 754 q 547 789 547 778 l 547 799 l 540 799 q 538 765 540 782 q 536 732 536 747 l 175 732 l 164 774 l 189 926 l 211 947 l 1126 947 l 1115 883 l 1088 718 l 1046 468 l 1033 399 l 1010 257 l 997 179 l 996 172 l 954 140 l 778 0 l 221 0 l 188 31 l 58 157 l 89 333 l 92 351 l 257 364 q 244 351 251 358 q 229 343 236 343 l 213 325 l 199 318 l 190 307 l 194 308 l 199 313 l 208 317 q 214 320 213 318 q 218 325 215 322 q 233 333 224 329 q 247 343 243 336 l 260 343 l 260 349 q 268 349 264 349 q 276 350 272 350 q 321 339 304 350 q 361 313 338 328 l 361 299 l 367 294 l 367 268 l 374 263 l 374 250 q 369 242 371 247 q 361 238 367 238 l 361 182 l 367 176 l 367 164 l 374 158 l 374 126 q 365 115 368 124 q 354 101 361 107 l 354 89 l 349 83 q 350 76 349 76 q 352 77 351 76 q 354 78 353 78 l 354 39 m 385 365 q 379 361 381 365 l 361 361 l 354 367 l 392 367 q 385 365 389 365 m 907 849 l 907 856 l 901 856 l 894 849 l 907 849 m 182 307 l 182 299 l 188 307 l 182 307 m 499 96 l 506 96 q 501 98 506 99 q 494 100 497 97 l 499 96 z "},"K":{"ha":1051,"x_min":33,"x_max":1167,"o":"m 1072 319 l 1044 147 l 1025 33 l 979 0 l 607 0 l 618 79 l 660 324 l 653 324 q 671 327 661 325 q 689 329 681 329 l 694 329 q 709 338 696 333 q 722 347 722 343 q 711 343 715 347 q 696 342 708 343 q 667 342 683 342 q 619 344 643 342 q 592 354 594 347 l 579 354 q 563 364 576 363 q 550 374 550 365 q 556 386 550 376 q 568 407 561 396 q 582 428 575 418 q 592 442 589 438 l 604 447 l 610 460 q 627 470 618 463 q 644 486 636 478 q 661 501 653 494 q 678 507 669 507 q 683 510 681 507 q 688 515 686 513 l 706 515 q 734 483 715 503 q 772 444 753 464 q 807 406 792 424 q 826 379 822 389 l 839 374 q 847 362 840 368 q 860 350 853 356 q 873 340 867 344 q 879 335 879 336 l 940 335 l 928 343 l 910 343 l 904 347 l 892 347 l 886 354 q 879 356 882 354 q 875 357 876 356 q 869 361 875 360 q 861 365 864 363 q 855 375 860 368 q 844 389 850 382 q 835 402 839 396 q 831 410 831 408 q 821 422 826 417 q 808 433 815 426 q 785 467 793 447 q 760 496 778 488 l 760 508 l 783 508 l 790 515 l 843 515 l 843 522 l 826 522 q 784 524 806 522 q 742 526 763 526 q 734 535 739 529 q 722 540 729 540 l 722 558 q 729 561 722 557 l 735 564 q 764 596 750 579 q 783 632 778 613 q 801 646 789 633 q 827 674 814 658 q 852 705 840 690 q 867 725 864 719 l 879 731 q 892 749 881 738 q 914 773 903 761 q 935 794 925 785 q 944 806 944 803 l 958 806 q 965 812 960 808 q 974 817 969 815 l 958 817 q 949 811 956 811 q 940 806 942 811 l 928 806 q 901 784 917 800 q 868 750 885 768 q 836 715 851 732 q 813 688 821 697 q 806 687 810 688 q 800 686 803 686 q 792 685 796 685 q 783 681 792 681 l 782 661 l 735 594 l 722 590 q 711 574 718 585 q 697 564 704 564 q 690 561 693 564 l 688 558 q 681 560 681 558 q 681 562 681 561 q 682 564 682 563 l 669 564 q 664 576 669 565 q 651 599 658 586 l 722 688 l 758 906 l 765 947 l 1165 947 l 1167 869 l 1122 607 l 1114 558 l 968 439 l 1038 353 l 1072 319 m 33 0 l 33 19 l 54 139 l 82 307 l 124 551 l 149 699 l 181 889 l 189 943 l 335 947 l 569 947 l 583 858 l 551 668 l 531 539 l 603 539 l 633 576 q 650 558 642 567 q 664 546 658 549 l 664 533 l 669 526 l 664 526 l 657 522 q 643 505 650 515 q 621 490 636 494 l 617 483 q 594 472 603 479 q 579 456 586 464 q 565 438 572 447 q 550 422 558 429 q 549 405 550 407 q 547 403 549 403 q 530 393 540 403 q 509 372 519 383 q 490 352 499 361 q 481 344 482 343 q 476 340 478 344 q 472 335 474 336 q 465 333 469 333 q 460 329 461 333 l 442 329 l 418 347 q 388 365 397 358 q 374 378 379 371 q 366 396 369 386 q 354 425 363 406 q 346 433 351 432 l 346 447 q 333 467 343 449 q 303 496 322 486 q 289 508 300 503 q 272 515 278 513 l 268 522 l 256 526 q 240 540 247 538 q 225 551 233 543 l 207 569 l 207 576 l 201 576 q 207 567 201 574 q 215 558 213 560 q 225 526 218 543 q 249 501 232 510 q 258 499 253 501 q 263 490 263 496 q 299 469 278 481 q 328 442 319 458 q 332 424 331 436 q 340 410 333 413 l 340 404 q 343 388 340 394 q 346 374 346 381 q 345 351 346 358 q 344 340 344 343 l 344 336 q 329 324 339 336 q 310 311 319 311 l 293 293 l 279 286 l 271 275 l 275 276 l 279 281 l 289 285 q 294 288 293 286 q 299 293 296 290 q 314 301 304 297 q 328 311 324 304 l 340 311 l 340 317 q 349 317 344 317 q 357 318 353 318 q 401 307 385 318 q 442 281 418 296 l 442 267 l 447 263 l 447 236 l 454 231 l 454 218 q 449 210 451 215 q 442 206 447 206 l 442 150 l 447 144 l 447 132 l 454 126 l 454 94 q 445 83 449 92 q 435 69 442 75 l 435 57 l 429 51 q 431 44 429 44 q 433 45 432 44 q 435 46 433 46 l 435 39 l 317 0 l 33 0 m 481 126 l 478 126 q 465 140 475 133 q 454 163 454 146 l 454 178 q 456 181 454 181 q 460 183 458 181 q 465 186 461 186 l 465 236 q 472 235 469 236 q 476 235 475 235 l 478 235 q 484 225 478 229 q 498 218 490 221 q 513 214 506 215 q 519 213 519 213 q 524 210 521 211 q 528 208 528 206 q 526 213 528 211 q 517 224 524 219 q 507 232 511 228 q 488 255 494 244 q 472 275 482 265 l 472 299 q 478 305 474 299 q 488 317 482 311 q 500 329 493 324 q 513 335 507 335 l 526 343 l 543 347 l 550 343 l 568 343 l 579 335 q 583 335 582 335 q 588 336 585 336 q 615 331 601 336 q 643 324 629 325 l 601 324 l 481 126 m 988 817 l 988 824 l 982 824 l 975 817 l 988 817 m 263 275 l 263 267 l 268 275 l 263 275 z "},"L":{"ha":757,"x_min":53,"x_max":758,"o":"m 511 36 q 522 24 515 29 q 536 18 529 18 l 542 18 q 525 38 542 25 q 500 54 508 51 q 484 76 493 67 q 466 94 475 86 q 449 113 457 103 q 435 136 440 122 q 424 143 428 139 l 422 144 q 415 156 422 149 q 406 167 408 163 l 406 193 l 410 197 l 410 211 l 417 215 l 417 229 l 422 229 l 422 272 l 417 279 q 417 283 417 282 q 418 288 418 285 q 413 312 418 300 q 408 338 408 324 q 409 342 408 340 q 410 346 410 343 l 406 351 l 406 364 q 407 365 406 365 q 417 373 410 365 q 428 383 424 381 q 447 395 433 388 q 464 408 461 403 l 507 408 l 511 401 l 518 401 q 526 400 524 401 l 503 264 l 494 217 l 704 215 l 758 215 l 724 7 l 632 0 l 68 0 l 53 18 l 69 114 l 101 301 l 131 483 q 153 508 150 503 l 169 508 l 169 500 q 190 479 176 490 q 214 458 204 468 l 244 424 q 249 417 247 421 q 254 414 250 414 l 254 401 q 249 390 249 399 q 236 372 246 385 q 215 344 226 358 q 193 317 204 329 q 176 301 182 304 q 160 294 171 299 q 147 283 150 289 l 129 279 l 158 279 q 214 331 190 307 q 267 390 238 356 q 273 385 269 388 q 276 381 276 382 q 279 374 276 378 q 285 369 282 371 l 285 358 l 297 346 l 297 333 l 301 328 l 301 315 q 308 328 307 317 q 308 350 308 339 q 310 360 308 356 q 311 367 310 363 q 315 363 314 367 q 319 358 317 360 q 340 351 326 354 q 363 346 354 349 l 363 331 q 368 283 363 304 q 340 257 353 268 q 307 233 326 246 q 271 203 289 221 q 260 194 265 197 q 249 185 256 190 q 239 171 243 179 l 232 163 l 228 154 q 232 157 232 154 q 240 161 238 161 q 250 169 244 161 q 258 178 253 172 q 271 185 264 185 q 306 210 292 193 q 344 233 319 226 q 357 247 349 243 q 372 257 365 250 q 376 259 375 260 q 379 260 378 258 l 379 265 q 397 253 392 265 l 393 242 l 393 235 q 390 208 393 224 q 379 193 388 193 l 375 174 l 375 154 q 385 141 379 150 q 399 122 392 132 q 413 106 406 113 q 429 99 421 99 q 446 83 435 99 q 460 60 457 67 q 478 49 464 53 q 494 36 492 44 l 511 36 m 189 824 l 206 925 l 208 940 l 283 947 l 600 947 l 615 925 l 572 669 l 553 554 l 547 525 l 542 524 q 535 510 542 517 q 524 500 528 504 l 524 494 l 511 482 q 505 473 513 481 q 494 463 497 465 q 451 430 469 447 q 406 396 432 413 l 375 376 q 373 377 374 376 q 371 378 372 378 q 298 380 321 374 q 268 397 275 386 q 264 422 261 408 q 267 444 267 435 l 249 467 q 239 492 249 478 q 224 513 229 506 q 217 519 221 515 q 214 531 214 522 l 206 538 l 214 538 q 213 541 214 540 q 213 544 213 542 q 218 572 213 557 q 224 599 224 586 l 224 606 l 231 617 l 231 631 q 244 646 235 636 q 262 666 253 656 q 281 684 271 676 q 297 692 290 692 q 337 686 317 692 q 375 674 357 681 q 390 681 378 675 q 414 695 401 688 q 438 711 426 703 q 453 724 450 719 l 440 724 l 435 715 q 432 716 433 715 q 429 717 431 717 q 411 711 419 717 q 393 706 403 706 l 388 706 l 379 697 l 368 697 l 363 706 l 350 706 l 344 711 l 332 711 q 319 715 328 715 l 306 724 q 297 729 300 724 l 278 729 q 267 722 274 728 q 251 709 260 715 q 236 697 243 703 q 226 692 229 692 q 211 704 218 692 q 204 718 207 710 q 190 735 197 729 q 175 746 182 740 l 189 824 m 183 711 l 200 692 q 201 685 200 688 q 203 681 201 682 q 206 674 206 681 l 214 667 l 214 638 l 206 631 l 206 624 q 201 598 206 613 q 188 581 197 583 l 176 549 l 158 549 l 153 544 l 142 544 l 172 724 q 178 716 176 719 q 183 711 181 713 m 494 421 q 492 424 494 424 q 489 426 489 424 q 494 440 489 432 q 508 456 500 449 q 522 469 515 464 q 533 475 529 475 q 539 479 536 475 l 528 414 q 517 416 522 415 q 506 418 511 417 q 494 421 500 419 m 117 279 l 117 272 l 122 272 l 129 279 l 117 279 m 458 724 l 464 729 l 453 729 l 453 724 l 458 724 z "},"M":{"ha":1111,"x_min":32,"x_max":1240,"o":"m 533 503 l 518 456 l 503 360 l 497 360 q 492 356 493 360 l 474 356 l 450 374 q 420 391 429 385 q 406 405 411 397 q 398 422 401 413 q 386 451 394 432 q 378 460 383 458 l 378 474 q 365 494 375 475 q 335 522 354 513 q 321 534 332 529 q 304 542 310 539 l 300 549 l 288 553 q 272 567 279 564 q 257 578 265 569 l 239 596 l 239 603 l 233 603 q 239 593 233 600 q 247 585 244 586 q 257 553 250 569 q 281 528 264 536 q 290 525 285 528 q 294 517 294 522 q 331 496 310 507 q 360 468 351 485 q 364 451 363 463 q 372 436 365 439 l 372 431 q 375 414 372 421 q 378 400 378 407 q 377 377 378 385 q 376 367 376 369 l 376 363 q 361 350 371 363 q 342 338 351 338 l 325 319 l 311 313 l 303 301 l 307 303 l 311 307 l 321 311 q 326 315 325 313 q 331 319 328 317 q 346 327 336 324 q 360 338 356 331 l 372 338 l 372 343 q 381 344 376 343 q 389 344 385 344 q 433 333 417 344 q 474 307 450 322 l 474 293 l 479 289 l 479 263 l 485 257 l 482 239 q 474 232 479 232 l 474 186 l 465 136 l 442 1 l 306 0 l 32 0 l 33 19 l 76 271 l 107 453 l 114 486 l 151 714 l 186 917 l 192 947 l 575 947 l 614 846 l 649 740 l 649 721 l 649 635 q 654 622 649 631 q 667 603 660 613 q 683 585 675 593 q 696 572 690 576 l 696 560 l 701 553 l 696 553 l 689 549 q 675 531 682 542 q 653 517 668 521 l 649 510 q 626 498 635 506 q 611 482 618 490 q 597 465 604 474 q 582 449 590 456 q 581 431 582 433 q 579 429 581 429 q 564 421 572 429 l 543 471 l 533 503 m 1240 947 l 1224 851 l 1214 794 l 1189 643 l 1149 401 l 1101 124 l 1090 54 l 1082 8 l 969 0 l 672 0 l 678 33 l 724 292 l 736 361 l 736 363 q 749 368 743 365 q 754 374 754 371 q 743 369 747 374 l 738 369 l 758 493 l 725 457 l 667 368 q 638 372 650 369 q 624 381 626 375 l 611 381 q 595 390 608 389 q 582 400 582 392 q 588 413 582 403 q 600 433 593 422 q 614 454 607 444 q 624 468 621 464 l 636 474 l 642 486 q 659 497 650 489 q 676 513 668 504 q 693 527 685 521 q 710 533 701 533 q 715 536 713 533 q 719 542 718 539 l 738 542 q 766 510 747 529 q 804 470 785 490 q 839 433 824 450 q 858 406 854 415 l 871 400 q 878 388 872 394 q 892 376 885 382 q 905 367 899 371 q 911 361 911 363 l 972 361 l 960 369 l 942 369 l 936 374 l 924 374 l 918 381 q 911 382 914 381 q 907 383 908 382 q 901 388 907 386 q 893 392 896 389 q 887 401 892 394 q 876 415 882 408 q 867 428 871 422 q 863 436 863 435 q 853 448 858 443 q 840 460 847 453 q 817 494 825 474 q 792 522 810 514 l 792 535 l 815 535 l 822 542 l 875 542 l 875 549 l 858 549 q 816 551 838 549 q 774 553 794 553 q 766 561 771 556 q 754 567 761 567 l 754 585 q 761 588 754 583 l 767 590 q 796 622 782 606 q 815 658 810 639 q 833 672 821 660 q 859 701 846 685 q 884 731 872 717 q 899 751 896 746 l 911 757 q 924 776 913 764 q 946 799 935 788 q 967 820 957 811 q 976 832 976 829 l 990 832 q 997 838 992 835 q 1006 843 1001 842 l 990 843 q 981 838 988 838 q 972 832 974 838 l 960 832 q 933 810 949 826 q 900 776 917 794 q 868 741 883 758 q 844 714 853 724 q 838 713 842 714 q 832 713 835 713 q 824 711 828 711 q 815 707 824 707 l 814 688 l 767 621 l 754 617 q 743 601 750 611 q 729 590 736 590 q 722 588 725 590 l 719 585 q 713 586 713 585 q 713 588 713 588 q 714 590 714 589 l 701 590 q 697 601 701 592 q 685 623 692 611 q 672 645 678 635 q 665 658 665 656 q 658 713 658 686 l 668 683 l 811 883 l 833 917 l 1046 947 l 1240 947 m 588 369 l 600 369 l 611 361 q 615 362 614 361 q 619 363 617 363 q 638 360 628 363 q 657 354 647 357 l 619 297 l 588 369 m 1019 843 l 1019 850 l 1014 850 l 1007 843 l 1019 843 m 294 301 l 294 293 l 300 301 l 294 301 z "},"N":{"ha":1065,"x_min":42,"x_max":1192,"o":"m 829 126 q 840 114 833 119 q 854 108 847 108 l 860 108 q 843 128 860 115 q 818 144 826 142 q 802 167 811 157 q 784 185 793 176 q 767 203 775 193 q 753 226 758 213 q 742 233 746 229 l 740 235 q 733 246 740 239 q 724 257 726 253 l 724 283 l 728 288 l 728 301 l 735 306 l 735 319 l 740 319 l 740 363 l 735 369 q 735 374 735 372 q 736 378 736 375 q 731 402 736 390 q 726 428 726 414 q 727 432 726 431 q 728 436 728 433 l 724 442 l 724 454 q 725 456 724 456 q 735 463 728 456 q 746 474 742 471 q 765 485 751 478 q 782 499 779 493 l 825 499 l 829 492 l 836 492 q 853 489 846 492 q 872 486 861 486 l 882 481 q 897 477 889 481 q 908 467 906 474 q 911 467 910 467 q 914 468 913 468 q 928 465 921 468 q 938 456 935 461 l 950 456 q 936 465 947 458 q 919 474 925 471 q 910 485 919 482 q 897 492 901 488 l 885 492 l 878 499 l 867 499 q 862 502 864 500 q 858 504 860 504 q 847 505 854 504 q 832 507 839 506 q 813 511 824 508 q 810 514 813 514 q 807 517 807 514 q 813 531 807 522 q 826 547 818 539 q 840 560 833 554 q 851 565 847 565 q 863 576 857 565 q 871 594 868 588 q 872 597 871 596 q 872 599 872 597 q 880 602 875 601 q 885 608 885 603 l 897 608 l 915 621 l 926 621 q 934 628 928 622 q 947 639 940 633 q 960 649 954 644 q 968 653 967 653 l 979 664 q 958 652 972 657 q 933 647 944 647 q 924 642 929 644 q 915 635 918 639 l 903 635 q 886 623 897 624 q 872 617 875 622 l 860 614 q 853 601 860 607 q 842 590 846 594 l 842 585 l 829 572 q 823 563 831 571 q 813 553 815 556 q 769 520 788 538 q 724 486 750 503 l 693 467 q 689 468 690 467 q 663 479 681 472 q 628 495 646 486 q 598 515 611 504 q 585 535 585 525 l 567 557 q 557 582 567 568 q 542 603 547 596 q 535 609 539 606 q 532 621 532 613 l 524 628 l 532 628 q 531 631 532 631 q 531 635 531 632 q 536 662 531 647 q 542 689 542 676 l 542 696 l 549 707 l 549 721 q 567 743 556 728 q 592 769 579 758 l 672 540 l 690 490 l 706 521 l 747 765 l 753 799 q 771 814 767 808 l 758 814 l 754 808 l 779 947 l 1192 947 l 1181 882 l 1165 792 l 1139 635 l 1093 365 l 1060 167 l 1036 21 l 1032 0 l 625 0 l 639 118 l 592 251 l 583 274 q 586 274 585 274 q 589 275 588 275 q 624 300 610 283 q 663 324 638 317 q 675 337 667 333 q 690 347 683 340 q 694 349 693 350 q 697 350 696 349 l 697 356 q 715 343 710 356 l 711 332 l 711 325 q 708 299 711 314 q 697 283 706 283 l 693 264 l 693 244 q 703 231 697 240 q 717 213 710 222 q 731 196 724 203 q 747 189 739 189 q 764 173 753 189 q 778 150 775 157 q 796 139 782 143 q 813 126 810 135 l 829 126 m 529 428 q 509 404 518 414 q 494 392 500 394 q 478 384 489 389 q 465 374 468 379 l 447 369 l 476 369 l 526 417 l 492 232 l 467 85 l 458 31 l 401 0 l 42 0 l 56 111 l 60 140 l 89 311 l 142 624 l 154 697 l 182 853 l 197 943 l 271 947 l 608 947 l 590 815 q 565 795 579 808 q 544 782 550 782 q 529 794 536 782 q 522 808 525 800 q 505 828 514 821 q 487 841 496 836 q 469 850 478 846 q 453 863 461 854 l 453 868 l 447 868 l 440 876 l 435 876 q 444 863 435 874 q 465 840 453 853 q 488 817 476 828 q 501 801 499 806 l 518 782 q 519 775 518 778 q 521 771 519 772 q 524 764 524 771 l 532 757 l 532 728 l 524 721 l 524 714 q 519 688 524 703 q 506 671 515 674 l 494 639 l 476 639 l 471 635 l 449 636 q 445 639 449 639 q 440 639 442 639 l 440 653 l 447 658 l 447 671 l 453 678 l 453 696 l 458 701 l 458 732 q 445 701 456 717 q 435 681 435 685 q 428 671 435 674 l 428 658 l 410 658 l 410 665 q 406 664 408 664 q 387 676 396 664 q 367 688 378 688 q 359 699 363 688 q 351 714 356 711 l 351 728 l 326 728 l 326 733 q 319 735 322 733 q 315 736 317 735 q 310 742 315 739 q 303 746 306 746 l 296 746 q 308 728 296 739 q 326 714 321 717 q 337 706 331 711 q 344 701 343 700 l 344 689 q 373 665 363 682 q 400 639 383 647 l 332 639 l 332 647 l 314 647 q 304 655 311 653 q 292 658 297 657 q 276 654 285 656 q 256 653 267 653 l 256 647 l 261 647 q 274 647 265 647 q 290 644 282 646 q 306 638 299 642 q 314 628 313 635 l 326 628 l 332 621 l 369 621 l 375 617 l 422 617 l 422 608 l 435 608 l 435 603 q 428 597 432 600 q 422 590 425 594 l 375 542 l 357 542 q 349 549 354 546 q 344 560 344 553 q 333 567 342 561 q 322 572 325 574 q 314 580 319 575 q 302 590 308 585 q 291 599 296 596 q 285 603 286 603 l 278 599 l 267 599 l 274 590 l 285 590 q 301 577 290 588 q 324 554 313 567 q 343 529 335 542 q 351 510 351 517 l 351 460 l 344 449 l 344 424 l 339 424 l 339 410 q 335 404 335 410 q 334 403 335 403 q 333 401 333 403 q 332 399 332 400 q 319 392 329 394 q 303 388 308 390 q 289 378 296 383 q 274 369 282 372 q 266 348 271 363 q 261 319 261 333 l 256 314 l 256 301 q 263 313 257 301 q 267 324 265 318 q 275 338 271 331 q 285 350 279 344 q 314 369 296 361 q 344 389 332 378 q 349 395 344 393 q 357 399 354 397 l 357 418 l 363 424 l 363 442 l 369 449 l 369 474 l 375 481 l 375 486 q 379 510 375 499 q 396 524 382 513 q 425 551 410 536 q 454 579 440 565 q 471 599 468 593 l 488 599 l 488 590 q 508 569 494 581 q 532 549 522 558 l 563 514 q 567 508 565 511 q 572 504 568 504 l 572 492 q 567 481 567 489 q 552 458 563 474 q 529 428 542 443 m 585 481 q 591 475 588 478 q 594 471 594 472 q 597 465 594 468 q 603 460 600 461 l 603 449 l 615 436 l 615 424 l 619 418 l 619 406 q 626 418 625 407 q 626 440 626 429 q 628 450 626 446 q 629 457 628 453 q 633 453 632 457 q 638 449 635 450 q 658 442 644 444 q 681 436 672 439 l 681 421 q 686 374 681 394 q 658 347 671 358 q 625 324 644 336 q 589 293 607 311 l 579 285 l 531 421 q 557 449 544 435 q 585 481 569 463 m 435 369 l 435 363 l 440 363 l 447 369 l 435 369 m 776 814 l 782 819 l 771 819 l 771 814 l 776 814 z "},"O":{"ha":1071,"x_min":64,"x_max":1174,"o":"m 676 215 l 682 249 l 696 333 l 707 333 q 728 336 717 333 q 749 339 739 339 l 754 339 q 769 348 756 343 q 782 357 782 353 q 771 353 775 357 q 756 352 768 353 q 726 351 743 351 l 699 351 l 725 499 l 728 514 q 738 517 733 517 q 743 519 740 517 q 747 525 746 522 l 765 525 q 794 493 775 513 q 832 453 813 474 q 867 416 851 433 q 886 389 882 399 l 899 383 q 906 372 900 378 q 919 360 913 365 q 933 350 926 354 q 939 344 939 346 l 1000 344 l 988 353 l 969 353 l 964 357 l 951 357 l 946 364 q 939 365 942 364 q 935 367 936 365 q 929 371 935 369 q 921 375 924 372 q 915 385 919 378 q 904 399 910 392 q 894 412 899 406 q 890 419 890 418 q 881 431 886 426 q 868 443 875 436 q 845 477 853 457 q 819 506 838 497 l 819 518 l 843 518 l 850 525 l 903 525 l 903 532 l 886 532 q 844 534 865 532 q 801 536 822 536 q 794 544 799 539 q 782 550 789 550 l 782 568 q 789 571 782 567 l 794 574 q 824 606 810 589 q 843 642 838 622 q 861 656 849 643 q 887 684 874 668 q 912 715 900 700 q 926 735 924 729 l 939 740 q 951 759 940 747 q 974 783 963 771 q 994 803 985 794 q 1004 815 1004 813 l 1018 815 q 1024 822 1019 818 q 1033 826 1029 825 l 1018 826 q 1008 821 1015 821 q 1000 815 1001 821 l 988 815 q 960 794 976 810 q 928 760 944 778 q 896 724 911 742 q 872 697 881 707 q 866 697 869 697 q 860 696 863 696 q 851 694 856 694 q 843 690 851 690 l 842 671 l 794 604 l 782 600 q 771 584 778 594 q 757 574 764 574 q 750 571 753 574 l 747 568 q 740 569 740 568 q 741 572 740 571 q 742 574 742 572 l 738 574 l 750 646 l 764 724 l 707 732 l 686 732 q 687 749 686 740 q 688 767 688 758 l 688 776 l 681 776 q 680 754 681 765 q 678 732 679 743 l 592 732 l 547 696 l 524 550 l 492 368 l 488 349 l 478 357 q 448 374 457 368 q 434 388 439 381 q 426 406 429 396 q 414 435 422 415 q 406 443 411 442 l 406 457 q 392 477 403 458 q 363 506 382 496 q 349 517 360 513 q 332 525 338 522 l 328 532 l 315 536 q 300 550 307 547 q 285 561 293 553 l 267 579 l 267 586 l 261 586 q 267 576 261 583 q 275 568 272 569 q 285 536 278 553 q 308 511 292 519 q 317 508 313 511 q 322 500 322 506 q 358 479 338 490 q 388 451 379 468 q 392 434 390 446 q 400 419 393 422 l 400 414 q 403 397 400 404 q 406 383 406 390 q 405 360 406 368 q 404 350 404 353 l 404 346 q 389 333 399 346 q 369 321 379 321 l 353 303 l 339 296 l 331 285 l 335 286 l 339 290 l 349 294 q 354 298 353 296 q 358 303 356 300 q 374 310 364 307 q 388 321 383 314 l 400 321 l 400 326 q 408 327 404 326 q 417 328 413 328 q 451 322 438 328 q 481 304 465 315 l 469 239 l 514 231 l 514 228 q 509 220 511 225 q 501 215 507 215 l 501 160 l 507 154 l 507 142 l 514 136 l 514 104 q 505 93 508 101 q 494 79 501 85 l 494 67 l 489 61 q 490 54 489 54 q 492 55 492 54 q 494 56 493 56 l 494 17 q 501 11 499 17 q 504 0 503 6 l 226 0 l 68 158 l 64 229 l 94 406 l 128 604 l 157 774 l 315 896 l 381 944 l 428 946 l 1006 946 l 1139 813 l 1172 776 l 1174 775 l 1149 628 l 1118 449 l 1093 301 l 1074 186 l 979 97 l 861 1 l 808 0 l 507 0 l 507 56 l 532 97 q 531 99 532 99 q 531 101 531 100 q 535 108 531 106 q 542 115 539 111 l 542 124 q 560 114 551 124 q 579 104 568 104 q 599 91 586 99 q 621 79 613 83 l 633 79 q 621 92 631 83 q 600 108 611 100 q 576 123 589 117 q 556 129 564 129 l 550 136 l 538 136 q 524 149 535 143 q 514 172 514 156 l 514 188 q 515 190 514 190 q 519 193 518 190 q 525 196 521 196 l 525 229 l 583 218 q 588 218 588 218 l 604 215 l 676 215 m 1047 826 l 1047 833 l 1042 833 l 1035 826 l 1047 826 m 322 285 l 322 276 l 328 285 l 322 285 m 639 74 l 646 74 q 642 76 646 76 q 635 78 638 75 l 639 74 z "},"P":{"ha":1025,"x_min":35,"x_max":1124,"o":"m 690 510 l 721 696 l 726 726 l 596 731 q 629 750 611 739 q 651 768 647 761 l 639 768 l 633 760 q 631 760 632 760 q 628 761 629 761 q 610 756 618 761 q 592 750 601 750 l 586 750 l 578 742 l 567 742 l 561 750 l 549 750 l 543 756 l 531 756 q 518 760 526 760 l 504 768 q 496 774 499 768 l 476 774 q 465 766 472 772 q 450 753 458 760 q 435 742 442 747 q 425 736 428 736 q 410 749 417 736 q 403 763 406 754 q 385 783 394 775 q 367 795 376 790 q 350 804 358 800 q 333 817 342 808 l 333 822 l 328 822 l 321 831 l 315 831 q 324 817 315 828 q 345 794 333 807 q 368 771 357 782 q 382 756 379 760 l 399 736 q 400 729 399 732 q 401 725 400 726 q 404 718 404 725 l 413 711 l 413 682 l 404 675 l 404 668 q 400 642 404 657 q 386 625 396 628 l 375 593 l 357 593 l 351 589 l 329 590 q 326 593 329 593 q 321 593 322 593 l 321 607 l 328 613 l 328 625 l 333 632 l 333 650 l 339 656 l 339 686 q 326 655 336 671 q 315 635 315 639 q 308 625 315 628 l 308 613 l 290 613 l 290 619 q 286 618 289 618 q 267 630 276 618 q 247 642 258 642 q 240 653 243 642 q 232 668 236 665 l 232 682 l 207 682 l 207 688 q 200 689 203 688 q 196 690 197 689 q 191 697 196 693 q 183 700 186 700 l 176 700 q 189 682 176 693 q 207 668 201 671 q 217 660 211 665 q 225 656 224 654 l 225 643 q 253 619 243 636 q 281 593 264 601 l 213 593 l 213 601 l 194 601 q 185 609 192 607 q 172 613 178 611 q 156 608 165 610 q 136 607 147 607 l 136 601 l 142 601 q 154 601 146 601 q 171 598 163 600 q 186 592 179 596 q 194 582 193 589 l 207 582 l 213 575 l 250 575 l 256 571 l 303 571 l 303 563 l 315 563 l 315 557 q 309 551 313 554 q 303 544 306 549 l 256 496 l 238 496 q 230 503 235 500 q 225 514 225 507 q 214 522 222 515 q 203 526 206 528 q 194 534 200 529 q 183 544 189 539 q 172 553 176 550 q 165 557 167 557 l 158 553 l 147 553 l 154 544 l 165 544 q 182 531 171 542 q 204 508 193 521 q 224 483 215 496 q 232 464 232 471 l 232 414 l 225 403 l 225 378 l 219 378 l 219 364 q 215 358 215 364 q 215 357 215 357 q 214 356 214 357 q 213 353 213 354 q 199 347 210 349 q 183 342 189 344 q 169 332 176 338 q 154 324 163 326 q 147 302 151 317 q 142 274 142 288 l 136 268 l 136 256 q 143 267 138 256 q 147 278 146 272 q 156 292 151 285 q 165 304 160 299 q 194 324 176 315 q 225 343 213 332 q 230 349 225 347 q 238 353 235 351 l 238 372 l 243 378 l 243 396 l 250 403 l 250 428 l 256 435 l 256 440 q 260 464 256 453 q 276 478 263 467 q 306 505 290 490 q 335 533 321 519 q 351 553 349 547 l 368 553 l 368 544 q 389 524 375 535 q 413 503 403 513 l 443 468 q 447 462 446 465 q 453 458 449 458 l 453 446 q 447 435 447 443 q 435 416 444 429 q 414 388 425 403 q 392 361 403 374 q 375 346 381 349 q 359 338 369 343 q 346 328 349 333 l 328 324 l 357 324 q 413 376 389 351 q 465 435 436 400 q 472 429 468 432 q 475 425 475 426 q 478 419 475 422 q 483 414 481 415 l 483 403 l 496 390 l 496 378 l 500 372 l 500 360 q 506 372 506 361 q 507 394 507 383 q 508 404 507 400 q 510 411 508 407 q 514 408 513 411 q 518 403 515 404 q 539 396 525 399 q 561 390 553 393 l 561 375 q 567 328 561 349 q 529 294 547 308 l 490 294 l 483 261 l 469 247 q 459 238 464 242 q 447 229 454 235 q 438 215 442 224 l 431 207 l 426 199 q 431 201 431 199 q 439 206 436 206 q 449 214 443 206 q 457 223 451 217 q 469 229 463 229 l 478 233 l 457 122 l 439 14 l 238 0 l 46 0 l 35 35 l 75 269 l 85 326 l 129 590 l 183 915 l 189 947 l 969 947 l 1044 865 l 1124 774 l 1083 543 l 1074 483 l 993 401 l 886 313 l 763 294 l 621 294 l 621 317 l 615 324 q 616 328 615 326 q 617 332 617 329 q 612 356 617 344 q 607 382 607 368 q 608 386 607 385 q 608 390 608 388 l 604 396 l 604 408 q 606 410 604 410 q 615 417 608 410 q 626 428 622 425 q 646 440 632 432 q 663 453 660 447 l 706 453 l 710 446 l 717 446 q 734 443 726 446 q 753 440 742 440 l 763 435 q 778 431 769 435 q 789 421 786 428 q 792 422 790 421 q 794 422 793 422 q 808 419 801 422 q 818 410 815 415 l 831 410 q 817 419 828 413 q 800 428 806 425 q 791 439 800 436 q 778 446 782 442 l 765 446 l 758 453 l 747 453 q 742 456 744 454 q 739 458 740 458 q 727 459 735 458 q 713 461 719 460 q 693 465 704 463 q 690 468 693 468 q 688 471 688 468 q 693 485 688 476 q 706 501 699 493 q 721 514 714 508 q 732 519 728 519 q 743 531 738 519 q 751 549 749 542 q 752 551 751 550 q 753 553 753 551 q 760 556 756 556 q 765 563 765 557 l 778 563 l 796 575 l 807 575 q 815 582 808 576 q 828 593 821 588 q 841 603 835 599 q 849 607 847 607 l 860 618 q 839 606 853 611 q 814 601 825 601 q 804 596 810 599 q 796 589 799 593 l 783 589 q 767 577 778 578 q 753 571 756 576 l 740 568 q 733 555 740 561 q 722 544 726 549 l 722 539 l 710 526 q 703 517 711 525 q 693 507 696 510 q 649 474 668 492 q 604 440 631 457 l 574 421 q 569 422 571 421 q 544 433 561 426 q 509 449 526 440 q 478 469 492 458 q 465 489 465 479 l 447 511 q 438 536 447 522 q 422 557 428 550 q 416 563 419 560 q 413 575 413 567 l 404 582 l 413 582 q 412 585 413 585 q 411 589 411 586 q 417 616 411 601 q 422 643 422 631 l 422 650 l 429 661 l 429 675 q 442 690 433 681 q 460 710 451 700 q 479 728 469 721 q 496 736 489 736 q 535 731 515 736 q 574 718 556 725 l 593 729 l 539 604 l 528 532 l 678 510 l 690 510 m 571 301 q 575 303 574 304 q 578 304 576 303 l 578 310 q 596 297 590 310 l 594 294 l 563 294 q 571 301 565 296 m 315 324 l 315 317 l 321 317 l 328 324 l 315 324 m 657 768 l 663 774 l 651 774 l 651 768 l 657 768 z "},"Q":{"ha":1065,"x_min":63,"x_max":1169,"o":"m 1169 776 l 1160 719 l 1115 456 l 1071 201 l 878 35 l 842 8 l 707 0 l 700 -25 l 629 -122 l 342 -122 l 358 0 l 271 0 l 136 99 l 63 171 l 81 296 l 119 522 l 158 750 l 161 772 l 347 906 l 401 943 l 479 947 l 989 947 l 1114 833 l 1169 776 m 468 -51 q 478 -65 476 -51 q 481 -81 479 -78 l 481 -12 l 506 29 q 505 31 506 31 q 504 33 504 32 q 508 40 504 38 q 515 47 513 43 l 515 56 q 533 46 525 56 q 553 36 542 36 q 573 23 560 31 q 594 11 586 15 l 607 11 q 594 24 604 15 q 574 40 585 32 q 550 55 563 49 q 529 61 538 61 l 524 68 l 511 68 q 498 81 508 75 q 488 104 488 88 l 488 119 q 489 122 488 122 q 493 125 492 122 q 499 128 494 128 l 499 178 q 506 177 503 178 q 510 176 508 176 l 511 176 q 517 167 511 171 q 531 160 524 163 q 546 156 539 157 q 553 154 553 154 q 557 151 554 153 q 561 150 561 147 q 560 154 561 153 q 551 165 557 161 q 540 174 544 169 q 522 197 528 186 q 506 217 515 207 l 506 225 l 585 217 l 675 217 l 682 256 l 683 265 q 702 268 692 265 q 722 271 713 271 l 728 271 q 742 280 729 275 q 756 289 756 285 q 744 285 749 289 q 729 284 742 285 q 700 283 717 283 l 686 283 l 713 431 l 715 450 l 721 457 l 739 457 q 767 425 749 444 q 806 385 786 406 q 840 348 825 365 q 860 321 856 331 l 872 315 q 880 303 874 310 q 893 292 886 297 q 906 282 900 286 q 913 276 913 278 l 974 276 l 961 285 l 943 285 l 938 289 l 925 289 l 919 296 q 913 297 915 296 q 908 299 910 297 q 903 303 908 301 q 894 307 897 304 q 888 317 893 310 q 878 331 883 324 q 868 344 872 338 q 864 351 864 350 q 854 363 860 358 q 842 375 849 368 q 819 409 826 389 q 793 438 811 429 l 793 450 l 817 450 l 824 457 l 876 457 l 876 464 l 860 464 q 817 466 839 464 q 775 468 796 468 q 767 476 772 471 q 756 482 763 482 l 756 500 q 763 503 756 499 l 768 506 q 797 538 783 521 q 817 574 811 554 q 835 588 822 575 q 860 616 847 600 q 885 647 874 632 q 900 667 897 661 l 913 672 q 925 691 914 679 q 947 715 936 703 q 968 735 958 726 q 978 747 978 744 l 992 747 q 998 753 993 750 q 1007 758 1003 757 l 992 758 q 982 753 989 753 q 974 747 975 753 l 961 747 q 934 726 950 742 q 901 692 918 710 q 869 656 885 674 q 846 629 854 639 q 840 628 843 629 q 833 628 836 628 q 825 626 829 626 q 817 622 825 622 l 815 603 l 768 536 l 756 532 q 744 516 751 526 q 731 506 738 506 q 725 503 728 506 l 753 665 l 764 729 l 717 732 l 569 732 l 532 668 l 514 557 l 465 278 l 451 289 q 422 306 431 300 q 408 320 413 313 q 399 338 403 328 q 388 367 396 347 q 379 375 385 374 l 379 389 q 366 409 376 390 q 336 438 356 428 q 322 449 333 444 q 306 457 311 454 l 301 464 l 289 468 q 274 482 281 479 q 258 493 267 485 l 240 511 l 240 518 l 235 518 q 240 508 235 515 q 249 500 246 501 q 258 468 251 485 q 282 443 265 451 q 291 440 286 443 q 296 432 296 438 q 332 411 311 422 q 361 383 353 400 q 365 366 364 378 q 374 351 367 354 l 374 346 q 376 329 374 336 q 379 315 379 322 q 378 292 379 300 q 378 282 378 285 l 378 278 q 363 265 372 278 q 343 253 353 253 l 326 235 l 313 228 l 304 217 l 308 218 l 313 222 l 322 226 q 328 230 326 228 q 332 235 329 232 q 347 242 338 239 q 361 253 357 246 l 374 253 l 374 258 q 382 259 378 258 q 390 260 386 260 q 428 252 414 260 q 458 233 442 244 l 458 231 l 464 229 q 469 226 467 226 q 475 222 472 225 l 475 208 l 481 204 l 481 178 l 488 172 l 488 160 q 483 152 485 157 q 475 147 481 147 l 475 92 l 481 86 l 481 74 l 488 68 l 488 36 q 478 25 482 33 q 468 11 475 17 l 468 -1 l 463 -7 q 464 -14 463 -14 q 466 -13 465 -14 q 468 -12 467 -12 l 468 -51 m 1021 758 l 1021 765 l 1015 765 l 1008 758 l 1021 758 m 296 217 l 296 208 l 301 217 l 296 217 m 613 6 l 619 6 q 615 8 619 8 q 608 10 611 7 l 613 6 z "},"R":{"ha":1075,"x_min":44,"x_max":1143,"o":"m 707 500 l 715 553 q 765 554 743 554 q 797 550 788 554 l 810 556 q 824 553 815 553 q 841 556 832 554 q 857 560 850 558 q 865 561 864 561 l 906 607 l 892 603 l 879 589 l 872 588 l 864 578 l 856 579 q 853 576 854 576 q 850 574 851 575 q 846 572 847 572 q 838 572 843 575 q 831 567 833 568 q 819 569 828 568 q 801 570 811 569 q 784 572 792 571 q 776 574 776 572 q 762 574 769 575 q 744 572 754 574 q 732 572 738 571 q 719 574 726 572 l 726 613 l 744 717 l 578 731 q 571 778 575 754 q 564 808 567 801 l 568 822 q 562 843 564 828 q 559 875 560 858 q 557 906 558 892 q 554 921 556 919 l 564 931 q 565 949 560 938 l 1036 949 l 1143 822 l 1132 576 l 1118 496 l 1033 438 l 1013 347 l 1082 282 l 1075 238 l 1039 29 l 940 0 l 849 0 l 797 46 l 782 92 q 778 93 782 93 q 776 101 775 96 q 775 111 778 107 l 769 117 q 789 124 776 124 q 808 132 801 124 q 831 139 817 135 q 854 147 846 143 l 863 156 q 845 154 857 156 q 819 150 833 153 q 792 142 806 147 q 774 131 779 138 l 765 131 l 757 122 q 738 120 750 124 q 714 128 726 117 q 706 135 708 132 q 703 139 704 138 l 701 140 q 703 146 704 143 q 704 151 701 149 l 667 185 q 671 190 669 188 q 674 193 672 192 q 675 193 675 194 q 687 191 679 189 q 702 197 694 193 q 715 206 710 201 q 719 210 719 210 q 725 211 722 210 q 728 214 731 211 q 725 215 726 215 q 710 215 718 217 q 697 214 703 214 q 676 213 685 211 q 657 215 667 214 l 668 278 l 621 279 q 624 285 621 282 l 626 301 l 635 317 l 642 319 l 654 332 l 667 335 q 669 339 669 338 q 672 343 669 340 q 697 361 682 354 q 721 379 711 368 q 733 397 728 386 q 744 414 738 407 l 747 418 q 750 435 744 422 q 753 451 756 449 q 749 440 747 443 q 738 428 746 438 q 719 406 731 418 q 686 371 704 388 q 661 357 668 354 l 653 349 q 644 348 649 350 q 635 343 639 346 q 626 338 631 340 q 619 339 622 336 q 613 351 617 340 q 606 374 610 361 q 600 399 603 388 q 596 415 597 411 l 600 428 l 593 440 q 597 474 600 453 q 597 510 594 494 l 622 500 l 707 500 m 474 218 q 451 226 464 222 q 445 227 449 226 q 439 225 442 228 l 429 235 q 421 235 428 233 q 405 238 414 236 q 385 238 396 239 q 364 233 374 238 q 347 231 357 236 q 329 224 336 226 l 321 225 l 310 218 q 289 217 296 219 q 271 213 282 214 l 246 211 l 240 215 l 236 211 q 248 209 239 210 q 260 210 257 208 q 290 195 272 200 q 324 197 307 190 q 332 201 326 200 q 342 200 338 203 q 381 214 358 206 q 421 217 403 222 q 437 208 428 215 q 453 206 446 201 l 457 201 q 463 197 460 199 q 469 193 467 196 l 461 143 l 438 7 l 346 0 l 44 0 l 60 110 l 83 243 l 97 329 l 147 625 l 182 829 l 193 889 l 203 949 l 564 949 l 556 939 q 553 927 558 932 q 551 917 549 922 l 543 908 q 542 874 540 896 q 546 826 543 851 q 552 778 549 801 q 557 743 556 756 q 549 733 551 738 q 544 726 546 729 q 542 717 547 722 l 556 703 l 556 700 l 554 694 l 531 561 q 499 567 515 564 q 479 572 482 569 q 448 593 464 581 q 417 618 432 606 l 382 650 l 375 657 l 371 651 q 397 626 383 640 q 422 601 410 613 l 486 544 q 501 540 489 542 q 526 536 513 538 l 578 517 q 582 494 579 507 q 578 469 585 482 l 581 461 q 574 438 575 449 q 576 415 574 426 q 580 393 578 404 q 582 371 582 382 q 594 359 593 361 q 594 356 596 357 q 592 342 592 351 q 592 322 592 333 q 594 300 593 311 q 596 281 596 289 l 486 285 l 474 218 m 818 11 q 834 10 824 18 q 847 0 844 3 l 650 0 l 633 69 l 650 174 l 654 171 l 663 172 l 672 164 q 674 156 672 161 q 674 147 676 150 l 715 110 l 724 111 l 732 103 l 742 104 l 765 83 q 768 68 764 76 q 771 51 772 60 l 781 43 l 781 36 q 788 32 788 32 q 788 34 789 33 q 789 36 788 35 l 818 11 m 871 157 l 875 161 q 870 160 872 164 q 864 156 868 157 l 871 157 z "},"S":{"ha":1086,"x_min":69,"x_max":1164,"o":"m 547 936 l 542 942 l 538 938 l 539 928 l 528 915 l 528 913 q 525 904 528 908 q 522 897 522 900 q 524 893 522 894 l 515 885 q 514 864 514 879 q 516 828 514 849 q 521 787 518 807 q 526 749 524 767 q 529 719 528 731 q 521 710 524 714 q 517 703 518 706 l 517 699 q 514 693 517 696 l 528 679 l 547 600 l 542 588 q 545 574 543 582 q 547 558 547 565 q 546 551 547 553 q 543 544 543 549 l 543 540 q 538 536 539 536 l 535 540 l 526 531 q 515 535 526 532 q 491 540 504 538 q 466 544 478 542 q 451 549 454 547 q 420 569 436 557 q 389 594 404 582 l 354 626 l 347 633 l 343 628 q 369 603 356 617 q 394 578 382 589 l 458 521 q 478 515 463 517 q 510 513 494 513 q 538 515 526 513 l 546 507 l 556 506 l 551 501 l 550 494 q 553 481 551 488 q 554 465 554 474 q 550 446 554 456 l 553 438 q 547 408 547 425 q 549 387 547 397 q 553 365 551 376 l 271 365 l 147 457 l 147 674 l 167 793 l 371 947 l 1036 947 l 1157 804 l 1164 675 l 954 635 l 738 635 l 747 731 l 669 731 l 564 626 q 559 645 561 636 q 551 661 557 654 q 553 672 553 663 q 551 701 553 683 q 546 735 549 718 q 540 766 543 751 q 536 785 538 781 l 540 799 q 534 819 536 804 q 531 851 532 835 q 529 882 531 868 q 526 897 528 896 l 536 907 q 535 913 535 908 q 536 921 535 917 q 539 928 538 925 l 547 936 m 1057 151 l 1053 157 l 1049 153 l 1057 143 l 881 0 l 794 0 l 769 22 l 754 68 q 750 69 754 69 q 749 76 749 71 q 747 88 749 85 l 742 93 q 761 100 749 100 q 781 108 774 100 q 803 115 789 111 q 826 124 818 119 l 835 132 l 831 132 q 812 131 824 132 q 788 126 800 129 q 763 117 775 122 q 746 107 751 113 l 738 107 l 729 99 l 726 99 q 718 97 722 99 q 707 96 714 96 q 686 104 694 96 q 678 111 681 108 q 675 115 676 114 l 674 117 q 675 122 675 118 q 676 128 675 126 l 639 161 q 643 166 642 164 q 646 169 644 168 q 647 169 647 171 q 654 167 650 167 q 678 176 665 167 q 692 186 692 185 l 696 186 q 700 189 700 186 q 697 192 700 192 l 692 192 q 679 191 685 192 q 669 190 674 190 q 663 190 667 190 q 656 189 658 189 q 636 190 644 189 q 619 192 628 192 l 614 192 l 596 207 q 593 225 596 215 q 590 244 590 235 q 596 261 590 256 l 599 278 l 607 293 l 614 296 l 626 308 l 639 311 q 642 315 642 314 q 644 319 642 317 q 669 338 654 331 q 693 356 683 344 q 705 373 700 363 q 717 390 710 383 l 719 394 q 723 409 719 401 q 726 424 726 417 q 725 428 726 426 q 721 419 721 424 q 712 404 721 414 q 692 382 703 394 l 676 365 l 574 365 q 569 381 571 374 q 568 392 568 389 l 572 404 l 565 417 q 569 429 568 422 q 569 443 569 436 q 569 458 569 450 q 568 472 568 465 q 569 488 568 481 q 575 500 571 496 q 576 506 576 501 q 575 513 576 511 l 588 526 q 597 526 592 526 q 607 525 601 525 q 670 528 635 525 q 733 531 706 531 q 769 526 758 531 l 782 532 q 793 531 785 531 q 818 534 804 531 q 836 538 832 538 l 842 543 q 853 556 846 547 q 876 582 861 565 l 979 582 l 1125 450 l 1075 158 l 1058 144 l 1057 151 m 190 32 l 69 164 l 75 256 l 131 313 l 490 313 l 483 239 l 500 215 l 567 269 q 568 259 568 264 q 568 251 568 254 q 567 244 568 244 q 568 238 567 240 q 569 232 569 235 q 567 228 568 229 q 565 225 567 228 q 565 218 561 221 l 553 204 l 524 199 q 492 188 503 190 q 472 188 481 186 q 453 193 464 189 q 424 203 443 197 q 417 203 421 203 q 411 201 414 204 l 401 211 q 393 211 400 210 q 377 214 386 213 q 357 215 368 215 q 336 210 346 214 q 319 208 329 213 q 301 200 308 203 l 293 201 l 282 194 q 261 193 268 196 q 243 189 254 190 l 218 188 l 213 192 l 208 188 q 220 185 211 186 q 232 186 229 185 q 262 172 244 176 q 296 174 279 167 q 304 178 299 176 q 314 176 310 179 q 353 190 331 182 q 393 193 375 199 q 409 185 400 192 q 425 182 418 178 l 429 178 q 443 169 436 171 q 457 163 450 167 l 481 139 l 483 136 q 483 116 481 132 q 479 93 485 100 l 482 69 l 478 54 l 481 40 l 483 44 l 482 50 l 486 61 q 486 67 488 64 q 486 74 485 69 q 490 90 486 81 q 492 107 494 100 l 500 117 l 496 121 q 506 133 501 129 q 543 160 525 156 q 589 172 561 165 l 600 164 l 607 165 l 626 147 l 635 149 l 644 140 q 647 132 644 138 q 646 124 649 126 l 688 86 l 696 88 l 704 79 l 714 81 l 738 60 q 740 44 736 53 q 743 28 744 36 l 753 19 l 753 13 q 760 8 760 8 q 760 10 761 10 q 761 13 760 11 l 775 0 l 229 0 l 190 32 m 731 582 l 872 582 l 864 579 l 851 565 l 844 564 l 836 554 l 828 556 q 825 552 826 553 q 822 550 824 551 q 818 549 819 549 q 810 547 814 549 q 803 543 806 544 q 792 545 800 544 q 774 547 783 546 q 756 548 764 547 q 749 550 749 549 l 740 550 q 729 550 735 550 q 717 549 724 550 l 711 549 q 682 553 696 549 q 654 557 668 557 q 638 554 649 557 l 628 563 l 644 579 l 643 589 l 647 594 l 731 582 m 603 560 l 594 560 q 579 554 583 560 l 567 567 l 567 568 q 567 570 567 569 q 568 572 568 571 q 569 579 568 575 q 568 592 568 586 q 568 606 568 599 l 638 596 q 619 578 628 586 q 603 560 610 569 m 475 35 l 482 29 l 479 39 l 475 35 m 843 133 l 847 138 q 841 135 843 138 q 836 132 839 133 l 843 133 z "},"T":{"ha":903,"x_min":172,"x_max":1033,"o":"m 1033 947 l 1003 761 l 992 694 l 854 689 l 799 689 l 769 658 l 722 381 l 707 288 l 706 286 l 697 286 l 689 278 q 670 276 682 279 q 646 283 658 272 q 638 290 640 288 q 635 294 636 293 l 633 296 q 635 301 636 299 q 636 307 633 304 l 599 340 q 603 345 601 343 q 606 349 604 347 q 607 349 607 350 q 619 347 611 344 q 634 353 626 349 q 647 361 642 357 q 651 365 651 365 q 657 367 654 365 q 660 369 663 367 q 657 371 658 371 q 642 371 650 372 q 629 369 635 369 q 599 369 611 367 q 574 371 588 372 l 556 386 q 554 394 556 388 q 552 410 553 401 q 551 428 551 419 q 556 440 551 436 l 558 457 l 567 472 l 574 475 l 586 488 l 599 490 q 601 494 601 493 q 604 499 601 496 q 628 517 614 510 q 653 535 643 524 q 665 552 660 542 q 676 569 669 563 l 679 574 q 682 591 676 578 q 685 607 688 604 q 681 596 679 599 q 670 583 678 593 q 651 561 663 574 q 618 526 636 543 q 593 513 600 510 l 585 504 q 576 503 581 506 q 567 499 571 501 q 558 494 563 496 q 551 494 554 492 q 545 506 549 496 q 538 530 542 517 q 532 555 535 543 q 528 571 529 567 l 532 583 l 525 596 q 529 616 529 604 q 528 640 529 628 q 528 662 528 651 q 535 679 529 672 q 537 685 538 682 q 535 692 536 689 l 547 706 q 590 706 564 704 q 644 708 617 707 q 696 710 672 710 q 729 706 719 710 l 742 711 q 756 709 747 708 q 773 712 764 710 q 789 715 782 714 q 797 717 796 717 l 838 763 l 824 758 l 811 744 l 804 743 l 796 733 l 788 735 q 785 731 786 732 q 782 729 783 731 q 778 728 779 728 q 770 727 775 731 q 763 722 765 724 q 751 724 760 724 q 733 726 743 725 q 716 727 724 726 q 708 729 708 728 q 694 730 701 731 q 676 728 686 729 q 656 728 667 726 q 635 733 646 731 q 615 736 625 735 q 597 733 606 738 l 588 742 l 604 758 l 603 768 l 638 808 l 632 813 l 622 800 q 592 769 607 785 q 563 739 576 754 q 551 740 558 739 q 539 733 544 740 l 526 746 l 526 747 q 527 749 526 749 q 528 751 528 750 q 529 758 528 754 q 525 801 528 779 q 511 840 522 824 q 512 857 513 844 q 509 885 511 869 q 504 918 507 901 q 500 947 501 935 l 1033 947 m 335 485 l 360 631 l 369 689 l 178 689 l 172 869 l 182 931 l 201 947 l 482 947 l 489 899 q 481 889 483 893 q 476 882 478 885 q 474 872 479 878 l 488 858 l 507 779 l 501 767 q 506 748 503 760 q 506 731 510 736 q 503 724 503 728 l 503 719 q 497 715 499 715 l 494 719 l 486 710 q 475 714 486 711 q 451 719 464 717 q 426 724 438 721 q 411 728 414 726 q 380 749 396 736 q 349 774 364 761 l 314 806 l 307 813 l 303 807 q 328 782 315 796 q 354 757 342 768 l 418 700 q 433 695 422 697 q 456 692 443 693 q 479 692 468 692 q 497 694 490 693 l 506 686 l 515 685 l 511 681 l 510 674 q 514 651 511 664 q 510 625 517 639 l 513 617 q 506 593 507 604 q 508 571 506 582 q 512 549 510 560 q 514 526 514 538 q 526 515 525 517 q 526 511 528 513 q 523 492 522 507 q 525 463 524 478 q 528 435 526 447 q 526 424 529 424 q 527 417 525 421 q 529 411 529 413 q 527 408 528 408 q 525 404 526 407 q 525 397 522 401 l 513 383 l 483 378 q 451 367 463 369 q 432 367 440 365 q 413 372 424 368 q 383 382 403 376 q 377 383 381 382 q 371 381 374 383 l 361 390 q 347 391 358 388 q 319 394 335 394 l 335 485 m 669 67 l 660 4 l 565 0 l 253 0 l 269 97 l 283 185 l 315 369 q 353 372 336 376 q 369 364 360 371 q 385 361 378 357 l 389 357 q 403 348 396 350 q 417 342 410 346 l 440 318 l 443 315 q 442 295 440 311 q 439 272 444 279 l 442 249 l 438 233 l 440 219 l 443 224 l 442 229 l 446 240 q 446 246 447 243 q 446 253 444 249 q 450 269 446 260 q 451 286 454 279 l 460 296 l 456 300 q 465 313 461 308 q 503 340 485 335 q 549 351 521 344 l 560 343 l 567 344 l 586 326 l 594 328 l 604 319 q 606 311 604 317 q 606 303 608 306 l 647 265 l 656 267 l 664 258 l 674 260 l 697 239 q 697 235 696 236 q 697 231 697 233 l 690 186 l 669 67 m 435 214 l 442 208 l 439 218 l 435 214 m 704 275 l 704 269 l 701 272 l 704 275 z "},"U":{"ha":1065,"x_min":71,"x_max":1188,"o":"m 475 315 q 481 318 478 318 q 497 310 486 318 l 492 274 l 488 246 l 644 246 l 678 353 l 778 936 l 933 946 l 1165 946 l 1188 924 l 1060 172 l 999 125 l 993 132 l 999 143 l 1010 154 q 1025 185 1022 169 l 981 135 l 967 147 l 965 156 l 957 164 l 958 174 l 938 204 l 961 233 l 969 233 l 982 247 q 990 248 986 244 q 1001 251 994 251 q 1006 265 1010 260 l 1008 269 q 1015 280 1013 274 q 1021 292 1018 286 l 1001 269 l 993 268 l 981 254 q 968 250 974 258 q 954 243 958 247 q 944 240 951 239 q 931 236 938 240 q 925 239 928 236 l 921 235 l 917 240 l 919 244 l 911 256 q 906 283 911 267 q 892 319 900 300 q 878 360 885 339 q 869 401 872 382 l 881 415 l 890 414 l 907 433 l 913 433 l 932 457 l 943 456 q 948 462 946 458 q 944 469 950 465 l 965 493 l 915 454 l 908 456 l 896 442 l 888 440 l 881 432 q 860 428 872 429 q 834 428 847 428 q 809 430 821 428 q 792 438 797 432 q 788 440 792 439 q 783 438 785 440 q 782 436 782 438 l 743 471 l 742 463 q 749 452 746 457 q 758 443 753 447 q 787 425 771 432 q 817 407 803 418 q 833 405 824 407 q 847 404 842 403 l 856 396 l 851 392 l 864 354 q 867 349 865 351 q 869 344 869 347 q 873 324 869 336 q 880 297 876 311 q 885 271 883 283 q 883 251 888 258 l 908 182 l 917 174 l 918 167 l 932 156 l 933 146 l 938 142 q 947 128 944 135 q 957 118 950 122 l 971 104 l 899 49 q 889 52 893 50 q 882 56 885 54 q 896 46 888 50 l 847 8 l 769 0 l 231 0 l 71 165 l 79 261 l 119 501 q 131 495 125 497 q 142 490 136 493 l 165 467 l 168 464 q 167 444 165 460 q 164 421 169 428 l 167 397 l 163 382 l 165 368 l 168 372 l 167 378 l 171 389 q 171 394 172 392 q 171 401 169 397 q 175 418 171 408 q 176 435 179 428 l 185 444 l 181 449 q 190 461 186 457 q 228 488 210 483 q 274 500 246 493 l 285 492 l 292 493 l 311 475 l 319 476 l 329 468 q 331 460 329 465 q 331 451 333 454 l 372 414 l 381 415 l 389 407 l 399 408 l 422 388 q 425 372 421 381 q 428 356 429 364 l 438 347 l 438 340 q 444 336 444 336 q 445 338 446 338 q 446 340 444 339 l 475 315 m 582 946 l 601 924 l 522 461 q 521 460 522 460 l 522 460 l 497 311 l 454 350 l 439 396 q 435 397 439 397 q 433 404 433 399 q 432 415 433 413 l 426 421 q 446 428 433 428 q 465 436 458 428 q 488 443 474 439 q 511 451 503 447 l 519 460 l 515 460 q 497 458 508 460 q 472 453 485 457 q 448 445 460 450 q 431 435 436 440 l 422 435 l 414 426 l 411 426 q 403 425 407 426 q 392 424 399 424 q 371 432 379 424 q 363 439 365 436 q 360 443 361 442 l 358 444 q 360 450 360 446 q 361 456 360 454 l 324 489 q 328 494 326 492 q 331 497 329 496 q 332 497 332 499 q 339 494 335 494 q 363 503 350 494 q 376 514 376 513 l 381 514 q 385 517 385 514 q 382 519 385 519 l 376 519 q 364 519 369 519 q 354 518 358 518 q 347 517 351 518 q 340 517 343 517 q 321 518 329 517 q 304 519 313 519 l 299 519 l 281 535 q 278 553 281 543 q 275 572 275 563 q 281 589 275 583 l 283 606 l 292 621 l 299 624 l 311 636 l 324 639 q 326 643 326 642 q 329 647 326 644 q 353 665 339 658 q 378 683 368 672 q 390 701 385 690 q 401 718 394 711 l 404 722 q 408 737 404 729 q 411 751 411 744 q 410 756 411 754 q 406 747 406 751 q 397 732 406 742 q 376 710 388 722 q 344 677 361 693 q 319 661 328 661 l 318 660 q 315 657 317 658 q 310 653 313 656 l 307 653 q 293 647 300 653 q 281 642 286 642 q 276 643 278 642 q 270 655 274 644 q 263 678 267 665 q 257 703 260 692 q 253 719 254 715 l 257 732 l 250 744 q 253 757 253 750 q 254 771 254 764 q 253 785 254 778 q 253 800 253 793 q 254 816 253 808 q 260 828 256 824 q 261 833 261 829 q 260 840 261 839 l 272 854 q 281 853 276 854 q 292 853 286 853 q 355 856 319 853 q 418 858 390 858 q 454 854 443 858 l 467 860 q 478 858 469 858 q 503 862 489 858 q 521 865 517 865 l 526 871 q 539 884 531 875 q 563 911 547 893 l 549 907 l 536 893 l 529 892 l 521 882 l 513 883 q 510 880 511 881 q 507 878 508 879 q 503 876 504 876 q 494 874 499 876 q 488 871 490 872 q 476 873 485 872 q 458 874 468 874 q 441 876 449 875 q 433 878 433 876 l 425 878 q 414 878 419 878 q 401 876 408 878 l 396 876 q 367 881 381 876 q 339 885 353 885 q 322 882 333 885 l 313 890 l 329 907 l 328 917 l 353 946 l 582 946 m 194 840 q 222 843 211 840 l 231 835 l 240 833 l 236 829 l 235 822 q 238 808 236 815 q 239 793 239 801 q 235 774 239 783 l 238 765 q 232 736 232 753 q 235 708 232 721 q 239 679 239 694 l 239 675 q 253 661 253 664 q 249 640 249 657 q 251 607 249 625 q 253 579 253 589 q 251 572 253 572 q 253 565 251 568 q 254 560 254 563 q 252 556 253 557 q 250 553 251 556 q 249 550 249 551 q 250 546 249 547 l 238 532 l 208 526 q 178 517 189 519 q 160 514 168 514 q 145 517 153 514 q 124 525 138 521 l 176 840 l 194 840 m 288 888 l 279 888 q 264 882 268 888 l 251 894 l 251 896 q 252 898 251 897 q 253 900 253 899 q 254 907 253 903 l 251 946 l 344 946 q 315 917 331 931 q 288 888 300 903 m 193 942 l 225 946 l 228 946 l 232 928 l 226 915 q 230 901 228 910 q 232 886 232 893 q 231 879 232 881 q 228 872 228 876 l 228 868 q 222 864 224 864 l 219 868 l 211 858 q 201 862 210 860 q 181 867 192 864 l 193 942 m 742 479 l 738 485 l 733 481 l 743 471 l 742 479 m 160 363 l 167 357 l 164 367 l 160 363 m 519 460 l 521 460 l 519 460 z "},"V":{"ha":1061,"x_min":96,"x_max":1182,"o":"m 518 729 l 513 733 l 508 729 l 514 725 l 506 715 l 503 694 l 497 689 q 499 680 499 685 q 501 672 499 675 l 493 663 q 474 663 486 661 q 450 665 463 664 q 427 667 438 667 q 414 667 417 668 l 404 675 l 400 669 l 325 736 l 318 736 l 317 743 l 297 760 q 299 769 297 764 q 297 778 300 775 l 293 782 q 290 772 289 776 q 293 762 290 767 q 299 752 296 757 q 301 743 301 747 l 315 732 l 314 724 l 333 706 l 333 699 q 315 690 326 696 q 296 674 304 683 q 285 671 290 676 l 275 668 q 269 668 272 665 q 265 668 265 672 q 258 668 264 667 l 257 660 l 275 660 l 278 660 q 292 659 281 657 q 310 663 303 661 q 312 660 311 661 q 314 657 313 658 q 317 653 315 654 q 321 644 314 650 l 306 628 l 292 624 l 289 619 q 273 606 282 613 q 254 600 264 600 l 246 590 q 225 588 235 592 q 206 579 215 583 l 210 576 l 261 578 q 274 588 265 581 q 289 593 283 594 l 308 615 l 319 614 l 339 636 q 351 640 343 636 q 368 647 358 644 q 387 651 378 650 q 403 646 396 651 q 407 640 406 644 q 448 633 426 636 q 490 632 469 631 q 499 633 494 632 q 507 635 504 635 l 515 633 l 524 626 l 528 631 l 532 626 l 506 475 l 499 436 l 497 435 q 476 437 486 435 q 454 433 465 439 l 436 450 l 426 449 q 396 475 401 469 l 392 479 q 373 484 389 482 q 340 487 357 486 q 310 488 324 488 q 299 486 297 488 q 303 485 300 485 q 317 485 310 485 q 332 479 325 485 q 354 478 342 482 q 380 467 367 474 q 406 450 393 460 q 429 431 418 440 q 442 419 436 424 q 451 410 449 414 l 486 413 l 493 403 q 491 392 490 399 q 493 383 492 386 l 485 374 q 483 363 488 367 q 481 353 478 360 l 474 344 l 481 339 l 488 347 l 485 357 l 493 365 l 493 374 l 501 383 l 501 392 q 504 394 503 394 q 507 396 506 394 l 565 239 l 647 361 l 678 406 l 697 482 q 728 454 717 464 q 744 440 739 444 q 749 435 749 436 q 749 433 749 433 q 749 424 746 431 q 754 413 753 417 q 753 402 754 406 q 750 394 751 399 q 747 385 749 390 q 749 372 746 381 q 747 372 747 372 q 744 371 746 371 q 744 368 744 369 q 744 364 743 367 q 749 364 749 364 l 714 324 q 710 314 717 319 q 711 303 704 308 l 715 299 q 719 313 721 307 l 743 339 l 750 339 l 760 331 q 763 321 760 328 q 770 306 767 314 q 776 290 774 299 q 776 276 779 282 q 781 263 779 269 q 789 253 783 257 q 788 246 789 249 q 788 242 788 243 l 788 240 q 785 226 785 238 q 788 213 786 214 l 792 210 q 797 233 796 215 q 795 272 797 251 q 789 311 793 293 q 781 335 785 329 l 785 350 q 778 383 779 367 q 775 415 778 399 q 782 415 778 419 q 789 418 783 414 q 854 392 828 415 l 868 381 q 871 364 868 376 q 875 344 874 351 q 878 330 878 338 q 876 315 878 322 q 874 306 874 308 q 875 303 874 304 l 879 299 l 881 286 l 885 285 l 883 290 q 888 300 883 293 l 886 317 l 890 321 l 889 338 l 897 347 q 910 345 903 349 q 928 344 917 342 l 940 339 q 956 338 946 344 l 988 338 l 992 335 l 997 339 q 986 340 994 342 q 971 346 978 339 q 969 349 969 346 q 968 350 969 350 q 947 351 961 347 q 926 363 933 356 l 913 364 l 885 389 q 884 394 885 392 q 883 397 883 396 l 882 399 q 885 406 882 403 l 865 424 l 844 424 q 836 425 840 428 l 826 433 q 808 432 817 436 l 790 449 l 786 444 l 776 453 q 774 466 776 458 q 765 478 771 474 l 758 518 q 760 526 758 519 q 760 535 761 533 l 758 535 l 765 543 q 765 556 764 547 q 767 572 765 564 q 769 587 768 581 q 769 594 769 593 l 782 608 l 781 618 l 828 671 l 836 671 l 843 678 l 844 678 q 858 681 847 675 q 875 688 868 686 l 882 696 l 878 699 l 874 693 q 851 689 864 689 q 828 688 839 689 l 813 700 q 808 713 814 706 l 806 731 q 799 748 803 732 q 790 784 794 764 q 783 822 786 804 q 779 842 781 839 l 771 849 l 767 861 l 769 872 q 786 876 775 876 l 817 911 l 797 906 q 794 900 794 903 q 772 893 788 893 l 776 914 l 781 936 l 919 947 l 1176 947 l 1182 911 l 1128 594 l 1107 472 l 1092 383 l 1092 379 l 1001 260 l 878 99 l 807 6 l 765 0 l 572 0 l 400 -1 l 253 -1 l 228 57 l 164 203 l 96 360 l 124 538 l 150 692 l 172 828 l 192 942 l 300 947 l 551 947 l 560 929 l 560 928 q 560 890 563 908 q 563 856 557 872 q 558 853 561 856 l 558 851 q 560 847 558 849 q 563 847 561 846 l 551 835 q 544 833 544 833 q 542 832 543 833 q 526 820 538 828 q 501 806 514 813 q 478 794 489 799 q 464 792 467 789 l 457 783 l 450 782 l 447 772 l 461 776 q 472 783 465 781 q 485 789 479 786 q 498 790 488 788 q 521 797 508 793 q 543 804 533 800 q 554 808 553 808 l 563 808 l 538 663 l 526 674 q 522 692 528 679 q 517 711 515 704 l 514 725 l 518 729 m 768 846 q 767 821 765 836 q 775 799 768 806 q 776 786 774 792 q 776 774 778 781 l 782 768 l 778 764 q 781 742 781 754 q 781 719 782 729 l 785 715 l 786 708 l 796 699 l 796 682 l 769 650 l 764 656 l 760 651 l 750 660 l 743 658 l 735 665 l 765 847 l 768 846 m 732 517 l 733 507 l 725 499 l 715 497 l 703 508 l 715 557 l 726 618 l 732 650 l 753 633 q 747 593 750 610 q 742 565 744 578 q 739 551 740 553 q 738 542 739 547 q 740 533 738 538 l 736 529 l 732 517 m 186 578 l 192 574 l 201 575 l 206 579 l 186 578 m 893 700 q 883 696 890 703 l 893 700 m 882 696 l 883 696 l 882 696 z "},"W":{"ha":1665,"x_min":92,"x_max":1786,"o":"m 931 0 l 871 94 l 754 11 l 621 1 l 265 1 l 256 10 l 207 100 l 92 363 l 150 704 q 157 706 156 704 l 161 701 q 175 692 168 694 q 189 686 182 690 l 213 663 l 215 660 q 215 640 213 656 q 211 617 217 624 l 214 593 l 210 578 l 213 564 l 215 568 l 214 574 l 218 585 q 218 590 219 588 q 218 597 217 593 q 222 614 218 604 q 224 631 226 624 l 232 640 l 228 644 q 238 657 233 653 q 275 684 257 679 q 321 696 293 689 l 332 688 l 339 689 l 358 671 l 367 672 l 376 664 q 378 656 376 661 q 378 647 381 650 l 419 610 l 428 611 l 436 603 l 446 604 l 469 583 q 472 568 468 576 q 475 551 476 560 l 485 543 l 485 536 q 492 532 492 532 q 492 534 493 533 q 493 536 492 535 l 521 511 l 510 440 l 521 389 l 661 361 l 706 458 l 788 932 l 869 949 l 1186 949 l 1099 446 l 1092 408 l 1136 288 l 1164 299 q 1160 262 1165 281 q 1153 228 1154 243 l 1158 224 l 1144 213 q 1133 217 1138 217 q 1123 224 1129 219 q 1110 236 1117 229 q 1079 269 1086 253 q 1081 277 1082 272 q 1079 286 1081 282 l 1061 303 l 1060 310 l 1040 328 l 1046 339 l 1057 350 q 1072 381 1069 365 l 1028 331 l 1014 343 l 1013 351 l 1004 360 l 1006 369 l 985 400 l 1008 429 l 1017 429 l 1029 443 q 1038 444 1033 440 q 1049 447 1042 447 q 1053 461 1057 456 l 1056 465 q 1063 476 1060 469 q 1068 488 1065 482 l 1049 465 l 1040 464 l 1028 450 q 1015 446 1021 454 q 1001 439 1006 443 q 992 435 999 435 q 978 432 985 436 q 972 435 975 432 l 968 431 l 964 436 l 967 440 l 958 451 q 953 479 958 463 q 940 515 947 496 q 926 556 932 535 q 917 597 919 578 l 928 611 l 938 610 l 954 629 l 960 629 l 979 653 l 990 651 q 995 658 993 654 q 992 665 997 661 l 1013 689 l 963 650 l 956 651 l 943 638 l 935 636 l 928 628 q 907 624 919 625 q 881 624 894 624 q 856 626 868 624 q 839 633 844 628 q 835 635 839 635 q 831 633 832 636 q 829 632 829 633 l 790 667 l 789 658 q 797 648 793 653 q 806 639 800 643 q 834 621 818 628 q 864 603 850 614 q 880 601 871 603 q 894 600 889 599 l 903 592 l 899 588 l 911 550 q 915 545 913 547 q 917 540 917 543 q 920 519 917 532 q 927 493 924 507 q 933 467 931 479 q 931 447 935 454 l 956 378 l 964 369 l 965 363 l 979 351 l 981 342 l 985 338 q 994 324 992 331 q 1004 314 997 318 l 1024 296 l 1032 296 l 1044 285 l 1046 276 l 1054 268 l 1057 250 q 1033 245 1054 247 q 1006 239 1013 243 q 997 242 999 240 q 992 243 994 243 l 989 243 q 976 237 985 236 q 961 238 968 238 l 953 244 q 940 247 946 243 q 929 251 933 250 q 945 241 935 246 q 967 232 956 236 q 990 225 979 228 q 1007 222 1000 222 l 1019 228 l 1033 222 q 1053 223 1046 226 q 1072 221 1061 219 l 1114 183 l 1124 185 l 1132 176 l 1149 174 q 1163 174 1164 171 l 1176 163 l 1185 161 q 1201 148 1196 151 q 1208 142 1206 144 q 1211 140 1211 139 q 1221 141 1214 143 q 1229 138 1228 139 q 1233 125 1232 135 q 1235 104 1235 115 q 1233 82 1235 93 q 1231 67 1232 71 l 1222 57 l 1224 49 l 1196 17 l 1188 17 l 1175 3 l 942 3 l 931 0 m 1469 101 l 1468 113 l 1432 144 l 1401 147 q 1392 146 1396 151 q 1382 149 1389 143 q 1369 149 1375 156 l 1346 169 q 1344 176 1349 172 q 1343 179 1343 176 q 1342 182 1343 181 q 1343 190 1340 186 q 1344 197 1346 193 l 1353 206 q 1383 243 1368 225 q 1413 279 1397 261 q 1427 287 1417 285 q 1444 297 1438 289 q 1447 301 1446 300 q 1449 304 1449 301 l 1458 304 l 1506 358 q 1533 359 1525 354 q 1553 365 1542 364 l 1560 365 l 1565 361 q 1568 365 1567 364 q 1569 367 1569 365 l 1569 368 q 1547 370 1565 371 q 1524 375 1529 369 q 1514 377 1521 378 q 1503 376 1507 376 l 1490 389 q 1489 396 1492 390 q 1485 401 1488 399 q 1485 383 1482 400 q 1488 360 1488 367 q 1464 335 1476 347 q 1440 313 1451 324 l 1432 303 l 1422 304 l 1382 258 l 1375 258 l 1367 249 l 1360 247 l 1347 233 l 1338 235 l 1308 203 l 1286 222 l 1286 232 l 1278 224 l 1283 219 l 1275 210 l 1281 206 l 1274 197 l 1263 196 l 1254 204 l 1249 229 q 1244 247 1246 239 q 1240 257 1243 254 q 1238 262 1238 260 q 1235 267 1238 264 l 1231 271 q 1231 258 1229 269 q 1235 243 1232 247 q 1237 230 1236 239 q 1238 211 1238 221 q 1238 194 1238 201 q 1239 186 1239 188 l 1231 176 l 1232 171 l 1222 160 l 1214 168 l 1206 168 l 1197 175 l 1194 183 l 1182 196 q 1178 202 1182 200 q 1176 208 1175 204 q 1174 218 1175 210 q 1175 229 1172 226 q 1178 231 1178 231 q 1177 264 1171 250 q 1182 293 1183 278 q 1181 299 1182 296 q 1181 306 1181 301 l 1208 317 l 1265 393 l 1296 518 l 1369 949 l 1556 949 l 1538 928 l 1532 933 l 1519 919 q 1508 917 1514 922 q 1496 910 1501 913 q 1488 895 1493 903 q 1476 879 1483 888 l 1481 875 l 1485 879 q 1493 888 1488 882 q 1506 900 1499 894 q 1521 908 1514 906 q 1535 907 1528 911 l 1542 915 l 1551 915 l 1576 943 l 1583 944 l 1586 949 l 1635 949 l 1639 896 l 1628 882 q 1617 881 1622 882 q 1606 885 1611 879 q 1592 881 1603 882 q 1582 876 1582 879 q 1555 873 1574 875 q 1533 868 1536 871 l 1532 860 l 1525 851 l 1536 851 l 1543 860 q 1564 863 1549 861 q 1596 864 1579 864 q 1627 863 1613 864 q 1647 857 1642 861 l 1685 824 l 1689 811 l 1708 794 l 1704 790 l 1714 782 q 1715 775 1711 779 q 1716 774 1715 774 q 1717 772 1717 774 q 1718 769 1717 771 q 1714 755 1719 764 q 1707 740 1708 746 q 1705 723 1706 732 q 1701 706 1704 714 q 1712 685 1704 699 q 1731 664 1719 672 l 1732 656 l 1738 649 l 1692 381 l 1404 3 l 1254 3 q 1256 39 1256 22 q 1257 57 1257 56 l 1265 67 l 1260 72 q 1263 96 1258 81 q 1264 124 1267 111 q 1266 130 1263 126 q 1269 138 1269 133 l 1288 158 q 1301 159 1294 161 q 1314 161 1307 157 l 1324 151 l 1331 153 l 1342 144 q 1357 140 1349 147 q 1376 138 1365 132 l 1386 129 q 1398 128 1392 126 q 1411 129 1404 129 q 1426 122 1411 126 q 1451 111 1442 118 l 1460 111 l 1469 101 m 596 949 l 575 829 l 544 654 q 507 646 528 651 q 478 631 486 640 l 469 631 l 461 622 l 458 622 q 450 621 454 622 q 439 619 446 619 q 418 628 426 619 q 410 635 413 632 q 407 639 408 638 l 406 640 q 407 646 407 642 q 408 651 407 650 l 371 685 q 375 690 374 688 q 378 693 376 692 q 379 693 379 694 q 386 690 382 690 q 410 699 397 690 q 424 710 424 708 l 428 710 q 432 713 432 710 q 429 715 432 715 l 424 715 q 411 715 417 715 q 401 714 406 714 q 394 713 399 714 q 388 713 390 713 q 368 714 376 713 q 351 715 360 715 l 346 715 l 328 731 q 325 749 328 739 q 322 768 322 758 q 328 785 322 779 l 331 801 l 339 817 l 346 819 l 358 832 l 371 835 q 374 839 374 838 q 376 843 374 840 q 401 861 386 854 q 425 879 415 868 q 437 897 432 886 q 449 914 442 907 l 451 918 q 455 933 451 925 q 458 947 458 940 l 458 949 l 596 949 m 189 931 l 229 949 l 281 949 q 279 932 279 943 q 283 903 279 917 q 286 875 286 890 l 286 871 q 300 857 300 860 q 296 836 296 853 q 298 803 296 821 q 300 775 300 785 q 299 768 300 768 q 300 761 299 764 q 301 756 301 758 q 299 752 300 753 q 297 749 299 751 q 297 742 293 744 l 285 728 l 256 722 q 224 712 235 714 q 204 711 213 710 q 185 717 196 713 q 156 726 175 721 l 154 726 l 189 931 m 1786 949 l 1779 888 l 1750 715 l 1739 656 q 1737 660 1738 658 q 1735 665 1736 663 l 1732 671 q 1726 686 1729 678 q 1724 701 1724 694 q 1728 736 1722 717 q 1733 772 1733 756 q 1732 780 1731 775 q 1735 788 1733 785 l 1719 800 l 1719 808 l 1706 821 l 1706 831 l 1686 846 l 1685 856 l 1681 858 q 1665 878 1671 867 l 1665 949 l 1786 949 m 453 943 q 444 928 453 938 q 424 906 435 918 q 392 873 408 889 q 367 857 375 857 l 365 856 q 362 853 364 854 q 357 849 360 851 l 354 849 q 340 843 347 849 q 328 838 333 838 q 324 839 325 838 q 317 851 321 840 q 310 874 314 861 q 304 899 307 888 q 300 915 301 911 l 304 928 l 297 940 q 299 944 299 942 q 300 949 299 946 l 454 949 q 453 943 453 946 m 486 592 q 482 593 486 593 q 481 600 481 594 q 479 611 481 608 l 474 617 q 493 624 481 624 q 513 632 506 624 l 543 640 l 524 525 l 501 546 l 486 592 m 1219 25 q 1225 26 1222 24 q 1231 26 1228 29 q 1229 19 1229 26 q 1228 3 1229 13 l 1194 3 q 1203 10 1199 6 q 1211 18 1207 15 q 1219 25 1215 22 m 789 675 l 785 681 l 781 676 l 790 667 l 789 675 m 207 558 l 214 553 l 211 563 l 207 558 m 553 500 q 551 501 551 500 q 547 504 550 503 l 553 500 z "},"X":{"ha":1111,"x_min":35,"x_max":1238,"o":"m 1135 338 l 1092 88 l 1088 93 l 1086 100 l 1067 118 l 1072 129 l 1083 140 q 1099 171 1096 156 l 1054 121 l 1040 133 l 1039 142 l 1031 150 l 1032 160 l 1011 190 l 1035 219 l 1043 219 l 1056 233 q 1064 234 1060 231 q 1075 238 1068 238 q 1079 251 1083 246 l 1082 256 q 1089 266 1086 260 q 1094 278 1092 272 l 1075 256 l 1067 254 l 1054 240 q 1042 236 1047 244 q 1028 229 1032 233 q 1018 226 1025 225 q 1004 222 1011 226 q 999 225 1001 222 l 994 221 l 990 226 l 993 231 l 985 242 q 979 269 985 253 q 966 306 974 286 q 952 347 958 325 q 943 388 946 368 l 954 401 l 964 400 l 981 419 l 986 419 l 1006 443 l 1017 442 q 1022 448 1019 444 q 1018 456 1024 451 l 1039 479 l 989 440 l 982 442 l 969 428 l 961 426 l 954 418 q 933 415 946 415 q 908 414 921 414 q 883 416 894 414 q 865 424 871 418 q 862 426 865 425 q 857 424 858 426 q 856 422 856 424 l 817 457 l 815 449 q 823 438 819 443 q 832 429 826 433 q 860 411 844 418 q 890 393 876 404 q 906 391 897 393 q 921 390 915 389 l 929 382 l 925 378 l 938 340 q 941 335 939 338 q 943 331 943 333 q 947 310 943 322 q 953 283 950 297 q 959 257 957 269 q 957 238 961 244 l 982 168 l 990 160 l 992 153 l 1006 142 l 1007 132 l 1011 128 q 1021 115 1018 121 q 1031 104 1024 108 l 1050 86 l 1058 86 l 1071 75 l 1072 67 l 1081 58 l 1083 40 q 1060 35 1081 38 q 1032 29 1039 33 q 1023 32 1025 31 q 1018 33 1021 33 l 1015 33 q 1003 27 1011 26 q 988 28 994 28 l 979 35 q 966 37 972 33 q 956 42 960 40 q 972 31 961 36 q 994 22 982 26 q 1016 15 1006 18 q 1033 13 1026 13 l 1046 18 l 1060 13 l 1043 0 l 626 0 l 629 53 l 668 283 l 551 314 l 528 336 l 513 382 q 508 383 513 383 q 507 392 506 386 q 506 401 508 397 l 500 407 q 519 414 507 414 q 539 422 532 414 q 562 429 547 425 q 585 438 576 433 l 593 446 q 576 444 588 446 q 550 440 564 443 q 523 433 536 438 q 504 421 510 428 l 496 421 l 488 413 q 469 410 481 414 q 444 418 457 407 q 437 425 439 422 q 433 429 435 428 l 432 431 q 433 436 435 433 q 435 442 432 439 l 397 475 q 401 480 400 478 q 404 483 403 482 q 406 483 406 485 q 417 481 410 479 q 433 488 425 483 q 445 496 440 492 q 450 500 450 500 q 456 501 453 500 q 458 504 461 501 q 456 506 457 506 q 441 506 449 507 q 428 504 433 504 q 398 504 410 501 q 372 506 386 507 l 354 521 q 353 529 354 522 q 351 545 351 536 q 350 563 350 554 q 354 575 350 571 l 357 592 l 365 607 l 372 610 l 385 622 l 397 625 q 400 629 400 628 q 403 633 400 631 q 427 651 413 644 q 451 669 442 658 q 463 687 458 676 q 475 704 468 697 l 478 708 q 481 726 475 713 q 483 742 486 739 q 479 731 478 733 q 469 718 476 728 q 450 696 461 708 q 417 661 435 678 q 392 647 399 644 l 383 639 q 374 638 379 640 q 365 633 369 636 q 357 628 361 631 q 350 629 353 626 q 344 641 347 631 q 337 665 340 651 q 331 690 333 678 q 326 706 328 701 l 331 718 l 324 731 q 328 751 328 739 q 327 774 328 763 q 327 797 326 786 q 333 814 328 807 q 335 820 336 817 q 333 826 335 824 l 346 840 q 389 840 363 839 q 443 843 415 842 q 494 844 471 844 q 528 840 518 844 l 540 846 q 554 844 546 843 q 572 847 563 844 q 588 850 581 849 q 596 851 594 851 l 615 874 l 614 858 l 569 592 l 563 557 l 650 538 l 724 607 l 750 764 l 778 929 l 886 947 l 1238 947 l 1217 821 l 1169 538 l 1058 468 l 1056 389 l 1135 338 m 482 74 l 472 19 l 317 0 l 35 0 l 74 246 l 88 321 l 115 349 l 125 507 q 151 507 138 510 q 167 499 158 506 q 183 496 176 492 l 188 492 q 201 483 194 485 q 215 476 208 481 l 239 453 l 242 450 q 241 430 239 446 q 238 407 243 414 l 240 383 l 236 368 l 239 354 l 242 358 l 240 364 l 244 375 q 244 381 246 378 q 244 388 243 383 q 249 404 244 394 q 250 421 253 414 l 258 431 l 254 435 q 264 447 260 443 q 301 474 283 469 q 347 486 319 479 l 358 478 l 365 479 l 385 461 l 393 463 l 403 454 q 405 446 403 451 q 404 438 407 440 l 446 400 l 454 401 l 463 393 l 472 394 l 496 374 q 499 358 494 367 q 501 342 503 350 l 511 333 l 511 326 q 518 322 518 322 q 519 324 519 324 q 519 326 518 325 l 524 322 l 482 74 m 139 636 l 164 783 l 178 868 l 217 835 q 231 830 221 832 q 254 827 242 828 q 278 827 267 826 q 296 829 289 828 l 304 821 l 314 819 l 310 815 l 308 808 q 313 786 310 799 q 308 760 315 774 l 311 751 q 305 728 306 739 q 306 706 304 717 q 310 683 308 694 q 313 661 313 672 q 325 649 324 651 q 325 646 326 647 q 322 627 321 642 q 324 597 322 613 q 326 570 325 582 q 325 558 328 558 q 326 551 324 556 q 328 546 328 547 q 326 542 326 543 q 324 539 325 542 q 324 532 321 536 l 311 518 l 282 513 q 250 502 261 504 q 231 501 239 500 q 212 507 222 503 q 182 517 201 511 q 176 517 179 517 q 169 515 172 518 l 160 525 q 148 526 157 524 q 126 529 139 528 l 139 636 m 624 947 l 617 886 l 610 879 l 603 878 l 594 868 l 586 869 q 583 866 585 867 q 581 864 582 865 q 576 863 578 863 q 569 862 574 865 q 561 857 564 858 q 550 859 558 858 q 532 860 542 860 q 515 862 522 861 q 507 864 507 863 q 492 865 500 865 q 475 863 485 864 q 455 863 465 861 q 434 867 444 865 q 414 871 424 869 q 396 868 404 872 l 386 876 l 403 893 l 401 903 l 436 943 l 431 947 l 624 947 m 188 921 l 288 947 l 297 947 l 306 914 l 300 901 q 305 883 301 894 q 304 865 308 871 q 301 858 301 863 l 301 854 q 296 850 297 850 l 293 854 l 285 844 q 274 849 285 846 q 249 853 263 851 q 224 858 236 856 q 210 863 213 861 q 195 870 203 865 q 181 881 188 875 l 188 921 m 421 935 q 390 904 406 919 q 361 874 375 889 q 350 874 357 874 q 338 868 343 875 l 325 881 l 325 882 q 326 884 325 883 q 326 886 326 885 q 328 893 326 889 q 325 919 326 906 q 321 947 324 933 l 431 947 l 421 935 m 815 465 l 811 471 l 807 467 l 817 457 l 815 465 m 233 349 l 240 343 l 238 353 l 233 349 m 601 447 l 606 451 q 601 451 603 454 q 594 446 599 447 l 601 447 z "},"Y":{"ha":1094,"x_min":96,"x_max":1196,"o":"m 503 829 l 497 833 l 493 829 l 499 825 l 490 815 l 488 794 l 482 789 q 483 780 483 785 q 486 772 483 775 l 478 763 q 459 763 471 761 q 435 765 447 764 q 412 767 422 767 q 399 767 401 768 l 389 775 l 385 769 l 310 836 l 303 836 l 301 843 l 282 860 q 283 869 282 864 q 282 878 285 875 l 278 882 q 274 872 274 876 q 278 862 275 867 q 283 852 281 857 q 286 843 286 847 l 300 832 l 299 824 l 318 806 l 318 799 q 300 790 311 796 q 281 774 289 783 q 269 771 275 776 l 260 768 q 254 768 257 765 q 250 768 250 772 q 243 768 249 767 l 242 760 l 260 760 l 263 760 q 276 759 265 757 q 294 763 288 761 q 297 760 296 761 q 299 757 297 758 q 301 753 300 754 q 306 744 299 750 l 290 728 l 276 724 l 274 719 q 258 706 267 713 q 239 700 249 700 l 231 690 q 210 688 219 692 q 190 679 200 683 l 194 676 l 246 678 q 259 688 250 681 q 274 693 268 694 l 293 715 l 304 714 l 324 736 q 335 740 328 736 q 353 747 343 744 q 372 751 363 750 q 388 746 381 751 q 392 740 390 744 q 433 733 411 736 q 475 732 454 731 q 484 733 479 732 q 492 735 489 735 l 500 733 l 508 726 l 513 731 l 571 679 l 565 650 l 515 592 l 519 588 l 513 582 q 504 565 506 572 q 501 556 503 558 l 482 535 q 460 537 471 535 q 439 533 450 539 l 421 550 l 411 549 q 381 575 386 569 l 376 579 q 358 584 374 582 q 325 587 342 586 q 295 588 308 588 q 283 586 282 588 q 288 585 285 585 q 302 585 294 585 q 317 579 310 585 q 339 578 326 582 q 365 567 351 574 q 390 550 378 560 q 414 531 403 540 q 427 519 421 524 q 436 510 433 514 l 471 513 l 478 503 q 476 492 475 499 q 478 483 476 486 l 469 474 q 467 463 472 467 q 465 453 463 460 l 458 444 l 465 439 l 472 447 l 469 457 l 478 465 l 478 474 l 486 483 l 486 492 q 489 494 488 494 q 492 496 490 494 q 501 523 500 507 q 513 550 503 539 l 517 554 l 518 565 l 529 579 l 531 589 l 554 615 l 558 613 l 560 614 l 526 422 l 664 415 l 714 554 l 731 538 q 733 533 733 535 q 734 524 731 531 q 739 513 738 517 q 738 502 739 506 q 735 494 736 499 q 732 485 733 490 q 733 472 731 481 q 731 472 732 472 q 729 471 731 471 q 728 468 729 469 q 729 464 728 467 q 733 464 733 464 l 699 424 q 695 414 701 419 q 696 403 689 408 l 700 399 q 704 413 706 407 l 728 439 l 735 439 l 744 431 q 748 421 744 428 q 755 406 751 414 q 761 390 758 399 q 761 376 764 382 q 766 363 764 369 q 774 353 768 357 q 773 346 774 349 q 772 342 772 343 l 772 340 q 770 326 769 338 q 772 313 771 314 l 776 310 q 781 333 781 315 q 780 372 782 351 q 774 411 778 393 q 765 435 769 429 l 769 450 q 763 483 764 467 q 760 515 763 499 q 767 515 763 519 q 774 518 768 514 q 839 492 813 515 l 853 481 q 856 464 853 476 q 860 444 858 451 q 863 430 863 438 q 861 415 863 422 q 858 406 858 408 q 860 403 858 404 l 864 399 l 865 386 l 869 385 l 868 390 q 872 400 868 393 l 871 417 l 875 421 l 874 438 l 882 447 q 894 445 888 449 q 913 444 901 442 l 925 439 q 940 438 931 444 l 972 438 l 976 435 l 982 439 q 971 440 979 442 q 956 446 963 439 q 954 449 954 446 q 953 450 954 450 q 932 451 946 447 q 911 463 918 456 l 897 464 l 869 489 q 869 494 869 492 q 868 497 868 496 l 867 499 q 869 506 867 503 l 850 524 l 829 524 q 821 525 825 528 l 811 533 q 793 532 801 536 l 775 549 l 771 544 l 761 553 q 758 566 761 558 q 750 578 756 574 l 743 618 q 744 626 743 619 q 744 635 746 633 l 743 635 l 750 643 q 749 656 749 647 q 751 672 750 664 q 753 687 753 681 q 754 694 754 693 l 767 708 l 765 718 l 813 771 l 821 771 l 828 778 l 829 778 q 842 781 832 775 q 860 788 853 786 l 867 796 l 863 799 l 858 793 q 836 789 849 789 q 813 788 824 789 l 797 800 q 793 813 799 806 l 790 831 q 783 848 788 832 q 775 883 779 864 l 783 929 l 843 949 l 1189 949 l 1196 782 l 1122 351 l 971 236 l 811 222 l 789 157 l 763 0 l 340 0 l 349 107 l 365 203 l 354 222 l 96 338 l 96 429 l 186 947 l 544 947 q 547 947 546 946 l 536 935 q 528 933 529 933 q 526 932 528 933 q 510 920 522 928 q 486 906 499 913 q 463 894 474 899 q 449 892 451 889 l 442 883 l 435 882 l 432 872 l 446 876 q 457 883 450 881 q 469 889 464 886 q 483 890 472 888 q 506 897 493 893 q 528 904 518 900 q 539 908 538 908 q 549 909 543 910 q 558 914 554 908 l 569 906 l 574 910 l 606 879 l 579 725 l 574 725 l 557 740 l 549 740 l 511 774 q 506 792 513 779 q 501 811 500 804 l 499 825 l 503 829 m 769 815 l 771 808 l 781 799 l 781 782 l 754 750 l 753 751 l 765 824 l 765 819 l 769 815 m 618 947 l 614 926 q 592 924 601 931 l 578 936 l 579 944 l 575 947 l 618 947 m 171 678 l 176 674 l 186 675 l 190 679 l 171 678 m 878 800 q 868 796 875 803 l 878 800 m 867 796 l 868 796 l 867 796 z "},"Z":{"ha":1000,"x_min":40,"x_max":1111,"o":"m 582 728 l 535 732 l 447 732 q 442 755 444 743 q 438 778 439 767 l 449 792 l 458 790 l 475 810 l 481 810 l 500 833 l 511 832 q 516 838 514 835 q 513 846 518 842 l 533 869 l 483 831 l 476 832 l 464 818 l 456 817 l 449 808 q 428 805 440 806 q 402 804 415 804 q 377 806 389 804 q 360 814 365 808 q 356 816 360 815 q 351 814 353 817 q 350 813 350 814 l 311 847 l 310 839 q 317 828 314 833 q 326 819 321 824 q 355 801 339 808 q 385 783 371 794 q 401 781 392 783 q 415 781 410 779 l 424 772 l 419 768 l 431 732 l 169 732 l 186 883 l 193 922 l 256 947 l 1111 947 l 1111 861 l 1082 688 l 988 575 l 810 400 l 807 403 l 807 413 l 799 404 l 804 400 l 796 390 l 797 389 l 785 376 l 783 376 l 775 385 l 769 410 q 765 427 767 419 q 761 438 764 435 q 758 442 758 440 q 756 447 758 444 l 751 451 q 751 439 750 450 q 756 424 753 428 q 758 410 757 419 q 758 392 758 401 q 759 375 758 382 q 760 367 760 368 l 751 357 l 753 351 l 743 340 l 735 349 l 726 349 l 718 356 l 715 364 l 703 376 q 699 383 703 381 q 697 389 696 385 q 694 399 696 390 q 696 410 693 407 q 699 411 699 411 q 698 444 692 431 q 703 474 704 458 q 702 488 703 478 q 706 501 701 497 l 672 531 l 664 569 l 661 561 q 657 550 663 556 l 658 539 q 660 532 658 532 q 661 525 663 532 l 675 514 l 674 506 l 683 496 q 683 451 689 474 q 674 408 676 428 l 679 404 l 665 393 q 654 397 658 397 q 644 405 650 400 q 631 417 638 410 q 600 450 607 433 q 602 458 603 453 q 600 467 601 463 l 582 483 l 581 490 l 561 508 l 567 519 l 578 531 q 593 561 590 546 l 549 511 l 535 524 l 533 532 l 525 540 l 526 550 l 506 581 l 529 610 l 538 610 l 550 624 q 558 624 554 621 q 569 628 563 628 q 574 642 578 636 l 576 646 q 583 656 581 650 q 589 668 586 663 l 569 646 l 561 644 l 549 631 q 536 626 542 635 q 522 619 526 624 q 513 616 519 615 q 499 613 506 617 q 493 615 496 613 l 489 611 l 485 617 l 488 621 l 482 628 l 582 728 m 1001 215 l 993 161 l 968 1 l 40 1 l 71 207 l 101 244 l 460 604 l 476 558 l 485 550 l 486 543 l 500 532 l 501 522 l 506 518 q 515 505 513 511 q 525 494 518 499 l 544 476 l 553 476 l 565 465 l 567 457 l 575 449 l 578 431 q 554 426 575 428 q 526 419 533 424 q 517 422 519 421 q 513 424 515 424 l 510 424 q 497 417 506 417 q 482 418 489 418 l 474 425 q 460 427 467 424 q 450 432 454 431 q 466 422 456 426 q 488 413 476 417 q 510 406 500 408 q 528 403 521 403 l 540 408 l 554 403 q 574 403 567 407 q 593 401 582 400 l 635 364 l 644 365 l 653 357 l 669 354 q 683 354 685 351 l 697 343 l 706 342 q 724 326 721 329 q 729 322 728 322 l 622 217 l 729 213 l 717 197 l 708 197 l 660 142 l 665 138 l 693 169 l 704 172 q 712 179 707 175 q 724 190 717 183 q 740 206 731 196 q 746 207 743 204 q 751 207 749 210 q 750 188 750 207 q 749 145 750 169 q 745 99 747 121 q 739 71 743 76 q 737 65 736 68 q 736 60 738 63 l 738 33 l 740 38 q 743 42 743 40 l 742 46 l 750 57 q 750 69 747 61 q 753 79 753 78 q 759 90 756 82 q 765 108 763 99 q 768 126 767 118 q 768 136 769 133 l 776 144 q 774 169 774 147 q 776 210 775 190 l 913 206 l 1001 215 m 310 856 l 306 861 l 301 857 l 311 847 l 310 856 z "},"a":{"ha":879,"x_min":75,"x_max":953,"o":"m 856 0 l 561 0 l 546 83 l 563 213 l 426 215 l 393 68 l 385 3 l 186 0 l 86 0 l 75 65 l 88 151 l 121 404 l 133 500 l 167 744 l 169 760 l 244 850 l 325 932 l 400 947 l 825 947 l 922 829 l 951 788 l 953 715 l 928 531 l 906 367 l 882 190 l 871 107 l 856 4 l 856 0 m 740 104 q 751 92 744 97 q 765 86 758 86 l 771 86 q 754 106 771 93 q 729 122 738 119 q 713 144 722 135 q 695 163 704 154 q 678 181 686 171 q 664 204 669 190 q 653 211 657 207 l 651 213 q 644 224 651 217 q 635 235 638 231 l 635 261 l 639 265 l 639 279 l 646 283 l 646 297 l 651 297 l 651 340 l 646 347 q 647 351 646 350 q 647 356 647 353 q 642 380 647 368 q 638 406 638 392 q 638 410 638 408 q 639 414 639 411 l 635 419 l 635 432 q 636 433 635 433 q 646 441 639 433 q 657 451 653 449 q 676 463 663 456 q 693 476 690 471 l 736 476 l 740 469 l 747 469 q 765 467 757 469 q 783 464 772 464 l 793 458 q 808 455 800 458 q 819 444 817 451 q 822 445 821 444 q 825 446 824 446 q 839 442 832 446 q 849 433 846 439 l 861 433 q 847 442 858 436 q 831 451 836 449 q 822 463 831 460 q 808 469 813 465 l 796 469 l 789 476 l 778 476 q 773 480 775 478 q 769 482 771 482 q 758 483 765 482 q 743 485 750 483 q 724 489 735 486 q 721 492 724 492 q 718 494 718 492 q 724 508 718 500 q 737 524 729 517 q 751 538 744 532 q 763 543 758 543 q 774 554 768 543 q 782 572 779 565 q 783 574 782 574 q 783 576 783 575 q 791 580 786 579 q 796 586 796 581 l 808 586 l 826 599 l 838 599 q 845 606 839 600 q 858 617 851 611 q 872 626 865 622 q 879 631 878 631 l 890 642 q 869 630 883 635 q 844 625 856 625 q 835 619 840 622 q 826 613 829 617 l 814 613 q 797 601 808 601 q 783 594 786 600 l 771 592 q 764 578 771 585 q 753 568 757 572 l 753 563 l 740 550 q 734 541 742 549 q 724 531 726 533 q 680 498 699 515 q 635 464 661 481 l 604 444 q 600 446 601 444 q 594 449 597 446 l 599 478 l 629 706 l 482 711 l 461 569 q 453 581 456 575 q 447 587 450 583 q 443 599 443 590 l 435 606 l 443 606 q 442 609 443 608 q 442 613 442 610 q 447 640 442 625 q 453 667 453 654 l 453 674 l 460 685 l 460 699 q 473 714 464 704 q 491 734 482 724 q 510 752 500 744 q 526 760 519 760 q 566 754 546 760 q 604 742 586 749 q 619 749 607 743 q 643 763 631 756 q 667 779 656 771 q 682 792 679 788 l 669 792 l 664 783 q 661 784 663 783 q 658 785 660 785 q 640 779 649 785 q 622 774 632 774 l 617 774 l 608 765 l 597 765 l 592 774 l 579 774 l 574 779 l 561 779 q 549 783 557 783 l 535 792 q 526 797 529 792 l 507 797 q 496 790 503 796 q 481 777 489 783 q 465 765 472 771 q 456 760 458 760 q 440 772 447 760 q 433 786 436 778 q 416 806 425 799 q 398 819 407 814 q 381 828 389 824 q 364 840 372 832 l 364 846 l 358 846 l 351 854 l 346 854 q 355 841 346 851 q 376 818 364 831 q 399 794 388 806 q 413 779 410 783 l 429 760 q 431 753 429 756 q 432 749 431 750 q 435 742 435 749 l 443 735 l 443 706 l 435 699 l 435 692 q 431 666 435 681 q 417 649 426 651 l 406 617 l 388 617 l 382 613 l 360 614 q 356 617 360 617 q 351 617 353 617 l 351 631 l 358 636 l 358 649 l 364 656 l 364 674 l 369 679 l 369 710 q 356 678 367 694 q 346 658 346 663 q 339 649 346 651 l 339 636 l 321 636 l 321 643 q 317 642 319 642 q 298 653 307 642 q 278 665 289 665 q 270 677 274 665 q 263 692 267 689 l 263 706 l 238 706 l 238 711 q 231 713 233 711 q 226 714 228 713 q 222 720 226 717 q 214 724 217 724 l 207 724 q 219 706 207 717 q 238 692 232 694 q 248 683 242 689 q 256 679 254 678 l 256 667 q 284 642 274 660 q 311 617 294 625 l 243 617 l 243 625 l 225 625 q 215 633 222 631 q 203 636 208 635 q 187 632 196 633 q 167 631 178 631 l 167 625 l 172 625 q 185 624 176 625 q 201 622 193 624 q 217 616 210 619 q 225 606 224 613 l 238 606 l 243 599 l 281 599 l 286 594 l 333 594 l 333 586 l 346 586 l 346 581 q 340 575 343 578 q 333 568 336 572 l 286 519 l 268 519 q 260 527 265 524 q 256 538 256 531 q 244 545 253 539 q 233 550 236 551 q 225 558 231 553 q 213 568 219 563 q 202 577 207 574 q 196 581 197 581 l 189 576 l 178 576 l 185 568 l 196 568 q 213 555 201 565 q 235 532 224 544 q 254 507 246 519 q 263 488 263 494 l 263 438 l 256 426 l 256 401 l 250 401 l 250 388 q 246 382 246 388 q 245 381 246 381 q 244 379 244 381 q 243 376 243 378 q 230 370 240 372 q 214 365 219 368 q 200 356 207 361 q 185 347 193 350 q 177 326 182 340 q 172 297 172 311 l 167 292 l 167 279 q 174 290 168 279 q 178 301 176 296 q 186 315 182 308 q 196 328 190 322 q 225 347 207 339 q 256 367 243 356 q 260 373 256 371 q 268 376 265 375 l 268 396 l 274 401 l 274 419 l 281 426 l 281 451 l 286 458 l 286 464 q 290 488 286 476 q 307 502 293 490 q 336 528 321 514 q 365 557 351 543 q 382 576 379 571 l 399 576 l 399 568 q 419 547 406 558 q 443 526 433 536 l 453 514 l 449 479 l 443 438 l 463 436 q 431 395 449 417 q 406 369 414 374 q 390 362 400 367 q 376 351 379 357 l 358 347 l 388 347 q 433 390 413 371 q 476 435 454 410 l 514 433 l 514 426 l 526 414 l 526 401 l 531 396 l 531 383 q 537 396 536 385 q 538 418 538 407 q 538 425 538 421 q 539 432 539 429 l 544 432 q 549 426 547 426 q 569 419 556 422 q 592 414 583 417 l 592 399 q 597 351 592 372 q 569 325 582 336 q 536 301 556 314 q 500 271 518 289 q 490 262 494 265 q 478 253 485 258 q 468 239 472 247 l 461 231 l 457 222 q 461 225 461 222 q 469 229 467 229 q 479 238 474 229 q 488 247 482 240 q 500 253 493 253 q 535 278 521 261 q 574 301 549 294 q 586 315 578 311 q 601 325 594 318 q 606 327 604 328 q 608 328 607 326 l 608 333 q 626 321 621 333 l 622 310 l 622 303 q 619 276 622 292 q 608 261 617 261 l 604 242 l 604 222 q 615 209 608 218 q 628 190 621 200 q 642 174 635 181 q 658 167 650 167 q 675 151 664 167 q 689 128 686 135 q 707 117 693 121 q 724 104 721 113 l 740 104 m 346 347 l 346 340 l 351 340 l 358 347 l 346 347 m 688 792 l 693 797 l 682 797 l 682 792 l 688 792 z "},"b":{"ha":1042,"x_min":44,"x_max":1146,"o":"m 1071 367 l 1058 294 l 1035 163 l 893 42 l 872 26 l 774 0 l 44 0 l 44 88 l 57 164 l 78 289 l 111 483 l 143 674 l 186 932 l 189 946 l 285 947 l 996 947 l 1146 808 l 1117 640 l 1110 593 l 1008 510 l 963 469 l 1071 367 m 858 119 q 869 107 863 113 q 883 101 876 101 l 889 101 q 872 122 889 108 q 847 138 856 135 q 831 160 840 150 q 813 178 822 169 q 796 196 804 186 q 782 219 788 206 q 771 226 775 222 l 769 228 q 763 239 769 232 q 753 250 756 246 l 753 276 l 757 281 l 757 294 l 764 299 l 764 313 l 769 313 l 769 356 l 764 363 q 765 367 764 365 q 765 371 765 368 q 760 395 765 383 q 756 421 756 407 q 756 425 756 424 q 757 429 757 426 l 753 435 l 753 447 q 754 449 753 449 q 764 456 757 449 q 775 467 771 464 q 794 478 781 471 q 811 492 808 486 l 854 492 l 858 485 l 865 485 q 883 482 875 485 q 901 479 890 479 l 911 474 q 926 470 918 474 q 938 460 935 467 q 940 460 939 460 q 943 461 942 461 q 957 458 950 461 q 967 449 964 454 l 979 449 q 965 458 976 451 q 949 467 954 464 q 940 478 949 475 q 926 485 931 481 l 914 485 l 907 492 l 896 492 q 891 495 893 493 q 888 497 889 497 q 876 498 883 497 q 861 500 868 499 q 842 504 853 501 q 839 507 842 507 q 836 510 836 507 q 842 524 836 515 q 855 540 847 532 q 869 553 863 547 q 881 558 876 558 q 892 569 886 558 q 900 588 897 581 q 901 590 900 589 q 901 592 901 590 q 909 595 904 594 q 914 601 914 596 l 926 601 l 944 614 l 956 614 q 963 621 957 615 q 976 632 969 626 q 990 642 983 638 q 997 646 996 646 l 1008 657 q 988 645 1001 650 q 963 640 974 640 q 953 635 958 638 q 944 628 947 632 l 932 628 q 915 616 926 617 q 901 610 904 615 l 889 607 q 882 594 889 600 q 871 583 875 588 l 871 578 l 858 565 q 852 556 860 564 q 842 546 844 549 q 798 513 817 531 q 753 479 779 496 l 722 460 q 718 461 719 460 q 692 472 710 465 q 658 488 675 479 q 627 508 640 497 q 614 528 614 518 l 596 550 q 586 575 596 561 q 571 596 576 589 q 565 602 568 599 q 561 614 561 606 l 553 621 l 561 621 q 560 624 561 624 q 560 628 560 625 q 565 655 560 640 q 571 682 571 669 l 571 688 l 685 582 l 699 582 l 722 717 l 590 729 q 617 760 601 744 q 644 775 633 775 q 684 769 664 775 q 722 757 704 764 q 737 765 725 758 q 761 778 749 771 q 785 794 774 786 q 800 807 797 803 l 788 807 l 782 799 q 779 799 781 799 q 776 800 778 800 q 758 794 767 800 q 740 789 750 789 l 735 789 l 726 781 l 715 781 l 710 789 l 697 789 l 692 794 l 679 794 q 667 799 675 799 l 653 807 q 644 813 647 807 l 625 813 q 614 805 621 811 q 599 792 607 799 q 583 781 590 786 q 574 775 576 775 q 558 788 565 775 q 551 801 554 793 q 534 822 543 814 q 516 834 525 829 q 499 843 507 839 q 482 856 490 847 l 482 861 l 476 861 l 469 869 l 464 869 q 473 856 464 867 q 494 833 482 846 q 517 810 506 821 q 531 794 528 799 l 547 775 q 549 768 547 771 q 550 764 549 765 q 553 757 553 764 l 561 750 l 561 732 l 535 721 l 553 704 q 547 680 551 693 q 535 664 543 667 l 524 632 l 506 632 l 500 628 l 478 629 q 474 632 478 632 q 469 632 471 632 l 469 646 l 476 651 l 476 664 l 482 671 l 482 689 l 488 694 l 488 725 q 474 694 485 710 q 464 674 464 678 q 457 664 464 667 l 457 651 l 439 651 l 439 658 q 435 657 438 657 q 416 669 425 657 q 396 681 407 681 q 388 692 392 681 q 381 707 385 704 l 381 721 l 356 721 l 356 726 q 349 728 351 726 q 344 729 346 728 q 340 735 344 732 q 332 739 335 739 l 325 739 q 338 721 325 732 q 356 707 350 710 q 366 699 360 704 q 374 694 372 693 l 374 682 q 402 658 392 675 q 429 632 413 640 l 361 632 l 361 640 l 343 640 q 333 648 340 646 q 321 651 326 650 q 305 647 314 649 q 285 646 296 646 l 285 640 l 290 640 q 303 640 294 640 q 319 637 311 639 q 335 631 328 635 q 343 621 342 628 l 356 621 l 361 614 l 399 614 l 404 610 l 451 610 l 451 601 l 464 601 l 464 596 q 458 590 461 593 q 451 583 454 588 l 404 535 l 386 535 q 378 542 383 539 q 374 553 374 546 q 363 560 371 554 q 351 565 354 567 q 343 573 349 568 q 331 583 338 578 q 320 592 325 589 q 314 596 315 596 l 307 592 l 296 592 l 303 583 l 314 583 q 331 570 319 581 q 353 547 342 560 q 372 522 364 535 q 381 503 381 510 l 381 453 l 374 442 l 374 417 l 368 417 l 368 403 q 364 397 364 403 q 363 396 364 396 q 363 394 363 396 q 361 392 361 393 q 348 385 358 388 q 332 381 338 383 q 318 371 325 376 q 303 363 311 365 q 295 341 300 356 q 290 313 290 326 l 285 307 l 285 294 q 292 306 286 294 q 296 317 294 311 q 304 331 300 324 q 314 343 308 338 q 343 363 325 354 q 374 382 361 371 q 378 388 374 386 q 386 392 383 390 l 386 411 l 392 417 l 392 435 l 399 442 l 399 467 l 404 474 l 404 479 q 408 503 404 492 q 425 517 411 506 q 454 544 439 529 q 483 572 469 558 q 500 592 497 586 l 517 592 l 517 583 q 538 563 524 574 q 561 542 551 551 l 592 507 q 596 501 594 504 q 601 497 597 497 l 601 485 q 596 474 596 482 q 583 455 593 468 q 563 427 574 442 q 540 400 551 413 q 524 385 529 388 q 508 377 518 382 q 494 367 497 372 l 476 363 l 506 363 q 561 415 538 390 q 614 474 585 439 q 620 468 617 471 q 624 464 624 465 q 626 458 624 461 q 632 453 629 454 l 632 442 l 644 429 l 644 417 l 649 411 l 649 399 q 655 411 654 400 q 656 433 656 422 q 657 443 656 439 q 658 450 657 446 q 663 447 661 450 q 667 442 664 443 q 688 435 674 438 q 710 429 701 432 l 710 414 q 715 367 710 388 q 687 340 700 351 q 654 317 674 329 q 618 286 636 304 l 606 275 l 526 365 l 457 276 l 636 215 l 640 238 l 614 267 q 618 268 615 268 q 653 293 639 276 q 692 317 667 310 q 704 330 696 326 q 719 340 713 333 q 724 342 722 343 q 726 343 725 342 l 726 349 q 744 336 739 349 l 740 325 l 740 318 q 738 292 740 307 q 726 276 735 276 l 722 257 l 722 238 q 733 224 726 233 q 746 206 739 215 q 760 189 753 196 q 776 182 768 182 q 793 166 782 182 q 807 143 804 150 q 825 132 811 136 q 842 119 839 128 l 858 119 m 464 363 l 464 356 l 469 356 l 476 363 l 464 363 m 806 807 l 811 813 l 800 813 l 800 807 l 806 807 z "},"c":{"ha":1000,"x_min":79,"x_max":1094,"o":"m 146 656 l 165 775 l 315 885 l 367 921 l 521 947 l 907 947 l 1054 819 l 1094 782 l 1074 604 l 999 603 l 693 603 l 700 658 q 738 702 718 676 q 764 736 758 728 l 776 742 q 789 760 778 749 q 811 784 800 772 q 832 805 822 796 q 842 817 842 814 l 856 817 q 862 823 857 819 q 871 828 867 826 l 856 828 q 846 822 853 822 q 838 817 839 822 l 825 817 q 798 795 814 811 q 765 761 782 779 q 733 726 749 743 q 710 699 718 708 q 703 698 707 699 q 697 697 700 697 l 539 732 l 526 664 q 524 692 524 678 q 524 721 524 706 q 524 745 524 733 q 525 768 525 757 l 525 778 l 518 778 q 516 741 518 760 q 514 706 514 722 l 514 619 q 517 610 514 614 l 507 558 l 494 485 q 470 459 479 474 q 447 433 461 444 q 447 416 447 418 q 444 414 446 414 q 427 404 438 414 q 406 383 417 394 q 388 363 396 372 q 378 356 379 354 q 373 351 375 356 q 369 346 371 347 q 363 344 367 344 q 357 340 358 344 l 339 340 l 315 358 q 285 376 294 369 q 272 390 276 382 q 263 407 267 397 q 251 436 260 417 q 243 444 249 443 l 243 458 q 230 478 240 460 q 200 507 219 497 q 186 519 197 514 q 169 526 175 524 l 165 533 l 153 538 q 140 549 146 546 q 129 556 135 551 l 146 656 m 1029 344 l 1004 196 l 946 135 l 757 3 l 613 0 l 344 0 l 344 57 l 369 99 q 369 101 369 100 q 368 103 368 101 q 372 110 368 107 q 379 117 376 113 l 379 125 q 397 115 389 125 q 417 106 406 106 q 437 92 424 100 q 458 81 450 85 l 471 81 q 458 93 468 85 q 438 110 449 101 q 414 124 426 118 q 393 131 401 131 l 388 138 l 375 138 q 362 151 372 144 q 351 174 351 157 l 351 189 q 353 192 351 192 q 357 194 356 192 q 363 197 358 197 l 363 247 q 369 247 367 247 q 374 246 372 246 l 375 246 q 381 236 375 240 q 395 229 388 232 q 410 225 403 226 q 417 224 417 224 q 421 221 418 222 q 425 219 425 217 q 424 224 425 222 q 415 235 421 231 q 404 243 408 239 q 385 266 392 256 q 369 286 379 276 l 369 310 q 375 316 371 310 q 385 328 379 322 q 397 340 390 335 q 410 346 404 346 l 424 354 l 440 358 l 447 354 l 465 354 l 471 350 l 456 258 l 449 215 l 615 215 l 642 324 l 740 344 l 1029 344 m 332 18 q 340 13 338 18 q 343 0 342 7 l 244 0 l 97 140 l 79 264 l 111 451 l 125 531 q 146 513 132 518 q 155 510 150 513 q 160 501 160 507 q 196 481 175 492 q 225 453 217 469 q 229 435 228 447 q 238 421 231 424 l 238 415 q 240 399 238 406 q 243 385 243 392 q 242 362 243 369 q 242 351 242 354 l 242 347 q 226 335 236 347 q 207 322 217 322 l 190 304 l 176 297 l 168 286 l 172 288 l 176 292 l 186 296 q 192 299 190 297 q 196 304 193 301 q 211 312 201 308 q 225 322 221 315 l 238 322 l 238 328 q 246 328 242 328 q 254 329 250 329 q 299 318 282 329 q 339 292 315 307 l 339 278 l 344 274 l 344 247 l 351 242 l 351 229 q 347 222 349 226 q 339 217 344 217 l 339 161 l 344 156 l 344 143 l 351 138 l 351 106 q 342 94 346 103 q 332 81 339 86 l 332 68 l 326 63 q 328 56 326 56 q 330 56 329 56 q 332 57 331 57 l 332 18 m 447 385 q 453 397 447 388 q 465 418 458 407 q 479 439 472 429 q 489 453 486 449 l 474 368 q 458 376 468 374 q 447 385 447 378 m 885 828 l 885 835 l 879 835 l 872 828 l 885 828 m 160 286 l 160 278 l 165 286 l 160 286 m 476 75 l 483 75 q 479 77 483 78 q 472 79 475 76 l 476 75 z "},"d":{"ha":1092,"x_min":33,"x_max":1188,"o":"m 675 215 l 701 368 l 721 482 q 772 430 746 456 q 803 390 797 404 l 815 385 q 823 373 817 379 q 836 361 829 367 q 849 351 843 356 q 856 346 856 347 l 917 346 l 904 354 l 886 354 l 881 358 l 868 358 l 863 365 q 856 367 858 365 q 851 368 853 367 q 846 372 851 371 q 838 376 840 374 q 831 386 836 379 q 821 400 826 393 q 811 413 815 407 q 807 421 807 419 q 797 433 803 428 q 785 444 792 438 q 762 478 769 458 q 736 507 754 499 l 736 519 l 760 519 l 767 526 l 819 526 l 819 533 l 803 533 q 767 535 785 533 q 731 538 749 536 l 732 546 l 742 608 q 760 643 753 624 q 778 657 765 644 q 803 685 790 669 q 828 716 817 701 q 843 736 840 731 l 856 742 q 868 760 857 749 q 890 784 879 772 q 911 805 901 796 q 921 817 921 814 l 935 817 q 941 823 936 819 q 950 828 946 826 l 935 828 q 925 822 932 822 q 917 817 918 822 l 904 817 q 877 795 893 811 q 844 761 861 779 q 813 726 828 743 q 789 699 797 708 q 783 698 786 699 q 776 697 779 697 q 768 696 772 696 q 760 692 768 692 l 758 672 l 751 663 l 753 669 l 761 714 l 719 732 l 603 732 q 603 750 603 742 q 604 768 604 758 l 604 778 l 597 778 q 596 755 597 767 q 593 732 594 743 l 574 732 l 549 708 l 497 406 l 494 393 q 471 366 482 379 q 457 356 460 353 q 452 351 454 356 q 449 346 450 347 q 442 344 446 344 q 436 340 438 344 l 418 340 l 394 358 q 365 376 374 369 q 351 390 356 382 q 342 407 346 397 q 331 436 339 417 q 322 444 328 443 l 322 458 q 309 478 319 460 q 279 507 299 497 q 265 519 276 514 q 249 526 254 524 l 244 533 l 232 538 q 217 551 224 549 q 201 563 210 554 l 183 581 l 183 588 l 178 588 q 183 578 178 585 q 192 569 189 571 q 201 538 194 554 q 225 513 208 521 q 234 510 229 513 q 239 501 239 507 q 275 481 254 492 q 304 453 296 469 q 308 435 307 447 q 317 421 310 424 l 317 415 q 319 399 317 406 q 322 385 322 392 q 322 362 322 369 q 321 351 321 354 l 321 347 q 306 335 315 347 q 286 322 296 322 l 269 304 l 256 297 l 247 286 l 251 288 l 256 292 l 265 296 q 271 299 269 297 q 275 304 272 301 q 290 312 281 308 q 304 322 300 315 l 317 322 l 317 328 q 325 328 321 328 q 333 329 329 329 q 378 318 361 329 q 418 292 394 307 l 418 278 l 424 274 l 424 247 l 431 242 l 431 229 q 426 222 428 226 q 418 217 424 217 l 418 161 l 424 156 l 424 143 l 431 138 l 431 106 q 422 94 425 103 q 411 81 418 86 l 411 68 l 406 63 q 407 56 406 56 q 409 56 408 56 q 411 57 410 57 l 411 18 q 419 13 417 18 q 422 0 421 7 l 43 0 l 33 17 l 69 228 l 100 411 l 135 615 l 169 825 l 175 857 l 190 946 l 317 947 l 1031 947 l 1069 904 l 1164 801 l 1188 775 l 1179 726 l 1151 565 l 1110 310 l 1088 183 l 924 43 l 910 32 l 781 0 l 424 0 l 424 57 l 449 99 q 448 101 449 100 q 447 103 447 101 q 451 110 447 107 q 458 117 456 113 l 458 125 q 476 115 468 125 q 496 106 485 106 q 516 92 503 100 q 538 81 529 85 l 550 81 q 538 93 547 85 q 517 110 528 101 q 493 124 506 118 q 472 131 481 131 l 467 138 l 454 138 q 441 151 451 144 q 431 174 431 157 l 431 189 q 432 192 431 192 q 436 194 435 192 q 442 197 438 197 l 442 247 q 449 247 446 247 q 453 246 451 246 l 454 246 q 467 232 454 236 l 464 215 l 675 215 m 449 286 l 449 310 q 453 315 450 310 q 463 327 457 321 q 474 339 468 333 q 486 346 481 344 l 471 257 q 460 272 464 265 q 449 286 456 279 m 964 828 l 964 835 l 958 835 l 951 828 l 964 828 m 239 286 l 239 278 l 244 286 l 239 286 m 556 75 l 563 75 q 558 77 563 78 q 551 79 554 76 l 556 75 z "},"e":{"ha":949,"x_min":47,"x_max":1072,"o":"m 325 65 q 335 52 333 65 q 338 36 336 39 l 338 104 l 363 146 q 362 148 363 147 q 361 150 361 149 q 365 157 361 154 q 372 164 369 160 l 372 172 q 390 163 382 172 q 410 153 399 153 q 430 140 417 147 q 451 128 443 132 l 464 128 q 451 140 461 132 q 431 157 442 149 q 407 172 419 165 q 386 178 394 178 l 381 185 l 368 185 q 355 198 365 192 q 344 221 344 204 l 344 236 q 346 239 344 239 q 350 242 349 239 q 356 244 351 244 l 356 294 q 363 294 360 294 q 367 293 365 293 l 368 293 q 374 283 368 288 q 388 276 381 279 q 403 272 396 274 q 410 271 410 271 q 414 268 411 269 q 418 267 418 264 q 417 271 418 269 q 408 282 414 278 q 397 290 401 286 q 378 313 385 303 q 363 333 372 324 l 363 357 q 368 363 364 357 q 378 376 372 369 q 390 388 383 382 q 403 393 397 393 l 417 401 l 433 406 l 440 401 l 458 401 l 469 393 q 474 394 472 393 q 478 394 475 394 q 508 388 493 394 q 538 382 524 382 q 558 385 547 382 q 579 388 569 388 l 585 388 q 599 397 586 392 q 613 406 613 401 q 601 401 606 406 q 586 401 599 401 q 557 400 574 400 q 509 403 533 400 q 482 413 485 406 l 469 413 q 453 422 467 421 q 440 432 440 424 q 446 444 440 435 q 458 465 451 454 q 472 486 465 476 q 482 500 479 496 l 494 506 l 500 518 q 517 528 508 521 q 535 544 526 536 q 551 559 543 553 q 568 565 560 565 q 574 568 571 565 q 578 574 576 571 l 596 574 q 624 542 606 561 q 663 502 643 522 q 697 465 682 482 q 717 438 713 447 l 729 432 q 737 420 731 426 q 750 408 743 414 q 763 399 757 403 q 769 393 769 394 l 831 393 l 818 401 l 800 401 l 794 406 l 782 406 l 776 413 q 769 414 772 413 q 765 415 767 414 q 760 419 765 418 q 751 424 754 421 q 745 433 750 426 q 735 447 740 440 q 725 460 729 454 q 721 468 721 467 q 711 480 717 475 q 699 492 706 485 q 676 526 683 506 q 650 554 668 546 l 650 567 l 674 567 l 681 574 l 733 574 l 733 576 l 878 576 l 879 438 l 871 389 l 756 361 l 514 361 l 492 247 l 650 215 l 949 215 l 938 146 l 917 19 l 871 0 l 47 0 l 50 86 l 58 129 l 104 403 l 131 564 l 139 560 q 148 557 143 560 q 153 549 153 554 q 189 528 168 539 q 218 500 210 517 q 222 483 221 494 q 231 468 224 471 l 231 463 q 233 446 231 453 q 236 432 236 439 q 235 409 236 417 q 235 399 235 401 l 235 394 q 219 382 229 394 q 200 369 210 369 l 183 351 l 169 344 l 161 333 l 165 335 l 169 339 l 179 343 q 185 347 183 344 q 189 351 186 349 q 204 359 194 356 q 218 369 214 363 l 231 369 l 231 375 q 239 376 235 375 q 247 376 243 376 q 292 365 275 376 q 332 339 308 354 l 332 325 l 338 321 l 338 294 l 344 289 l 344 276 q 340 269 342 274 q 332 264 338 264 l 332 208 l 338 203 l 338 190 l 344 185 l 344 153 q 335 142 339 150 q 325 128 332 133 l 325 115 l 319 110 q 321 103 319 103 q 323 103 322 103 q 325 104 324 104 l 325 65 m 149 671 l 165 768 l 183 874 l 196 947 l 1072 947 l 1050 806 l 1040 744 l 969 732 l 717 732 q 742 762 731 747 q 757 783 754 776 l 769 789 q 782 808 771 796 q 804 831 793 819 q 825 852 815 843 q 835 864 835 861 l 849 864 q 855 870 850 867 q 864 875 860 874 l 849 875 q 839 869 846 869 q 831 864 832 869 l 818 864 q 791 842 807 858 q 758 808 775 826 q 726 773 742 790 q 703 746 711 756 q 697 745 700 746 q 690 744 693 744 q 682 743 686 743 q 674 739 682 739 l 672 732 l 585 732 l 558 635 l 585 621 q 579 618 579 618 l 578 617 q 571 618 571 617 q 572 620 571 619 q 572 622 572 621 l 560 622 q 555 633 560 624 q 543 655 550 643 q 530 677 536 667 q 524 690 524 688 q 518 728 519 708 q 517 768 517 749 q 517 792 517 781 q 518 815 518 804 l 518 825 l 511 825 q 509 788 511 807 q 507 753 507 769 l 507 667 q 513 653 507 663 q 526 635 518 644 q 541 617 533 625 q 554 604 549 608 l 554 592 l 560 585 l 554 585 l 547 581 q 533 563 540 574 q 511 549 526 553 l 507 542 q 485 530 493 538 q 469 514 476 522 q 456 497 463 506 q 440 481 449 488 q 440 463 440 465 q 438 461 439 461 q 420 451 431 461 q 399 431 410 442 q 381 410 389 419 q 371 403 372 401 q 366 399 368 403 q 363 393 364 394 q 356 392 360 392 q 350 388 351 392 l 332 388 l 308 406 q 278 423 288 417 q 265 437 269 429 q 256 454 260 444 q 244 483 253 464 q 236 492 242 490 l 236 506 q 223 526 233 507 q 193 554 213 544 q 179 566 190 561 q 163 574 168 571 l 158 581 l 146 585 l 136 594 l 149 671 m 632 585 q 624 593 629 588 q 613 599 619 599 l 613 607 l 661 583 q 647 585 654 585 q 632 585 639 585 m 878 875 l 878 882 l 872 882 l 865 875 l 878 875 m 153 333 l 153 325 l 158 333 l 153 333 m 469 122 l 476 122 q 472 124 476 125 q 465 126 468 124 l 469 122 z "},"f":{"ha":908,"x_min":40,"x_max":1036,"o":"m 471 38 l 464 1 l 306 0 l 43 0 l 40 25 l 61 144 l 110 431 l 113 449 l 114 450 q 143 469 125 461 q 174 489 161 478 q 178 495 174 493 q 186 499 183 497 l 186 518 l 192 524 l 192 542 l 199 549 l 199 574 l 204 581 l 204 586 q 208 610 204 599 q 225 624 211 613 q 254 651 239 636 q 283 679 269 665 q 300 699 297 693 l 317 699 l 317 690 q 338 669 324 681 q 361 649 351 658 l 392 614 q 396 608 394 611 q 401 604 397 604 l 401 592 q 396 581 396 589 q 383 562 393 575 q 363 534 374 549 q 340 507 351 519 q 324 492 329 494 q 308 484 318 489 q 294 474 297 479 l 276 469 l 306 469 q 361 522 338 497 q 414 581 385 546 q 420 575 417 578 q 424 571 424 572 q 426 565 424 568 q 432 560 429 561 l 432 549 l 444 536 l 444 524 l 449 518 l 449 506 q 455 518 454 507 q 456 540 456 529 q 457 550 456 546 q 458 557 457 553 q 463 553 461 557 q 467 549 464 550 q 488 542 474 544 q 510 536 501 539 l 510 521 q 515 474 510 494 q 487 447 500 458 q 454 424 474 436 q 418 393 436 411 q 408 384 413 388 q 396 375 403 381 q 386 361 390 369 l 379 353 l 375 344 q 379 347 379 344 q 388 351 385 351 q 397 360 392 351 q 406 369 400 363 q 418 375 411 375 q 453 400 439 383 q 492 424 467 417 q 504 437 496 433 q 519 447 513 440 q 524 449 522 450 q 526 450 525 449 l 526 456 q 544 443 539 456 l 540 432 l 540 425 q 538 399 540 414 q 526 383 535 383 l 522 364 l 522 344 q 532 331 526 340 q 544 313 538 322 l 504 239 l 471 38 m 1036 946 l 1014 811 l 1003 739 l 869 732 l 767 732 q 785 746 776 739 q 797 753 794 753 l 808 764 q 788 752 801 757 q 763 747 774 747 q 753 742 758 744 q 744 735 747 739 l 732 735 q 731 732 731 732 l 590 732 l 569 618 l 589 613 q 553 586 572 597 l 522 567 q 518 568 519 567 q 492 579 510 572 q 458 595 475 586 q 427 615 440 604 q 414 635 414 625 l 396 657 q 386 682 396 668 q 371 703 376 696 q 365 709 368 706 q 361 721 361 713 l 353 728 l 361 728 q 360 731 361 731 q 360 735 360 732 q 365 762 360 747 q 371 789 371 776 l 371 796 l 378 807 l 378 821 q 391 836 382 826 q 409 856 400 846 q 428 874 418 867 q 444 882 438 882 q 484 876 464 882 q 522 864 504 871 q 537 872 525 865 q 561 885 549 878 q 585 901 574 893 q 600 914 597 910 l 588 914 l 582 906 q 579 906 581 906 q 576 907 578 907 q 558 901 567 907 q 540 896 550 896 l 535 896 l 526 888 l 515 888 l 510 896 l 497 896 l 492 901 l 479 901 q 467 906 475 906 l 453 914 q 444 919 447 914 l 425 919 q 414 912 421 918 q 399 899 407 906 q 383 888 390 893 q 374 882 376 882 q 358 894 365 882 q 351 908 354 900 q 328 932 340 925 q 306 946 317 939 l 1036 946 m 789 560 l 892 560 l 890 506 l 864 343 l 564 343 q 558 350 561 346 q 553 357 554 354 l 553 383 l 557 388 l 557 401 l 564 406 l 564 419 l 569 419 l 569 463 l 564 469 q 565 474 564 472 q 565 478 565 475 q 560 502 565 490 q 556 528 556 514 q 556 532 556 531 q 557 536 557 533 l 553 542 l 553 554 q 554 556 553 556 q 564 563 557 556 q 575 574 571 571 q 594 585 581 578 q 611 599 608 593 l 642 599 l 656 594 l 658 592 l 665 592 l 669 592 l 711 581 l 728 576 q 733 572 731 574 q 738 567 735 569 q 740 567 739 567 q 743 568 742 568 q 757 565 750 568 q 767 556 764 561 l 779 556 q 772 561 776 558 q 760 567 767 564 l 789 560 m 190 904 l 197 944 l 268 946 l 289 946 l 331 901 l 347 882 q 349 875 347 878 q 350 871 349 872 q 353 864 353 871 l 361 857 l 361 828 l 353 821 l 353 814 q 349 788 353 803 q 335 771 344 774 l 324 739 l 306 739 l 300 735 l 278 736 q 274 739 278 739 q 269 739 271 739 l 269 753 l 276 758 l 276 771 l 282 778 l 282 796 l 288 801 l 288 832 q 274 801 285 817 q 264 781 264 785 q 257 771 264 774 l 257 758 l 239 758 l 239 765 q 235 764 238 764 q 216 776 225 764 q 196 788 207 788 q 188 799 192 788 q 181 814 185 811 l 181 828 l 178 828 l 190 904 m 125 518 l 149 657 q 171 630 161 643 q 181 610 181 617 l 181 560 l 174 549 l 174 524 l 168 524 l 168 510 q 164 504 164 510 q 163 503 164 503 q 163 501 163 503 q 161 499 161 500 q 148 492 158 494 q 132 488 138 490 q 124 483 128 485 q 118 478 121 481 l 125 518 m 160 722 l 161 721 l 199 721 l 204 717 l 251 717 l 251 708 l 264 708 l 264 703 q 258 697 261 700 q 251 690 254 694 l 204 642 l 186 642 q 178 649 183 646 q 174 660 174 653 q 163 667 171 661 q 151 672 154 674 l 160 722 m 174 801 l 174 789 q 202 765 192 782 q 229 739 213 747 l 163 739 l 172 801 l 174 801 m 264 469 l 264 463 l 269 463 l 276 469 l 264 469 m 606 914 l 611 919 l 600 919 l 600 914 l 606 914 z "}}}
